<svg width="46" height="72" viewBox="0 0 46 72" fill="none" xmlns="http://www.w3.org/2000/svg">
<path d="M30.6725 21.0551C27.7759 20.2817 24.8064 19.8074 21.815 19.6177C18.8309 19.4353 15.8322 19.5448 12.8773 19.9461C11.2065 20.1722 9.54298 20.4933 7.90865 20.9091C7.75543 20.9456 7.8138 21.1937 7.97431 21.1499C10.8563 20.4203 13.8112 19.9825 16.788 19.8366C19.7502 19.6907 22.727 19.8366 25.6601 20.2671C27.3309 20.5152 28.9798 20.8581 30.6141 21.2885C30.7601 21.3396 30.8257 21.0988 30.6725 21.0551Z" fill="#3A3938"/>
<path d="M44.9083 19.8794C44.9083 21.3824 44.4486 22.8781 43.5439 24.0747C42.9091 24.9138 42.0409 25.6069 41.034 25.8841C40.4795 26.0373 39.7864 26.0155 39.4435 25.5485C39.1954 25.2056 39.2319 24.7168 39.3924 24.3228C39.5529 23.9288 39.8229 23.5858 40.0345 23.2137C40.7349 21.9442 40.6474 20.3318 39.9907 19.0477C39.3341 17.7563 38.1594 16.7786 36.8461 16.173C35.3869 15.4945 33.6796 15.2391 32.1474 15.7352C30.586 16.2387 29.3603 17.4644 28.4191 18.7996C27.4706 20.1348 26.7556 21.6232 25.8362 22.9803C24.9169 24.3374 23.7496 25.5996 22.2174 26.1978C21.3491 26.5408 20.3496 26.6137 19.4521 26.3876C19.5105 26.3657 19.5616 26.3365 19.62 26.3146C20.7144 26.1687 21.7869 25.6507 22.626 24.9137C24.0998 23.615 24.968 21.7764 25.7487 19.9743C26.5294 18.1721 27.2809 16.3116 28.6015 14.8524C29.9731 13.3421 31.8774 12.379 33.8766 11.985C36.0508 11.5546 38.3856 11.8026 40.3628 12.8095C42.34 13.8164 43.9379 15.6039 44.5872 17.7271C44.8061 18.4348 44.9083 19.1571 44.9083 19.8794Z" fill="#3A3938"/>
<path d="M44.908 19.8799C44.908 19.1576 44.8058 18.4353 44.5942 17.7495C43.9449 15.6263 42.347 13.8388 40.3698 12.8319C38.3925 11.825 36.0578 11.577 33.8835 12.0074C31.8844 12.4014 29.9728 13.3645 28.6085 14.8748C27.2879 16.3267 26.5364 18.1945 25.7557 19.9967C24.975 21.7988 24.0995 23.6374 22.6329 24.9361C21.8012 25.673 20.7214 26.1911 19.627 26.337C21.2467 25.5855 22.4651 24.0971 23.2239 22.4627C24.063 20.6533 24.4132 18.6615 24.7926 16.7061C25.172 14.7508 25.6098 12.7589 26.5947 11.0298C28.2801 8.06754 31.5926 6.11947 34.9926 6.03192C38.3925 5.94437 41.7852 7.71003 43.6968 10.5263C44.1127 11.1392 44.4629 11.8031 44.7329 12.489C45.6522 14.8164 45.7251 17.4941 44.908 19.8799Z" fill="#3A3938"/>
<path d="M44.7252 12.4737C44.4553 11.7879 44.105 11.1239 43.6892 10.511C41.7703 7.69474 38.3849 5.9291 34.9849 6.01665C31.5849 6.1042 28.2725 8.05225 26.5871 11.0145C25.6021 12.7509 25.1644 14.7355 24.785 16.6908C24.4056 18.6462 24.0553 20.638 23.2163 22.4475C22.4575 24.0745 21.239 25.5702 19.6193 26.3217C19.5172 26.3363 19.4077 26.3509 19.2983 26.3509C19.2034 26.329 19.1159 26.2925 19.0283 26.2634C20.2833 25.541 21.1223 24.1621 21.509 22.7393C21.9541 21.0831 21.8957 19.3466 21.9176 17.632C21.9395 15.9466 22.0781 14.2321 22.3845 12.5685C22.8734 9.93465 23.8146 7.43209 25.5 5.37459C27.4845 2.95228 30.454 1.34713 33.5768 1.10636C36.6995 0.872888 39.9171 2.04756 42.0767 4.31665C44.1269 6.45441 45.1484 9.54795 44.7252 12.4737Z" fill="#3A3938"/>
<path d="M22.391 12.5607C22.0773 14.2242 21.946 15.9461 21.9241 17.6242C21.8949 19.3388 21.9606 21.0825 21.5155 22.7315C21.1288 24.1542 20.2898 25.5332 19.0348 26.2555C19.0275 26.2555 19.0129 26.2482 19.0056 26.2409C19.8739 25.5478 20.494 24.5628 20.8515 23.5049C21.2309 22.3594 21.3185 21.1336 21.2455 19.9225C21.158 18.4487 20.8078 16.9457 19.9614 15.7345C19.1078 14.5233 17.685 13.6478 16.2112 13.7354C14.7301 13.8229 13.322 15.0414 13.2782 16.5225C13.2709 16.7706 13.2855 17.0697 13.0885 17.2229C12.8842 17.3834 12.5559 17.2813 12.4027 17.0697C12.2494 16.8581 12.2275 16.5809 12.2275 16.3182C12.2421 14.6401 13.0666 12.9985 14.3653 11.9332C15.664 10.868 17.4078 10.3865 19.0786 10.5616C20.4065 10.7148 21.8 11.3642 22.391 12.5607Z" fill="#3A3938"/>
<path d="M42.5201 14.1595C40.7034 12.3428 38.1352 11.2848 35.5597 11.3651C34.2609 11.4089 32.9695 11.7299 31.8022 12.299C30.6348 12.8681 29.6279 13.6926 28.7962 14.6848C27.1472 16.6475 26.2206 19.0698 25.1116 21.3535C24.0683 23.5131 22.7623 25.7311 20.6902 27.0444C20.4348 27.2049 20.1722 27.3509 19.9022 27.4749C19.7563 27.5406 19.8803 27.7595 20.0262 27.6938C22.2005 26.6577 23.6597 24.644 24.7687 22.5792C25.9434 20.3831 26.7824 18.0119 28.1687 15.9325C28.8691 14.8891 29.7082 13.9333 30.7442 13.211C31.8022 12.4668 33.0279 11.9707 34.2974 11.7445C36.8438 11.2921 39.5141 12.0218 41.5352 13.6269C43.5416 15.2175 44.8403 17.6471 45.0738 20.1934C45.103 20.5071 45.1176 20.8209 45.1103 21.1346C45.1103 21.2951 45.3583 21.2951 45.3583 21.1346C45.3875 18.5518 44.3442 15.9908 42.5201 14.1595Z" fill="#FEFEFE"/>
<path d="M45.3238 13.2841C44.4263 10.8034 42.5658 8.73128 40.2603 7.46905C37.9182 6.18494 35.1895 5.79823 32.5994 6.47677C30.0165 7.14801 27.6818 8.77506 26.1788 10.9858C24.435 13.554 24.2307 16.6767 23.6762 19.639C23.3917 21.1565 22.9904 22.6741 22.2243 24.0239C21.5093 25.2861 20.517 26.3951 19.3423 27.2488C19.0578 27.4531 18.7586 27.6501 18.4522 27.8252C18.3136 27.9054 18.4376 28.1243 18.5762 28.0441C19.802 27.3364 20.8745 26.3879 21.7282 25.2497C22.6183 24.0604 23.202 22.6887 23.5814 21.2514C24.3547 18.2965 24.3329 15.1008 25.6972 12.321C26.8646 9.94243 28.9878 8.07464 31.4539 7.11155C32.6796 6.63001 34.0002 6.37463 35.3208 6.38922C36.6341 6.40381 37.9401 6.68837 39.144 7.1991C41.5517 8.21326 43.5946 10.103 44.7255 12.4669C44.8641 12.7587 44.9882 13.0506 45.0976 13.357C45.1414 13.5029 45.3821 13.4373 45.3238 13.2841Z" fill="#FEFEFE"/>
<path d="M22.2893 11.3498C21.9829 12.7725 21.8953 14.2244 21.8515 15.6764C21.3043 14.0129 19.9691 12.6047 18.2472 12.1596C16.343 11.6708 14.2271 12.3785 13.2056 14.1004C12.6657 14.9978 12.4614 16.0849 12.6876 17.1137C12.7241 17.2669 12.9649 17.2013 12.9284 17.048C12.5344 15.2824 13.534 13.4146 15.1537 12.6631C16.861 11.8605 18.9258 12.291 20.261 13.5824C20.9833 14.2828 21.494 15.1875 21.7348 16.1579C21.7494 16.2163 21.7932 16.2455 21.8369 16.2455C21.8296 16.5665 21.8223 16.8875 21.815 17.2012C21.7713 19.1201 21.7129 21.0974 21.1365 22.9433C20.852 23.848 20.4142 24.7089 19.6919 25.3364C19.5678 25.4385 19.7502 25.621 19.867 25.5115C21.2022 24.3514 21.6181 22.469 21.8369 20.7982C22.0996 18.8137 22.0412 16.8 22.1361 14.8008C22.1872 13.6626 22.2966 12.5244 22.5374 11.4081C22.5665 11.2549 22.3258 11.1893 22.2893 11.3498Z" fill="#FEFEFE"/>
<path d="M40.5591 19.0036C40.3256 17.6028 39.5668 16.3259 38.487 15.4139C37.378 14.48 35.9917 13.9766 34.5398 13.9693C32.9419 13.962 31.3806 14.4946 30.0381 15.341C28.5424 16.2895 27.3166 17.5882 26.2441 18.9744C26.1493 19.0985 26.3244 19.2809 26.4192 19.1496C28.2505 16.7783 30.6801 14.5603 33.7956 14.2466C35.2402 14.1006 36.6775 14.4217 37.8741 15.2534C38.9831 16.0195 39.8222 17.165 40.187 18.471C40.6247 20.0616 40.3621 21.8199 39.4792 23.2135C39.3917 23.3521 39.6106 23.4761 39.6981 23.3375C40.508 22.068 40.8144 20.4993 40.5591 19.0036Z" fill="#FEFEFE"/>
<path d="M37.1511 0.909668C34.4077 0.960741 31.7811 2.08433 29.6944 3.83539C27.491 5.6886 25.9807 8.24225 25.149 10.9856C24.6674 12.5761 24.412 14.2323 24.3537 15.8959C24.3464 16.0564 24.5945 16.0564 24.6018 15.8959C24.7039 13.0139 25.4116 10.1247 26.8635 7.61479C28.2352 5.25085 30.2781 3.30278 32.7734 2.17188C34.1451 1.54441 35.6335 1.1869 37.1437 1.16501C37.3116 1.15772 37.3116 0.909668 37.1511 0.909668Z" fill="#FEFEFE"/>
<path d="M11.7669 33.4933C11.6137 32.5813 11.3803 31.6766 11.0592 30.8011C10.6798 29.7651 10.1764 28.7509 9.36654 27.9994C8.55668 27.2552 7.39659 26.8174 6.33136 27.0947C4.89403 27.4668 4.02578 29.0354 3.96741 30.5238C3.91633 32.0123 4.49273 33.435 5.06913 34.8067C5.46312 35.7552 5.8717 36.7255 6.07599 37.7251C4.98158 38.3234 3.93094 38.9435 3.04811 39.6805C2.82923 37.8054 2.15069 35.9959 1.65455 34.1646C1.06357 32.005 0.727955 29.6264 1.63997 27.5835C2.63224 25.3509 5.14938 23.9063 7.57899 24.1689C9.63649 24.3878 11.497 25.8325 12.3142 27.7221C12.4382 28.2256 12.5403 28.7655 12.5987 29.32C12.73 30.7281 12.5695 32.2092 11.7669 33.4933Z" fill="#3A3938"/>
<path d="M27.6813 24.2427C25.9448 24.7461 23.3109 25.1109 19.3054 25.1474C15.2998 25.1109 12.6659 24.7461 10.9294 24.2427C6.65393 23.0096 7.91615 20.9521 7.91615 20.9521C9.46292 21.6526 16.9414 22.0101 19.3054 22.1049C21.6766 22.0101 29.1551 21.6526 30.6946 20.9521C30.7019 20.9521 31.9568 23.0096 27.6813 24.2427Z" fill="#FEFEFE"/>
<path d="M36.9609 34.1802C36.4575 36.0116 35.7863 37.821 35.5674 39.6961C34.6846 38.9519 33.6266 38.339 32.5395 37.7408C32.7438 36.7412 33.1524 35.7708 33.5464 34.8223C34.1228 33.4506 34.6992 32.0206 34.6481 30.5395C34.5897 29.0511 33.7215 27.4897 32.2842 27.1103C31.2189 26.8331 30.0588 27.2708 29.249 28.015C28.4391 28.7593 27.9357 29.7807 27.5563 30.8168C27.2425 31.6923 27.0018 32.5897 26.8485 33.509C26.046 32.2249 25.8855 30.7438 26.0241 29.3429C26.0825 28.7884 26.1846 28.2485 26.3086 27.7451C27.1258 25.8554 28.9863 24.4181 31.0438 24.1919C33.4734 23.9292 35.9906 25.3739 36.9828 27.6065C37.8948 29.6421 37.5519 32.0206 36.9609 34.1802Z" fill="#3A3938"/>
<path d="M9.6167 13.0425C12.4172 13.0425 14.6875 10.7722 14.6875 7.97168C14.6875 5.17116 12.4172 2.90088 9.6167 2.90088C6.81618 2.90088 4.5459 5.17116 4.5459 7.97168C4.5459 10.7722 6.81618 13.0425 9.6167 13.0425Z" fill="#3A3938"/>
<path d="M28.3086 53.6168C28.4187 53.6021 28.5287 53.5874 28.6314 53.5801C28.5801 53.5874 28.5287 53.5948 28.4774 53.6021C28.4187 53.6021 28.36 53.6094 28.3086 53.6168Z" fill="#FEFEFE"/>
<path d="M6.04688 55.6514C6.81297 56.899 7.65203 58.132 8.56404 59.3213C8.66619 59.3578 11.9567 60.5325 19.3039 60.62C26.6438 60.5325 29.9343 59.3578 30.0365 59.3213C30.9339 58.1466 31.7657 56.9282 32.5318 55.6951C23.9442 57.9132 14.7876 57.1106 6.04688 55.6514Z" fill="#3A3938"/>
<path d="M24.1272 66.8884C24.0688 66.9395 24.0178 66.9905 23.9521 67.0343C22.8431 67.888 20.523 68.0558 19.3337 68.0777H19.2753C18.0788 68.0558 15.7659 67.888 14.6642 67.0343C14.5985 66.9905 14.5474 66.9395 14.4891 66.8884C13.6719 66.1077 14.8247 65.6772 14.8247 65.6772C14.8247 65.6772 16.1234 66.4944 19.3118 66.6038C22.5002 66.4944 23.7989 65.6772 23.7989 65.6772C23.7989 65.6772 24.9371 66.1004 24.1272 66.8884Z" fill="#3A3938"/>
<path d="M19.3048 60.621C26.6447 60.5334 29.9352 59.3587 30.0374 59.3223C28.2133 61.7227 26.112 63.9261 23.7846 65.6699C23.7846 65.6699 22.4859 66.487 19.2975 66.5965C16.1091 66.487 14.8104 65.6699 14.8104 65.6699C12.4829 63.9261 10.3889 61.7154 8.55762 59.3223C8.67435 59.3587 11.9649 60.5334 19.3048 60.621Z" fill="#FEFEFE"/>
<path d="M37.9172 41.5703C37.8515 43.9707 36.6549 47.9106 34.5536 52.084C33.9554 53.2806 33.2841 54.4844 32.5399 55.6883C23.9524 57.9136 14.7958 57.111 6.05504 55.6518C5.32543 54.4625 4.66148 53.266 4.0705 52.0913C1.96922 47.9179 0.772667 43.978 0.707002 41.5776C0.65593 39.5931 1.62629 38.309 3.05633 37.2948C3.93916 36.6673 4.99711 36.1493 6.08423 35.6386C6.63873 35.3759 7.20053 35.1279 7.74774 34.8579C7.74774 34.8579 9.57907 37.2218 19.3121 37.3313C29.0451 37.2218 30.8764 34.8579 30.8764 34.8579C31.4309 35.1279 31.9927 35.3832 32.5472 35.6386C33.6416 36.1493 34.6923 36.6673 35.5751 37.2948C36.9978 38.3017 37.9682 39.5931 37.9172 41.5703Z" fill="#FEFEFE"/>
<path d="M28.3086 53.6168C28.4187 53.6021 28.5287 53.5874 28.6314 53.5801C28.5801 53.5874 28.5287 53.5948 28.4774 53.6021C28.4187 53.6021 28.36 53.6094 28.3086 53.6168Z" fill="#FEFEFE"/>
<path d="M28.059 33.2314C28.0371 33.2898 27.4097 34.4061 19.4058 34.4718C19.3402 34.4718 19.2745 34.4718 19.2088 34.4718C11.1977 34.3988 10.5776 33.2898 10.5557 33.2314C10.7527 33.0855 10.935 32.9396 11.1102 32.7791C11.3655 32.5456 11.5844 32.3121 11.7668 32.0567C12.5694 30.9696 12.7299 29.722 12.5913 28.54L12.6423 28.5327C12.6423 28.5327 13.693 29.3207 19.3037 29.3864C24.732 29.328 25.8994 28.5838 25.965 28.5327H26.0161C25.8775 29.7147 26.038 30.9623 26.8406 32.0494C27.023 32.2975 27.2418 32.5383 27.4972 32.7718C27.6796 32.9396 27.8693 33.0855 28.059 33.2314Z" fill="#FEFEFE"/>
<path d="M27.6796 24.2427C27.6796 24.2427 26.7968 25.5195 26.3006 27.1903C26.1766 27.6208 26.0744 28.0731 26.0161 28.5401H25.965C25.8921 28.5912 24.732 29.3281 19.3037 29.3937C13.6857 29.3281 12.6423 28.5401 12.6423 28.5401L12.5912 28.5474C12.5329 28.0804 12.4307 27.6281 12.3067 27.1976C11.8106 25.5195 10.9277 24.25 10.9277 24.25C12.6642 24.6732 15.2981 24.9796 19.3037 25.0161C23.3092 24.9723 25.9504 24.6658 27.6796 24.2427Z" fill="#3A3938"/>
<path d="M27.8194 69.7192C27.6443 71.0616 24.1567 71.3462 19.531 71.3827H19.0932C14.4602 71.3535 10.9727 71.0689 10.8049 69.7192C10.6224 68.2818 14.6426 67.0561 14.6426 67.0561L14.6718 67.0342C15.7808 67.8878 18.1009 68.0557 19.2902 68.0775H19.334C20.5233 68.0557 22.8507 67.8878 23.9524 67.0342L23.9816 67.0561C23.9816 67.0561 28.0018 68.2818 27.8194 69.7192Z" fill="#FEFEFE"/>
<path d="M30.8699 34.858C30.8699 34.858 29.0386 37.2146 19.3055 37.3314C9.57254 37.2219 7.74121 34.858 7.74121 34.858C8.74078 34.3765 9.71846 33.8584 10.5502 33.231C10.5721 33.2893 11.1996 34.4056 19.2034 34.4713C19.2691 34.4713 19.3347 34.4713 19.4004 34.4713C27.4115 34.3983 28.0317 33.2893 28.0536 33.231C28.8999 33.8584 29.8703 34.3765 30.8699 34.858Z" fill="#3A3938"/>
<path d="M16.4161 2.74857C16.2921 2.36917 15.9564 2.11381 15.5552 2.18677C15.3363 2.22325 15.1393 2.33999 14.9496 2.45673C14.7307 2.58806 14.5191 2.72667 14.3221 2.87989C13.9354 3.16444 13.5852 3.48547 13.2569 3.84298C13.1401 3.96702 13.3298 4.15672 13.4466 4.03269C13.9719 3.45629 14.5994 2.93827 15.2925 2.57347C15.4676 2.47862 15.6938 2.39106 15.8908 2.47861C16.044 2.54428 16.1389 2.70479 16.1826 2.86531C16.2848 3.2447 16.0805 3.66058 15.9418 4.0035C15.38 5.38976 14.5483 6.65198 13.5925 7.80476C12.644 8.95025 11.5715 9.9936 10.4698 11.0005C9.34616 12.0292 8.20067 13.0653 6.88737 13.8532C6.52257 14.0721 6.14317 14.2691 5.74918 14.4442C5.55219 14.5318 5.3406 14.6193 5.13631 14.6777C4.9758 14.7288 4.7861 14.7725 4.61829 14.7142C4.20971 14.5683 4.47966 13.8824 4.5891 13.6052C4.74232 13.1966 4.9904 12.8172 5.28954 12.5035C5.40628 12.3794 5.21658 12.1897 5.09984 12.3138C4.81529 12.6202 4.57451 12.9704 4.4067 13.3498C4.26078 13.6854 4.10027 14.1013 4.14405 14.4734C4.25349 15.3781 5.39169 14.8966 5.88053 14.685C7.44919 13.9992 8.78437 12.8829 10.0466 11.752C12.4835 9.56313 14.9423 7.1773 16.1899 4.09105C16.3504 3.66787 16.562 3.19363 16.4161 2.74857Z" fill="#FEFEFE"/>
</svg>
