<svg width="73" height="59" viewBox="0 0 73 59" fill="none" xmlns="http://www.w3.org/2000/svg">
<path d="M37.4569 15.9641C41.6017 15.9641 44.9616 12.6041 44.9616 8.45934C44.9616 4.31458 41.6017 0.95459 37.4569 0.95459C33.3121 0.95459 29.9521 4.31458 29.9521 8.45934C29.9521 12.6041 33.3121 15.9641 37.4569 15.9641Z" fill="#FEFEFE"/>
<path d="M41.9383 54.6418C41.5489 55.9445 40.6073 57.0773 39.3895 57.6933C38.5399 58.1251 37.5629 58.2951 36.6142 58.203C35.7079 58.2667 34.7875 58.0897 33.9804 57.6791C32.7627 57.0702 31.821 55.9374 31.4316 54.6276C32.2812 54.8754 33.2016 54.8684 34.0654 54.6631C34.8867 54.4648 35.6796 54.0825 36.2177 53.4382C36.423 53.1904 36.5858 52.8931 36.692 52.5815C36.7912 52.9001 36.954 53.2046 37.1664 53.4595C37.7045 54.1037 38.4974 54.4861 39.3187 54.6843C40.1683 54.8754 41.0887 54.8896 41.9383 54.6418Z" fill="#FEFEFE"/>
<path d="M52.3529 34.6764C52.2397 33.3312 51.5175 32.0851 51.0573 30.8037C50.0095 27.8513 50.321 24.5025 49.0183 21.6493C48.0483 19.5253 46.1721 17.8403 43.9632 17.0686C43.7508 16.9907 43.5243 16.927 43.3048 16.8703C41.0887 16.2968 38.6532 16.6579 36.685 17.8261C34.7168 16.6438 32.2671 16.2827 30.044 16.8562C29.8175 16.9128 29.598 16.9836 29.3856 17.0544C29.3644 17.0615 29.336 17.0686 29.3077 17.0827C27.1342 17.8615 25.2934 19.5395 24.3305 21.6351C23.0207 24.4883 23.3393 27.8301 22.2915 30.7895C22.2419 30.924 22.1924 31.0515 22.1428 31.186C21.9729 31.6249 21.7817 32.0568 21.6047 32.4887C21.3144 33.1967 21.0596 33.9188 20.9959 34.6693C20.9817 34.8109 20.9746 34.9596 20.9746 35.1012C20.9888 36.149 21.4065 37.1119 21.9658 38.0252L21.9729 38.0323C22.0154 38.096 22.0508 38.1597 22.0932 38.2235C22.1357 38.2872 22.1711 38.3509 22.2136 38.4146C22.518 38.8819 22.8437 39.335 23.1623 39.781C23.7499 40.6023 24.3022 41.4448 24.8332 42.3015C26.3341 44.7441 27.5944 47.3283 28.5997 50.0116C28.6988 50.1178 28.7838 50.2311 28.8617 50.3514C28.9608 49.8771 29.1166 49.4098 29.2936 48.9567C30.5184 45.707 32.345 42.7192 33.9026 39.6111C35.2195 36.9845 36.3452 34.1808 36.6779 31.278C37.0107 34.1879 38.1435 36.9915 39.4604 39.6253C41.0109 42.7334 42.8446 45.7211 44.0694 48.9708C44.2393 49.4239 44.4022 49.8912 44.5013 50.3656C44.5792 50.2452 44.6641 50.1319 44.7632 50.0257V50.0187C46.1226 46.3937 47.9492 42.9529 50.1936 39.8023C50.5122 39.3562 50.8378 38.9031 51.1423 38.4359C51.8149 37.4093 52.36 36.326 52.3742 35.1295C52.3813 34.9667 52.3742 34.8251 52.3529 34.6764ZM27.2545 33.3878C26.6527 34.0604 25.5058 34.1242 24.8332 33.5365C24.1535 32.9418 24.0756 31.7949 24.6562 31.1152C24.2031 30.9736 23.7287 30.8815 23.2544 30.832C24.4792 30.4284 25.8952 30.6762 26.9005 31.4763C27.828 32.2055 28.3873 33.3808 28.3873 34.5631C28.3873 34.6976 28.3873 34.8322 28.3944 34.9667C28.1608 34.3436 27.7643 33.7985 27.2545 33.3878ZM48.5298 33.5436C47.8572 34.1383 46.7031 34.0675 46.1084 33.3949C45.5987 33.8056 45.2022 34.3507 44.9686 34.9667C44.9686 34.8322 44.9686 34.6976 44.9756 34.5631C44.9756 33.3808 45.535 32.2126 46.4624 31.4763C47.4678 30.6833 48.8838 30.4355 50.1086 30.8391C49.6342 30.8815 49.1599 30.9807 48.7068 31.1223C49.2873 31.8019 49.2094 32.956 48.5298 33.5436Z" fill="#3A3938"/>
<path d="M48.707 31.1224C49.2946 31.8021 49.2096 32.9561 48.53 33.5438C47.8574 34.1385 46.7033 34.0677 46.1086 33.3951C45.5989 33.8057 45.2024 34.3509 44.9688 34.9669C44.9688 34.8323 44.9687 34.6978 44.9758 34.5633C44.9758 33.3809 45.5351 32.2128 46.4626 31.4764C47.468 30.6835 48.884 30.4357 50.1088 30.8392C49.6344 30.8888 49.1601 30.9808 48.707 31.1224Z" fill="#FEFEFE"/>
<path d="M28.3939 34.9593C28.1603 34.3504 27.7638 33.7982 27.2541 33.3876C26.6523 34.0601 25.5053 34.1239 24.8327 33.5362C24.1531 32.9415 24.0752 31.7946 24.6557 31.1149C24.2026 30.9733 23.7283 30.8813 23.2539 30.8317C24.4787 30.4281 25.8947 30.6759 26.9001 31.476C27.8276 32.2052 28.3869 33.3805 28.3869 34.5628C28.3869 34.6903 28.3939 34.8248 28.3939 34.9593Z" fill="#FEFEFE"/>
<path d="M41.9446 49.0559C41.803 49.1196 41.6402 49.0417 41.4986 48.978C40.5498 48.5461 39.4029 48.5815 38.4825 49.063C37.6117 49.5161 36.9603 50.3515 36.7196 51.3002C36.7125 51.2719 36.6984 51.2436 36.6842 51.2153C36.67 51.2507 36.663 51.279 36.6488 51.3144C36.4152 50.3586 35.7567 49.509 34.8859 49.0559C33.9584 48.5745 32.8185 48.5462 31.8627 48.9709C31.7211 49.0347 31.5583 49.1125 31.4167 49.0488C31.1548 48.9426 31.2326 48.5461 31.3955 48.3196C32.0114 47.4275 33.1867 47.0169 34.2629 47.1443C35.1549 47.2505 35.9904 47.6824 36.6842 48.27C37.378 47.6895 38.1993 47.2647 39.0914 47.1585C40.1675 47.031 41.3428 47.4417 41.9588 48.3337C42.1216 48.5532 42.1995 48.9497 41.9446 49.0559Z" fill="#3A3938"/>
<path d="M44.5016 50.3512C44.4024 49.8769 44.2467 49.4096 44.0697 48.9565C42.8449 45.7068 41.0111 42.719 39.4606 39.6109C38.1438 36.9701 37.011 34.1735 36.6782 31.2637C36.3455 34.1665 35.2127 36.9701 33.9029 39.5968C32.3453 42.7049 30.5187 45.6926 29.2938 48.9423C29.1239 49.3954 28.9611 49.8627 28.862 50.3371C28.7487 50.8751 28.7133 51.4274 28.8195 51.9655C29.0319 53.0416 29.8461 53.9478 30.8373 54.4151C31.0284 54.5001 31.2196 54.578 31.4249 54.6346C32.2745 54.8824 33.1949 54.8753 34.0586 54.67C34.8799 54.4717 35.6729 54.0894 36.2109 53.4452C36.4163 53.1974 36.5791 52.9 36.6853 52.5885C36.7844 52.9071 36.9473 53.2115 37.1597 53.4664C37.6977 54.1107 38.4907 54.493 39.312 54.6912C40.1757 54.8965 41.0961 54.9036 41.9457 54.6558C42.1439 54.5992 42.3422 54.5213 42.5333 54.4363C43.5245 53.9762 44.3316 53.0628 44.5511 51.9867C44.6502 51.4345 44.6148 50.8893 44.5016 50.3512ZM41.9457 49.0556C41.8041 49.1193 41.6413 49.0414 41.4997 48.9777C40.551 48.5458 39.404 48.5812 38.4836 49.0627C37.6128 49.5158 36.9614 50.3512 36.7207 51.2999C36.7065 51.3495 36.6995 51.3991 36.6853 51.4486C36.6782 51.3991 36.6641 51.3566 36.6499 51.307C36.4163 50.3512 35.7578 49.5016 34.887 49.0485C33.9595 48.5671 32.8196 48.5388 31.8639 48.9635C31.7223 49.0273 31.5594 49.1051 31.4178 49.0414C31.1559 48.9352 31.2337 48.5388 31.3966 48.3122C32.0125 47.4201 33.1878 47.0095 34.264 47.1369C35.156 47.2431 35.9915 47.675 36.6853 48.2626C37.3791 47.6821 38.2004 47.2573 39.0925 47.1511C40.1686 47.0236 41.3439 47.4343 41.9599 48.3264C42.1227 48.5529 42.2006 48.9494 41.9457 49.0556Z" fill="#FEFEFE"/>
<path d="M36.6346 50.9247C36.6205 51.8734 36.5922 52.9496 35.962 53.7284C35.3744 54.4435 34.4257 54.7904 33.5336 54.8895C31.7353 55.0877 29.7954 54.309 29.0449 52.5744C28.6555 51.6823 28.6131 50.6274 29.052 49.7424C29.1228 49.6008 28.9104 49.4733 28.8396 49.6149C27.9829 51.3495 28.79 53.4806 30.3901 54.4647C31.2256 54.9815 32.2309 55.201 33.2079 55.1585C34.1779 55.1161 35.2045 54.8187 35.9196 54.139C36.8046 53.3036 36.8683 52.0575 36.8895 50.9177C36.8895 50.7619 36.6417 50.7619 36.6346 50.9247Z" fill="#3A3938"/>
<path d="M36.7344 50.8891C36.7485 51.8378 36.7769 52.914 37.407 53.6927C37.9946 54.4078 38.9433 54.7547 39.8354 54.8539C41.6337 55.0521 43.5736 54.2733 44.3241 52.5387C44.7135 51.6466 44.756 50.5917 44.317 49.7067C44.2462 49.5651 44.4586 49.4377 44.5294 49.5793C45.3861 51.3139 44.579 53.4449 42.9789 54.4291C42.1435 54.9459 41.1381 55.1654 40.1611 55.1229C39.1911 55.0804 38.1645 54.7831 37.4494 54.1034C36.5645 53.268 36.5007 52.0219 36.4795 50.882C36.4795 50.7262 36.7273 50.7262 36.7344 50.8891Z" fill="#3A3938"/>
<path d="M19.396 30.5414C20.196 31.122 20.9394 31.7734 21.6191 32.4884C22.1713 33.0761 22.674 33.6991 23.113 34.3717C23.1767 34.4708 23.2475 34.577 23.3041 34.6761C23.4811 34.9664 23.651 35.2638 23.7997 35.5611C24.8405 37.6214 25.2794 40.0215 24.8334 42.2871C24.8192 42.3791 24.798 42.4782 24.7768 42.5703C24.2458 44.9208 22.7094 47.059 20.5642 48.1422C18.7163 49.0768 16.5003 49.183 14.5108 48.6024C12.5214 48.0218 10.7655 46.7758 9.40618 45.2111C6.7866 42.1738 5.74585 37.855 6.63084 33.9469C5.58301 33.9965 4.54933 34.3505 3.69266 34.9664C2.66607 35.7027 1.90143 36.8001 1.58284 38.025C1.5262 38.2373 1.46956 38.4781 1.30672 38.6267C1.243 38.6834 1.16512 38.7188 1.08016 38.7259L1.066 38.5559C0.329684 35.8018 1.28548 32.7221 3.26786 30.6689C4.71217 29.175 6.645 28.2121 8.69111 27.8086C9.28582 25.6988 10.3195 23.6314 11.7001 21.8543C13.0807 20.0773 14.8082 18.5763 16.7764 17.6135C20.6421 15.7231 25.3007 15.5249 29.315 17.0825C27.1415 17.8612 25.3007 19.5392 24.3378 21.6349C23.028 24.4881 23.3466 27.8298 22.2988 30.7892C22.2492 30.9238 22.1996 31.0512 22.1501 31.1857C21.343 30.6547 20.3518 30.4211 19.396 30.5414Z" fill="#FEFEFE"/>
<path d="M19.6579 30.4704C17.2295 28.6862 14.263 27.6809 11.254 27.5888C10.4115 27.5605 9.56187 27.6101 8.72644 27.7304C8.57068 27.7517 8.6344 27.9924 8.79016 27.9711C11.7213 27.5605 14.7727 28.0773 17.4206 29.4013C18.1569 29.7694 18.8649 30.2013 19.5304 30.6898C19.665 30.7819 19.7853 30.5695 19.6579 30.4704Z" fill="#3A3938"/>
<path d="M16.1105 37.4023C14.73 35.5119 12.5989 34.2234 10.3121 33.7773C9.02351 33.5224 7.6854 33.5366 6.41101 33.8481C6.25525 33.8835 6.31897 34.1242 6.47473 34.0888C8.61995 33.572 10.9351 33.9189 12.875 34.9455C13.8379 35.4553 14.7158 36.1349 15.4379 36.9491C16.2521 37.8695 16.9743 39.0448 16.9531 40.3121C16.9389 40.9847 16.7123 41.6715 16.2097 42.1387C15.7353 42.5777 15.0627 42.7901 14.4326 42.6131C14.2768 42.5706 14.2131 42.8113 14.3689 42.8538C14.9353 43.0096 15.5441 42.8963 16.0327 42.5848C16.5495 42.2591 16.9106 41.7423 17.0805 41.1546C17.4557 39.8236 16.8893 38.4713 16.1105 37.4023Z" fill="#3A3938"/>
<path d="M53.9454 30.5414C53.1453 31.122 52.4019 31.7734 51.7223 32.4884C51.17 33.0761 50.6674 33.6991 50.2284 34.3717C50.1647 34.4708 50.0939 34.577 50.0372 34.6761C49.8602 34.9664 49.6903 35.2638 49.5416 35.5611C48.5009 37.6214 48.0619 40.0215 48.508 42.2871C48.5221 42.3791 48.5434 42.4782 48.5646 42.5703C49.0956 44.9208 50.632 47.059 52.7772 48.1422C54.6251 49.0768 56.8411 49.183 58.8305 48.6024C60.82 48.0218 62.5758 46.7758 63.9352 45.2111C66.5548 42.1738 67.5955 37.855 66.7105 33.9469C67.7584 33.9965 68.792 34.3505 69.6487 34.9664C70.6753 35.7027 71.4399 36.8001 71.7585 38.025C71.8152 38.2373 71.8718 38.4781 72.0347 38.6267C72.0984 38.6834 72.1762 38.7188 72.2612 38.7259L72.2754 38.5559C73.0117 35.8018 72.0559 32.7221 70.0735 30.6689C68.6292 29.175 66.6964 28.2121 64.6503 27.8086C64.0555 25.6988 63.0219 23.6314 61.6413 21.8543C60.2607 20.0773 58.5332 18.5763 56.565 17.6135C52.6993 15.7231 48.0407 15.5249 44.0264 17.0825C46.1999 17.8612 48.0407 19.5392 49.0036 21.6349C50.3134 24.4881 49.9948 27.8298 51.0426 30.7892C51.0922 30.9238 51.1417 31.0512 51.1913 31.1857C51.9913 30.6618 52.9896 30.4282 53.9454 30.5414Z" fill="#FEFEFE"/>
<path d="M44.0845 11.971C42.8242 14.3428 40.3321 15.957 37.4576 15.957C33.3159 15.957 29.96 12.6011 29.96 8.45934C29.96 4.31757 33.3159 0.95459 37.4576 0.95459C39.6807 0.95459 41.6773 1.92454 43.0508 3.46089C42.4348 3.18477 41.7481 3.0361 41.0259 3.0361C38.2647 3.0361 36.0346 5.27336 36.0346 8.02746C36.0346 10.7816 38.2718 13.0188 41.0259 13.0188C42.18 13.0188 43.242 12.6294 44.0845 11.971Z" fill="#3A3938"/>
<path d="M24.7268 11.412C26.3573 11.412 27.6791 10.0902 27.6791 8.45966C27.6791 6.82913 26.3573 5.50732 24.7268 5.50732C23.0962 5.50732 21.7744 6.82913 21.7744 8.45966C21.7744 10.0902 23.0962 11.412 24.7268 11.412Z" fill="#FEFEFE"/>
<path d="M17.9082 10.4135C18.9874 10.4135 19.8622 9.53863 19.8622 8.45943C19.8622 7.38023 18.9874 6.50537 17.9082 6.50537C16.829 6.50537 15.9541 7.38023 15.9541 8.45943C15.9541 9.53863 16.829 10.4135 17.9082 10.4135Z" fill="#3A3938"/>
<path d="M50.0812 11.412C51.7118 11.412 53.0336 10.0902 53.0336 8.45966C53.0336 6.82913 51.7118 5.50732 50.0812 5.50732C48.4507 5.50732 47.1289 6.82913 47.1289 8.45966C47.1289 10.0902 48.4507 11.412 50.0812 11.412Z" fill="#FEFEFE"/>
<path d="M56.8994 10.4135C57.9786 10.4135 58.8534 9.53863 58.8534 8.45943C58.8534 7.38023 57.9786 6.50537 56.8994 6.50537C55.8202 6.50537 54.9453 7.38023 54.9453 8.45943C54.9453 9.53863 55.8202 10.4135 56.8994 10.4135Z" fill="#3A3938"/>
<path d="M42.591 28.4747C43.7733 28.411 44.899 28.8287 46.0672 28.9137C46.9664 28.9845 47.9576 28.8429 48.6514 28.2057C48.7505 28.1207 48.8638 28.0074 48.9346 27.8871C48.9912 27.9154 49.0479 27.9437 49.1045 27.9791C49.3098 28.0782 51.3843 29.1898 51.5896 29.2818L51.6887 29.0694C51.4763 28.9774 49.3948 27.8587 49.1895 27.7525C49.2036 27.7242 49.2178 27.6888 49.2036 27.6463C49.1328 27.441 49.0974 27.2286 49.0833 27.0091C49.062 26.6481 49.1116 26.287 49.1541 25.9259C49.2178 25.4232 49.2957 24.9135 49.239 24.4108C49.1824 23.894 48.9488 23.4267 48.6372 23.0161C48.0071 22.1948 47.0372 21.5363 46.754 20.4956C46.7186 20.3682 46.5416 20.3682 46.5203 20.5027C46.3858 21.5222 46.2584 22.5629 46.4071 23.5895C46.5487 24.5241 46.9593 25.3524 47.5115 26.11C47.7947 26.4994 48.1062 26.8675 48.4178 27.2357C48.4532 27.2782 48.5098 27.3348 48.5664 27.3915C48.5806 27.4127 48.6018 27.4339 48.6231 27.4552C48.2337 27.2428 47.8514 27.0162 47.4832 26.7684C47.3558 26.6835 47.2354 26.6056 47.1151 26.5206C47.108 26.5065 47.108 26.4994 47.1009 26.4923C47.0018 26.3578 46.9027 26.2162 46.8106 26.0746C46.7965 26.0604 46.7894 26.0392 46.7752 26.025C46.4779 25.5719 46.1947 25.1046 45.8902 24.6515C45.5362 24.1276 45.1256 23.6249 44.63 23.2285C44.1769 22.8745 43.653 22.6479 43.1007 22.4921C42.0529 22.1948 40.8918 22.124 39.9785 21.4655C39.8581 21.3735 39.7236 21.5647 39.8439 21.6567C40.3608 22.0815 40.7148 22.655 41.0546 23.2143C41.3661 23.717 41.6776 24.2267 42.0954 24.6515C42.5272 25.0905 43.0299 25.4445 43.5892 25.7064C44.6725 26.2091 45.9398 26.1525 46.9735 26.7543C46.9947 26.7684 47.023 26.7684 47.0443 26.7684C47.1505 26.8392 47.2496 26.91 47.3558 26.9737C47.5398 27.0941 47.731 27.2145 47.9222 27.3277C47.7664 27.2923 47.6106 27.2569 47.4549 27.2357C45.7486 26.9596 43.9574 27.3277 42.506 28.2765C42.3856 28.3402 42.4918 28.4818 42.591 28.4747Z" fill="#FEFEFE"/>
<path d="M31.0196 27.8446C29.5682 26.903 27.777 26.5277 26.0707 26.8038C25.915 26.8251 25.7592 26.8605 25.6034 26.8959C25.7946 26.7826 25.9858 26.6622 26.1698 26.5419C26.276 26.4782 26.3822 26.4074 26.4814 26.3366C26.5026 26.3366 26.5309 26.3366 26.5522 26.3224C27.5858 25.7135 28.8531 25.7702 29.9364 25.2746C30.4886 25.0126 30.9984 24.6586 31.4302 24.2197C31.848 23.7949 32.1595 23.2851 32.471 22.7824C32.8179 22.2231 33.1719 21.6496 33.6817 21.2248C33.802 21.1257 33.6675 20.9416 33.5471 21.0337C32.6409 21.6992 31.4798 21.7629 30.4249 22.0603C29.8727 22.216 29.3487 22.4426 28.8956 22.7966C28.3929 23.1931 27.9894 23.6957 27.6354 24.2197C27.331 24.6728 27.0548 25.1401 26.7504 25.5932C26.7362 25.6073 26.7292 25.6286 26.715 25.6427C26.623 25.7843 26.5238 25.9259 26.4247 26.0604C26.4176 26.0675 26.4106 26.0817 26.4106 26.0888C26.2902 26.1737 26.1698 26.2587 26.0424 26.3366C25.6742 26.5773 25.2919 26.8038 24.9025 27.0233C24.9167 27.0021 24.9379 26.9808 24.9592 26.9596C25.0158 26.903 25.0725 26.8463 25.1079 26.8038C25.4194 26.4428 25.7309 26.0675 26.0141 25.6781C26.5663 24.9206 26.977 24.0851 27.1186 23.1577C27.2672 22.1311 27.1398 21.0903 27.0053 20.0708C26.984 19.9363 26.807 19.9292 26.7716 20.0637C26.4884 21.1045 25.5185 21.7629 24.8884 22.5842C24.5769 22.9948 24.3432 23.4621 24.2866 23.9789C24.2299 24.4816 24.3007 24.9914 24.3715 25.4941C24.4211 25.8481 24.4636 26.2162 24.4423 26.5773C24.4282 26.7968 24.3928 27.0092 24.322 27.2145C24.3078 27.257 24.3149 27.2924 24.3361 27.3207C24.1308 27.4269 22.0493 28.5455 21.8369 28.6375L21.936 28.8499C22.1414 28.7579 24.2229 27.6464 24.4211 27.5472C24.4777 27.5189 24.5344 27.4906 24.591 27.4552C24.6618 27.5826 24.7822 27.6888 24.8742 27.7738C25.568 28.411 26.5592 28.5526 27.4584 28.4818C28.6266 28.3897 29.7523 27.972 30.9347 28.0428C31.0196 28.057 31.1258 27.9154 31.0196 27.8446Z" fill="#FEFEFE"/>
<path d="M23.7721 15.9288C22.618 19.6245 21.464 23.3131 20.31 27.0089C19.9843 28.0638 19.6515 29.1116 19.3259 30.1665C19.2763 30.3294 19.5241 30.3931 19.5736 30.2373C20.7277 26.5416 21.8817 22.8529 23.0357 19.1572C23.3614 18.1023 23.6942 17.0545 24.0199 15.9996C24.0765 15.8367 23.8216 15.7659 23.7721 15.9288Z" fill="#3A3938"/>
<path d="M18.8374 16.6089C18.4197 19.9011 17.9949 23.1933 17.5771 26.4855C17.4568 27.4271 17.3364 28.3687 17.2161 29.3104C17.1948 29.4732 17.4568 29.4732 17.478 29.3104C17.8957 26.0182 18.3205 22.726 18.7383 19.4338C18.8586 18.4922 18.979 17.5506 19.0993 16.6089C19.1206 16.4461 18.8586 16.4461 18.8374 16.6089Z" fill="#3A3938"/>
<path d="M2.87141 35.9574C2.22005 35.4406 1.61118 34.8742 1.04478 34.2653C0.931503 34.1449 0.747424 34.329 0.860704 34.4494C1.4271 35.0582 2.03598 35.6246 2.68733 36.1415C2.74397 36.184 2.81477 36.191 2.87141 36.1415C2.91389 36.099 2.92097 36.007 2.87141 35.9574Z" fill="#3A3938"/>
<path d="M4.21622 34.7897C3.6569 33.841 3.09759 32.8994 2.53827 31.9507C2.45331 31.8091 2.22675 31.9365 2.31171 32.0852C2.87103 33.0339 3.43035 33.9755 3.98966 34.9243C4.07462 35.0659 4.30118 34.9313 4.21622 34.7897Z" fill="#3A3938"/>
<path d="M6.84329 34.0462C6.38309 32.3612 5.85917 30.6974 5.27862 29.0478C5.22198 28.892 4.97418 28.9557 5.03082 29.1186C5.61137 30.7682 6.12821 32.432 6.59549 34.117C6.63797 34.2728 6.88576 34.209 6.84329 34.0462Z" fill="#3A3938"/>
<path d="M8.59935 27.7027C8.55687 27.5398 8.30908 27.6106 8.35156 27.7735C8.81883 29.6497 9.08079 31.5754 9.14451 33.5082C9.15159 33.6782 9.40647 33.6782 9.40647 33.5082C9.33567 31.5471 9.07371 29.6001 8.59935 27.7027Z" fill="#3A3938"/>
<path d="M11.1973 27.8301C11.1619 29.9611 11.1194 32.0993 11.084 34.2304C11.084 34.4003 11.3389 34.4003 11.3459 34.2304C11.3813 32.0993 11.4238 29.9611 11.4592 27.8301C11.4592 27.6602 11.2043 27.6602 11.1973 27.8301Z" fill="#3A3938"/>
<path d="M15.5651 28.4101C14.8571 30.619 14.1491 32.835 13.4411 35.044C13.3915 35.2068 13.6393 35.2705 13.6889 35.1148C14.3969 32.9058 15.1049 30.6898 15.8129 28.4809C15.8624 28.318 15.6146 28.2543 15.5651 28.4101Z" fill="#3A3938"/>
<path d="M19.198 30.4989L15.0421 36.6797C14.95 36.8213 15.1766 36.9488 15.2686 36.8142C16.6563 34.754 18.0369 32.6937 19.4246 30.6334C19.5166 30.4918 19.2901 30.3644 19.198 30.4989Z" fill="#3A3938"/>
<path d="M22.4038 32.5021C20.9524 34.0526 19.4302 35.5394 17.8372 36.9412C17.3841 37.3377 16.9309 37.7271 16.4708 38.1094C16.3433 38.2156 16.5274 38.3997 16.6548 38.2935C18.2903 36.9342 19.855 35.4969 21.3488 33.9818C21.7666 33.557 22.1843 33.1181 22.5949 32.6862C22.7011 32.5658 22.517 32.3817 22.4038 32.5021Z" fill="#3A3938"/>
<path d="M25.5199 39.7031C23.3039 39.7031 21.0949 39.7881 18.886 39.9438C18.2559 39.9863 17.6258 40.043 17.0027 40.0996C16.8399 40.1138 16.8328 40.3757 17.0027 40.3616C19.2046 40.1562 21.4206 40.0288 23.6296 39.9863C24.2597 39.9722 24.8898 39.9651 25.5199 39.9651C25.6898 39.958 25.6898 39.7031 25.5199 39.7031Z" fill="#3A3938"/>
<path d="M23.4518 45.6854C21.2995 44.1348 19.1472 42.5843 16.9949 41.0338C16.8604 40.9347 16.7259 41.1613 16.8604 41.2604C19.0127 42.8109 21.165 44.3614 23.3173 45.9119C23.4589 46.0039 23.5864 45.7845 23.4518 45.6854Z" fill="#3A3938"/>
<path d="M19.0403 48.8076C17.9783 46.6624 16.9163 44.5101 15.8544 42.3649C15.7836 42.2162 15.557 42.3436 15.6278 42.4994C16.6898 44.6446 17.7518 46.7969 18.8138 48.9422C18.8917 49.0908 19.1182 48.9563 19.0403 48.8076Z" fill="#3A3938"/>
<path d="M53.8754 30.5128C56.3038 28.7287 59.2703 27.7233 62.2793 27.6313C63.1218 27.603 63.9714 27.6525 64.8068 27.7729C64.9626 27.7941 64.8989 28.0349 64.7431 28.0136C61.812 27.603 58.7606 28.1198 56.1127 29.4438C55.3763 29.8119 54.6683 30.2438 54.0028 30.7323C53.8683 30.8244 53.7479 30.6049 53.8754 30.5128Z" fill="#3A3938"/>
<path d="M57.4226 37.4442C58.8032 35.5539 60.9343 34.2653 63.2211 33.8193C64.5097 33.5644 65.8478 33.5786 67.1222 33.8901C67.2779 33.9255 67.2142 34.1662 67.0585 34.1308C64.9132 33.614 62.5981 33.9609 60.6582 34.9875C59.6953 35.4973 58.8174 36.1769 58.0952 36.9911C57.281 37.9115 56.5589 39.0868 56.5801 40.3541C56.5943 41.0267 56.8208 41.7135 57.3235 42.1807C57.7979 42.6197 58.4705 42.8321 59.1006 42.6551C59.2564 42.6126 59.3201 42.8533 59.1643 42.8958C58.5979 43.0516 57.989 42.9383 57.5005 42.6268C56.9837 42.3011 56.6226 41.7843 56.4527 41.1966C56.0775 39.8656 56.6439 38.5133 57.4226 37.4442Z" fill="#3A3938"/>
<path d="M49.7628 15.9717C50.9168 19.6675 52.0709 23.3561 53.2249 27.0518C53.5506 28.1068 53.8833 29.1546 54.209 30.2095C54.2586 30.3723 54.0108 30.4361 53.9612 30.2803C52.8072 26.5846 51.6531 22.8959 50.4991 19.2002C50.1734 18.1453 49.8407 17.0974 49.515 16.0425C49.4584 15.8797 49.7132 15.8089 49.7628 15.9717Z" fill="#3A3938"/>
<path d="M54.6968 16.6514C55.1145 19.9436 55.5393 23.2358 55.957 26.528C56.0774 27.4696 56.1977 28.4112 56.3181 29.3529C56.3393 29.5157 56.0774 29.5157 56.0561 29.3529C55.6384 26.0607 55.2136 22.7685 54.7959 19.4763C54.6755 18.5347 54.5552 17.5931 54.4348 16.6514C54.4136 16.4886 54.6755 16.4886 54.6968 16.6514Z" fill="#3A3938"/>
<path d="M70.6678 36.0009C71.3192 35.484 71.928 34.9176 72.4944 34.3087C72.6077 34.1884 72.7918 34.3725 72.6785 34.4928C72.1121 35.1017 71.5032 35.6681 70.8519 36.1849C70.7952 36.2274 70.7244 36.2345 70.6678 36.1849C70.6182 36.1425 70.6112 36.0433 70.6678 36.0009Z" fill="#3A3938"/>
<path d="M69.3166 34.8327C69.8759 33.884 70.4352 32.9424 70.9945 31.9936C71.0795 31.852 71.3061 31.9795 71.2211 32.1282C70.6618 33.0769 70.1025 34.0185 69.5432 34.9672C69.4582 35.1088 69.2316 34.9743 69.3166 34.8327Z" fill="#3A3938"/>
<path d="M66.6914 34.0892C67.1516 32.4041 67.6755 30.7404 68.2561 29.0907C68.3127 28.935 68.5605 28.9987 68.5039 29.1615C67.9233 30.8112 67.4065 32.4749 66.9392 34.16C66.8967 34.3157 66.6489 34.252 66.6914 34.0892Z" fill="#3A3938"/>
<path d="M64.9341 27.7447C64.9765 27.5818 65.2243 27.6526 65.1819 27.8155C64.7146 29.6917 64.4526 31.6174 64.3889 33.5502C64.3818 33.7202 64.127 33.7202 64.127 33.5502C64.1978 31.5891 64.4597 29.6421 64.9341 27.7447Z" fill="#3A3938"/>
<path d="M62.3362 27.8721C62.3716 30.0031 62.4141 32.1413 62.4495 34.2723C62.4495 34.4423 62.1946 34.4423 62.1875 34.2723C62.1521 32.1413 62.1096 30.0031 62.0742 27.8721C62.0742 27.7021 62.3291 27.7021 62.3362 27.8721Z" fill="#3A3938"/>
<path d="M57.9672 28.453C58.6752 30.662 59.3832 32.878 60.0912 35.0869C60.1408 35.2498 59.893 35.3135 59.8434 35.1577C59.1354 32.9488 58.4274 30.7328 57.7194 28.5238C57.6698 28.361 57.9177 28.2973 57.9672 28.453Z" fill="#3A3938"/>
<path d="M54.335 30.5419L58.491 36.7227C58.583 36.8643 58.3565 36.9917 58.2644 36.8572C56.8768 34.7969 55.4962 32.7367 54.1085 30.6764C54.0164 30.5348 54.243 30.4074 54.335 30.5419Z" fill="#3A3938"/>
<path d="M51.1283 32.5456C52.5797 34.0961 54.1019 35.5829 55.6948 36.9847C56.148 37.3812 56.6011 37.7706 57.0613 38.1529C57.1887 38.2591 57.0046 38.4432 56.8772 38.337C55.2417 36.9776 53.6771 35.5404 52.1832 34.0253C51.7655 33.6005 51.3478 33.1615 50.9371 32.7296C50.8309 32.6093 51.015 32.4252 51.1283 32.5456Z" fill="#3A3938"/>
<path d="M48.0122 39.7456C50.2282 39.7456 52.4372 39.8306 54.6461 39.9863C55.2762 40.0288 55.9063 40.0854 56.5294 40.1421C56.6922 40.1562 56.6993 40.4182 56.5294 40.404C54.3275 40.1987 52.1115 40.0713 49.9026 40.0288C49.2724 40.0146 48.6423 40.0076 48.0122 40.0076C47.8423 40.0005 47.8423 39.7456 48.0122 39.7456Z" fill="#3A3938"/>
<path d="M50.0805 45.7278C52.2328 44.1773 54.3851 42.6268 56.5374 41.0763C56.6719 40.9772 56.8064 41.2037 56.6719 41.3029C54.5196 42.8534 52.3673 44.4039 50.215 45.9544C50.0734 46.0464 49.9459 45.8199 50.0805 45.7278Z" fill="#3A3938"/>
<path d="M54.4897 48.8501C55.5517 46.7049 56.6137 44.5526 57.6757 42.4074C57.7465 42.2587 57.973 42.3861 57.9022 42.5419C56.8402 44.6871 55.7782 46.8394 54.7163 48.9846C54.6384 49.1333 54.4118 48.9988 54.4897 48.8501Z" fill="#3A3938"/>
</svg>
