<svg width="18" height="18" viewBox="0 0 18 18" fill="none" xmlns="http://www.w3.org/2000/svg">
<g clip-path="url(#clip0_7426_34511)">
<path d="M15.75 3H2.25C1.83579 3 1.5 3.33579 1.5 3.75V15.75C1.5 16.1642 1.83579 16.5 2.25 16.5H15.75C16.1642 16.5 16.5 16.1642 16.5 15.75V3.75C16.5 3.33579 16.1642 3 15.75 3Z" stroke="#707070" stroke-width="1.5" stroke-linecap="round" stroke-linejoin="round"/>
<path d="M1.5 7.5H16.5" stroke="#707070" stroke-width="1.5" stroke-linecap="round" stroke-linejoin="round"/>
<path d="M1.5 12H16.5" stroke="#707070" stroke-width="1.5" stroke-linecap="round" stroke-linejoin="round"/>
<path d="M6.375 1.5V4.5" stroke="#707070" stroke-width="1.5" stroke-linecap="round" stroke-linejoin="round"/>
<path d="M11.625 1.5V4.5" stroke="#707070" stroke-width="1.5" stroke-linecap="round" stroke-linejoin="round"/>
<path d="M6.375 7.5V16.5" stroke="#707070" stroke-width="1.5" stroke-linecap="round" stroke-linejoin="round"/>
<path d="M11.625 7.5V16.5" stroke="#707070" stroke-width="1.5" stroke-linecap="round" stroke-linejoin="round"/>
<path d="M16.5 4.875V14.625" stroke="#707070" stroke-width="1.5" stroke-linecap="round" stroke-linejoin="round"/>
<path d="M1.5 4.875V14.625" stroke="#707070" stroke-width="1.5" stroke-linecap="round" stroke-linejoin="round"/>
<path d="M5.25 16.5H12.75" stroke="#707070" stroke-width="1.5" stroke-linecap="round" stroke-linejoin="round"/>
</g>
<defs>
<clipPath id="clip0_7426_34511">
<rect width="18" height="18" fill="white"/>
</clipPath>
</defs>
</svg>
