<svg width="74" height="65" viewBox="0 0 74 65" fill="none" xmlns="http://www.w3.org/2000/svg">
<path d="M19.2604 37.4344C15.8979 36.2532 15.282 34.4343 15.666 33.0357C15.8617 32.3111 16.3327 31.6951 16.8183 31.34C16.9052 31.2748 16.9994 31.2241 17.0936 31.1879C18.2603 30.7168 20.0647 31.869 20.7894 32.3908C19.9271 33.2749 19.2531 34.3111 19.1009 35.5213C19.014 36.1663 19.0864 36.804 19.2604 37.4344Z" fill="#3A3938"/>
<path d="M17.9988 28.5071C17.8104 29.0289 17.5205 29.5072 17.3176 30.0217C17.1727 30.3913 17.0712 30.7971 17.093 31.1884C16.9988 31.2246 16.9046 31.2754 16.8176 31.3406C16.3321 31.6957 15.861 32.3044 15.6654 33.0363C15.3175 32.7971 14.9552 32.5797 14.5856 32.3768C13.9842 32.029 13.3755 31.6739 12.8754 31.1956C12.3682 30.7174 11.9769 30.0869 11.9116 29.3985C11.8464 28.7535 11.9769 28.0579 12.3392 27.5144C13.0639 26.4346 12.9044 26.7317 13.6436 25.7969C13.6653 25.8476 14.2233 24.565 14.245 24.6157C14.5059 25.1955 14.9552 25.6737 15.4697 26.0433C16.0277 26.4419 16.6654 26.7245 17.3031 26.9781C17.5133 27.0651 17.7379 27.152 17.8973 27.3115C17.9263 27.3332 17.9481 27.3622 17.9698 27.3912C18.2017 27.6883 18.1292 28.1376 17.9988 28.5071Z" fill="#FEFEFE"/>
<path d="M6.48343 22.0066C5.78051 23.7168 5.37471 25.5502 5.295 27.3908C5.15007 27.0865 4.99788 26.7893 4.85294 26.4922C4.77323 26.3328 4.69353 26.1589 4.5486 26.0502C4.45439 25.9777 4.32395 25.9415 4.20801 25.956C4.37468 25.0574 4.60657 24.1661 4.99789 23.34C5.27326 22.7602 5.62109 22.2095 6.05588 21.7312C6.2443 21.5211 6.59213 21.7385 6.48343 22.0066Z" fill="#FEFEFE"/>
<path d="M21.6795 20.9344C21.7085 21.3184 21.6795 21.7025 21.607 22.0793C21.607 22.0793 21.607 22.0793 21.607 22.0866C21.549 22.3765 21.4621 22.6591 21.3606 22.9272C20.9983 23.862 20.3896 24.6736 19.7229 25.42C19.1432 26.0722 18.5127 26.6809 17.9185 27.3186C17.7228 27.2099 17.4765 27.1882 17.2518 27.1665C16.5634 27.1085 15.8749 27.0215 15.2228 26.7969C14.6213 26.5867 14.056 26.2606 13.6357 25.7751C13.9184 23.9562 13.8024 22.0938 14.0416 20.2677C14.1358 19.572 14.2807 18.8546 14.672 18.2604C15.0416 17.6951 15.6213 17.2676 16.2735 17.0792C16.3387 17.0574 16.404 17.0429 16.4764 17.0285C16.933 16.9343 17.4185 16.9632 17.8678 17.0937C18.0127 17.1372 18.1576 17.1951 18.2953 17.2603C18.404 17.3183 18.5127 17.3763 18.6142 17.4415C19.2229 17.8401 19.6432 18.456 20.1649 18.9633C20.5997 19.3836 21.1142 19.7387 21.4258 20.2604C21.4403 20.2894 21.4548 20.3184 21.4766 20.3474C21.5708 20.5431 21.636 20.7387 21.6795 20.9344Z" fill="#3A3938"/>
<path d="M27.0633 10.5432C26.8314 13.1882 25.8894 15.7607 24.3531 17.9202C23.6357 18.9348 22.7226 19.8913 21.5849 20.3261C21.5486 20.3406 21.5124 20.3551 21.4762 20.3696C21.4617 20.3406 21.4472 20.3116 21.4254 20.2826C21.1138 19.7609 20.5993 19.4058 20.1645 18.9855C19.6428 18.4782 19.2152 17.8623 18.6138 17.4637C18.5123 17.3985 18.4036 17.3333 18.2949 17.2825C18.4833 16.9927 18.6862 16.7101 18.9109 16.4419C19.3746 15.8767 19.9037 15.3549 20.4399 14.8622C20.4979 14.8042 20.5631 14.7535 20.6211 14.6955C21.6791 13.7389 22.7806 12.8114 23.6212 11.6592C24.3603 10.6374 24.8748 9.44171 25.1067 8.20254C25.1575 7.93441 25.2082 7.6373 25.4256 7.47788C25.6067 7.34019 25.8604 7.34019 26.0633 7.42715C26.2662 7.51411 26.4328 7.68078 26.5633 7.86194C27.1213 8.60835 27.143 9.60838 27.0633 10.5432Z" fill="#FEFEFE"/>
<path d="M28.0929 2.6218C27.5494 3.57835 26.832 4.43345 25.9769 5.12913C25.0783 5.86103 24.042 6.41902 23.2232 7.23064C22.1797 8.25241 21.5347 9.62202 21.1724 11.0351C20.8608 12.2308 20.7376 13.4555 20.6361 14.6874C20.5709 14.7381 20.5129 14.7961 20.455 14.8541C19.9187 15.3468 19.3897 15.8686 18.9259 16.4338C18.7013 16.702 18.4911 16.9846 18.31 17.2744C18.1723 17.2092 18.0274 17.1512 17.8824 17.1078C17.4331 16.9701 16.9476 16.9483 16.4911 17.0425C16.4186 17.057 16.3534 17.0715 16.2882 17.0933C15.4983 15.7526 14.7809 14.3541 14.5852 12.8178C14.2591 10.3394 15.3896 7.81037 17.1868 6.07843C18.9839 4.34649 21.3825 3.33921 23.8319 2.83195C24.629 2.66528 25.4479 2.54933 26.2233 2.28845C26.9987 2.02758 27.7523 1.61452 28.2451 0.955078C28.6074 1.41161 28.3828 2.10729 28.0929 2.6218Z" fill="#FEFEFE"/>
<path d="M28.9713 52.0301C28.551 52.9359 27.9495 53.7548 27.2103 54.4142C26.8987 54.6968 26.5509 54.9577 26.1451 55.0519C25.9349 55.1026 25.7031 55.1026 25.5001 55.0374C25.3045 54.9794 25.1306 54.878 25.0074 54.7113C24.8189 54.4649 24.7827 54.1244 24.8407 53.82C24.8987 53.5156 25.0363 53.2403 25.1885 52.9721C25.1885 52.9649 25.1885 52.9649 25.1958 52.9576C25.7465 51.9431 26.3697 50.9721 27.0582 50.0518C27.6234 50.7837 28.2393 51.4793 28.9713 52.0301Z" fill="#3A3938"/>
<path d="M25.4932 55.0439C23.5293 55.957 21.2177 56.1092 19.1524 55.4353C19.0147 55.3918 18.8842 55.341 18.7466 55.2903C18.29 55.1092 17.8625 54.8628 17.5364 54.5004C17.1813 54.1019 16.9784 53.5366 17.0798 53.0221C17.1016 52.9279 17.1306 52.841 17.1668 52.754C19.7466 51.9786 22.5148 53.3482 25.1743 52.9859C25.0221 53.254 24.8844 53.5366 24.8265 53.8337C24.7685 54.1381 24.8047 54.4787 24.9931 54.7251C25.1308 54.8773 25.3047 54.986 25.4932 55.0439Z" fill="#FEFEFE"/>
<path d="M26.2375 48.9716C22.7446 50.0875 18.9981 50.66 15.4401 49.9788C14.8966 49.8774 14.353 49.7397 13.8168 49.573C13.3603 49.4281 12.8168 49.1455 12.8385 48.6672V48.66C12.8603 48.3121 13.1791 48.0657 13.4835 47.9136C14.2444 47.5222 15.1067 47.3701 15.9546 47.2469C18.7155 46.8193 21.4837 46.5222 24.2592 46.2251C24.9114 47.1454 25.5636 48.0657 26.2375 48.9716Z" fill="#3A3938"/>
<path d="M15.4398 49.9719C13.6064 52.3343 11.7658 54.6967 9.92516 57.0591C9.56283 57.5301 9.2005 57.9939 8.83817 58.4649C8.67874 58.6678 8.51207 58.8779 8.29467 59.0084C8.07003 59.1388 7.76568 59.1678 7.56278 59.0084C7.52655 58.9794 7.49754 58.9504 7.4758 58.9214C7.28014 58.6823 7.31639 58.2982 7.3961 57.9794L12.7948 48.6675H12.8455C12.8238 49.1458 13.3673 49.4284 13.8238 49.5733C14.3528 49.74 14.8963 49.8704 15.4398 49.9719Z" fill="#FEFEFE"/>
<path d="M14.166 64.0443C14.0646 64.124 13.9269 64.1095 13.8037 64.0877C12.4268 63.8413 11.1876 63.0805 10.1586 62.1311C9.12961 61.1818 8.29625 60.0514 7.46289 58.9281L7.47738 58.9137C7.49912 58.9426 7.52812 58.9716 7.56435 59.0006C7.76726 59.16 8.0716 59.131 8.29625 59.0006C8.52089 58.8702 8.68032 58.66 8.83974 58.4571C9.20207 57.9861 9.5644 57.5223 9.92673 57.0513C10.521 59.5079 11.9558 61.7616 13.9269 63.3486C14.1443 63.537 14.3834 63.8703 14.166 64.0443Z" fill="#3A3938"/>
<path d="M23.4986 45.0939C19.8319 46.1374 15.9187 46.2388 12.1867 45.4707C11.6287 45.3547 11.049 45.2026 10.5779 44.9127C10.3243 44.7605 10.0997 44.5649 9.92573 44.3185C9.62137 43.8837 9.54167 43.2387 9.88951 42.8402C9.89675 42.8329 9.90401 42.8184 9.9185 42.8112C10.2156 42.4923 10.6939 42.4344 11.1359 42.4054C12.9476 42.2967 14.7592 42.4054 16.5709 42.5141C18.3898 42.6228 20.2159 42.7242 22.0348 42.8329C22.5058 43.5938 22.9914 44.3475 23.4986 45.0939Z" fill="#3A3938"/>
<path d="M3.11237 58.095C3.0399 57.9863 2.97469 57.8704 2.91672 57.7544C1.67755 55.479 1.19201 52.8702 0.974609 50.2904C1.11954 50.3846 1.32971 50.3556 1.51087 50.3122C2.00364 50.2035 2.48915 50.0513 2.96743 49.8701L2.99642 49.9426C2.6196 52.5803 2.84424 55.3051 3.64861 57.8486C3.75006 58.182 3.29353 58.3849 3.11237 58.095Z" fill="#3A3938"/>
<path d="M10.5781 44.9131C9.28093 46.0364 7.9693 47.1523 6.54896 48.1161C5.46197 48.848 4.30253 49.4857 3.07785 49.9423C2.57783 50.1307 2.07056 50.2901 1.5488 50.4061C1.36039 50.4495 1.13575 50.4785 0.98357 50.3771C0.96183 50.3626 0.932839 50.3409 0.911099 50.3191C0.8024 50.2032 0.80241 50.022 0.853136 49.8698C0.911109 49.7249 8.15046 43.9638 9.87515 42.7754L9.90414 42.8044C9.8969 42.8116 9.8824 42.8189 9.87515 42.8334C9.52731 43.2319 9.60704 43.8769 9.9114 44.3117C10.0926 44.5581 10.3172 44.7537 10.5781 44.9131Z" fill="#FEFEFE"/>
<path d="M18.7536 55.2832C18.558 56.3629 18.3551 57.4499 18.1594 58.5297C18.0725 59.0007 17.9855 59.479 17.8985 59.95C17.8768 60.0514 17.8551 60.1601 17.7681 60.2181C17.7319 60.2399 17.6884 60.2543 17.6522 60.2543C17.5724 60.2543 17.4927 60.2181 17.442 60.1601C17.355 60.0659 17.3188 59.9427 17.2898 59.8268C16.7101 57.6093 16.7173 55.2759 17.0507 53.0005L17.1014 53.0077C16.9999 53.5222 17.2029 54.0875 17.5579 54.486C17.8695 54.8556 18.2971 55.102 18.7536 55.2832Z" fill="#3A3938"/>
<path d="M21.832 42.5146C19.774 42.2464 17.7377 41.8696 15.7159 41.3768C14.926 41.1884 14.1144 40.9638 13.5057 40.4275C13.368 40.3043 13.2448 40.1739 13.1361 40.029C12.6796 39.4347 12.4404 38.6666 12.2448 37.9275C12.1796 37.6738 12.1216 37.3912 12.252 37.1666C12.3752 36.9492 12.6433 36.855 12.8897 36.8622C13.0709 36.8695 13.252 36.9274 13.4187 36.9926C13.4767 37.0144 13.5419 37.0434 13.5999 37.0651C15.5855 37.8767 17.658 38.4709 19.7668 38.8405C19.9552 39.2608 20.1726 39.6666 20.39 40.058C20.861 40.8986 21.3393 41.7102 21.832 42.5146Z" fill="#3A3938"/>
<path d="M12.252 37.9345C12.4477 38.6736 12.6868 39.4417 13.1434 40.036C10.8752 38.4055 8.60698 36.7098 7.04896 34.3981C6.93301 34.2242 6.81707 34.043 6.75185 33.8474C6.7446 33.8474 6.7446 33.8474 6.75185 33.8401C6.73011 33.7749 6.71561 33.7097 6.70837 33.6372C6.67213 33.3618 6.79533 33.0502 7.04896 32.9415C7.34607 32.8111 7.67218 32.985 7.9403 33.1589C8.03451 33.2169 8.12147 33.2749 8.21567 33.3329C10.0128 34.4778 11.7593 35.6952 13.4405 36.9996C13.2666 36.9344 13.0926 36.8764 12.9115 36.8692C12.6651 36.862 12.397 36.9562 12.2738 37.1736C12.1288 37.3982 12.1868 37.6808 12.252 37.9345Z" fill="#FEFEFE"/>
<path d="M8.20795 33.3338C8.12099 33.2758 8.02678 33.2179 7.93257 33.1599C7.66445 32.9932 7.33837 32.8193 7.04125 32.9425C6.78762 33.0512 6.67168 33.37 6.70066 33.6382C6.70791 33.7034 6.7224 33.7759 6.74414 33.8411C5.32381 31.6453 4.36724 29.1525 3.94694 26.5727C3.91795 26.3843 3.89622 26.1524 4.04115 26.0292C4.08463 25.9857 4.1426 25.964 4.20058 25.9568C4.31652 25.9423 4.44696 25.9785 4.54117 26.051C4.6861 26.1597 4.77307 26.3263 4.84553 26.493C4.99047 26.7974 5.14263 27.0945 5.28757 27.3916C6.26586 29.3772 7.2369 31.3555 8.20795 33.3338Z" fill="#3A3938"/>
<path d="M54.8835 37.4271C54.7603 37.9126 54.5719 38.3836 54.3545 38.8474C54.1661 39.2677 53.9487 39.6735 53.7313 40.0648C53.2748 40.891 52.7965 41.7098 52.3037 42.5069C52.2385 42.6156 52.1733 42.7171 52.1081 42.8258C51.6298 43.5867 51.1443 44.3403 50.637 45.0867C50.3906 45.4636 50.1297 45.8404 49.8689 46.21C49.2239 47.1375 48.5717 48.0506 47.8978 48.9637C47.8326 49.0579 47.7673 49.1448 47.6949 49.239C47.4992 49.5072 47.2891 49.7825 47.0789 50.0507C46.5065 50.7826 45.8905 51.4782 45.1586 52.0217C45.0209 52.1232 44.8832 52.2174 44.7383 52.3116C42.5498 53.6812 37.2525 53.6957 37.0641 53.6957H37.0569C36.8685 53.6957 31.5712 53.6812 29.3827 52.3116C29.2378 52.2246 29.1001 52.1232 28.9624 52.0217C28.2233 51.471 27.6145 50.7753 27.042 50.0507C26.8319 49.7825 26.629 49.5144 26.4261 49.239C26.3609 49.1521 26.2956 49.0579 26.2304 48.9709C25.5637 48.0651 24.9043 47.1448 24.2593 46.2172C23.9985 45.8476 23.7448 45.4708 23.4912 45.094C22.9912 44.3476 22.4984 43.5939 22.0274 42.833C21.9622 42.7243 21.8969 42.6229 21.8317 42.5142C21.339 41.7098 20.8607 40.8982 20.4041 40.0721C20.1867 39.6735 19.9694 39.2677 19.7809 38.8547C19.5635 38.3909 19.3824 37.9198 19.2519 37.4416C19.078 36.8111 19.0056 36.1734 19.0925 35.5285C19.2447 34.3183 19.9186 33.2748 20.781 32.3979C21.2158 31.9559 21.7013 31.5501 22.1941 31.1805C23.6144 30.1225 25.1579 29.2674 26.7739 28.5717C33.3249 25.7528 40.8034 25.7528 47.3543 28.5717C48.9703 29.2674 50.5138 30.1225 51.9342 31.1732C52.4269 31.5356 52.9124 31.9414 53.3472 32.3907C54.2096 33.2748 54.8835 34.311 55.0357 35.5212C55.1227 36.1662 55.0502 36.8039 54.8835 37.4271Z" fill="#FEFEFE"/>
<path d="M25.1949 7.45534C24.8109 9.1438 24.0645 10.7453 23.0065 12.1149C21.876 13.586 20.3252 14.6585 19.1585 16.1005C18.5571 16.8469 18.0643 17.6876 17.8541 18.6296C17.8179 18.7963 18.0715 18.8687 18.1078 18.7021C18.5063 16.9194 19.8832 15.6223 21.1731 14.4266C21.8543 13.7889 22.5354 13.1439 23.1152 12.412C23.6369 11.7453 24.0935 11.0352 24.4703 10.2743C24.9051 9.40468 25.2312 8.47712 25.4486 7.52781C25.4921 7.36114 25.2312 7.28867 25.1949 7.45534Z" fill="#3A3938"/>
<path d="M16.1071 12.3259C16.1723 12.5071 16.1288 12.7317 15.9766 12.8622C15.8534 12.9636 15.694 12.9998 15.5491 12.9491C15.5201 12.9491 15.4911 12.9419 15.4694 12.9274C15.3607 12.8839 15.281 12.8042 15.2447 12.6955C15.2085 12.6013 15.223 12.4926 15.2447 12.3911C15.2882 12.1955 15.4186 12.0071 15.6288 11.9853C15.8462 11.9636 16.0346 12.1302 16.1071 12.3259Z" fill="#3A3938"/>
<path d="M16.1517 10.3255C16.2314 10.4922 16.2314 10.7023 16.1227 10.8545C16.0212 10.9994 15.8546 11.0937 15.6806 11.0864C15.5357 11.0792 15.4053 11.0067 15.3256 10.8907C15.2966 10.8618 15.2676 10.8255 15.2458 10.7893C15.1516 10.6299 15.1589 10.4342 15.2531 10.2748C15.3545 10.1154 15.5285 10.0211 15.7169 10.0356C15.8981 10.0574 16.072 10.1588 16.1517 10.3255Z" fill="#3A3938"/>
<path d="M17.0634 11.4913C17.0417 11.6143 16.9548 11.7374 16.8318 11.7953C16.687 11.8677 16.506 11.846 16.3902 11.7302C16.3396 11.6795 16.3178 11.6216 16.3034 11.5564C16.2744 11.484 16.2672 11.4044 16.2817 11.3248C16.3034 11.1873 16.4047 11.0787 16.535 11.0352C16.6725 10.9918 16.8173 11.0352 16.9259 11.1149C17.0417 11.2162 17.0851 11.3537 17.0634 11.4913Z" fill="#3A3938"/>
<path d="M9.27402 34.1154C8.73777 34.601 8.37544 35.2604 8.25225 35.9706C8.22326 36.1372 8.48414 36.2097 8.50588 36.043C8.61458 35.3691 8.94792 34.7604 9.45518 34.3039C9.58562 34.1879 9.39721 33.9995 9.27402 34.1154Z" fill="#3A3938"/>
<path d="M10.405 34.7682C9.83979 35.4203 9.47022 36.2247 9.34702 37.0798C9.32528 37.2465 9.57892 37.319 9.60066 37.1523C9.70936 36.3407 10.0499 35.5725 10.5862 34.9566C10.7021 34.8261 10.5137 34.6377 10.405 34.7682Z" fill="#3A3938"/>
<path d="M11.5115 35.6159C10.91 36.3116 10.5622 37.1957 10.5187 38.1087C10.5115 38.2827 10.7796 38.2827 10.7868 38.1087C10.8303 37.2609 11.1492 36.442 11.6999 35.7971C11.8158 35.6739 11.6274 35.4855 11.5115 35.6159Z" fill="#3A3938"/>
<path d="M9.39651 57.7034C8.87475 57.5802 8.41822 57.2469 8.15009 56.7759C8.06313 56.6309 7.83848 56.7614 7.91819 56.9135C8.2153 57.4353 8.73706 57.8266 9.32404 57.957C9.49071 58.0005 9.56318 57.7469 9.39651 57.7034Z" fill="#3A3938"/>
<path d="M10.4408 55.9209C9.90452 55.8774 9.42626 55.5296 9.19437 55.0513C9.16539 54.9861 9.07118 54.9716 9.01321 55.0006C8.94799 55.0368 8.93349 55.1165 8.96248 55.1817C9.23785 55.747 9.81756 56.131 10.4408 56.1818C10.5132 56.189 10.5712 56.1165 10.5712 56.0513C10.5712 55.9789 10.5132 55.9281 10.4408 55.9209Z" fill="#3A3938"/>
<path d="M11.8539 54.3199C11.1872 54.1822 10.6292 53.7184 10.3611 53.0952C10.3321 53.03 10.2379 53.0155 10.1799 53.0445C10.1147 53.088 10.1074 53.1605 10.1292 53.2257C10.419 53.9069 11.0567 54.4286 11.7814 54.5735C11.9481 54.6098 12.0205 54.3562 11.8539 54.3199Z" fill="#3A3938"/>
<path d="M13.2371 52.7686C12.5052 52.6309 11.8603 52.1019 11.5921 51.4062C11.5342 51.2468 11.2733 51.3192 11.3385 51.4787C11.6356 52.2613 12.3385 52.87 13.1647 53.0294C13.3313 53.0584 13.4038 52.7976 13.2371 52.7686Z" fill="#3A3938"/>
<path d="M14.2662 51.1668C13.5198 50.9277 12.8893 50.3552 12.585 49.6306C12.556 49.5653 12.498 49.5146 12.4183 49.5364C12.3531 49.5509 12.2951 49.6306 12.3241 49.703C12.6647 50.5146 13.3531 51.1524 14.1937 51.4277C14.3604 51.4712 14.4256 51.2176 14.2662 51.1668Z" fill="#3A3938"/>
<path d="M37.108 34.1665C36.166 34.268 35.2457 33.4926 35.2094 32.5433C35.1949 32.3766 34.9341 32.3693 34.9413 32.5433C35.0065 33.4346 34.2891 34.3259 33.376 34.3912C32.4775 34.4564 31.6151 33.6882 31.5571 32.7969C31.5571 32.7824 31.5571 32.7752 31.5571 32.7607C31.5354 32.6157 31.289 32.6447 31.2963 32.7969C31.2963 32.8114 31.3035 32.8186 31.3035 32.8331C31.4339 33.7462 30.7818 34.7028 29.8832 34.9129C28.9991 35.1231 28.0063 34.5651 27.7019 33.7172C27.6512 33.5868 27.4338 33.594 27.4411 33.7535C27.4628 34.681 26.7889 35.5651 25.8758 35.7463C24.9917 35.9202 24.0569 35.3984 23.7018 34.5868C23.6439 34.4636 23.4554 34.5288 23.4554 34.652C23.4627 35.5651 22.9482 36.4709 22.0279 36.7101C21.1945 36.9202 20.2524 36.3912 20.1872 35.4854C20.1727 35.3187 19.9118 35.3115 19.9191 35.4854C19.9916 36.5217 21.0133 37.1883 21.9989 36.9927C22.9409 36.8043 23.5497 35.9927 23.6873 35.0868C24.0569 35.6013 24.6439 35.9492 25.2816 36.0289C26.1004 36.1303 26.8831 35.7173 27.3324 35.0433C27.4991 34.7897 27.6077 34.5071 27.6657 34.2172C28.0208 34.7607 28.615 35.1375 29.2672 35.21C30.1078 35.3115 30.905 34.8404 31.3108 34.1013C31.405 33.9274 31.4702 33.739 31.5209 33.5505C31.7673 34.0216 32.1948 34.3984 32.7094 34.5723C33.5065 34.8332 34.3398 34.4926 34.8254 33.8332C34.9558 33.6592 35.05 33.4636 35.1225 33.2607C35.4631 34.0071 36.2747 34.5288 37.108 34.4419C37.2747 34.4201 37.2747 34.152 37.108 34.1665Z" fill="#3A3938"/>
<path d="M36.971 37.9853C36.884 38.6954 36.1811 39.2244 35.4782 39.1882C34.7463 39.152 34.152 38.536 33.9999 37.8476C33.9709 37.7244 33.768 37.7171 33.7462 37.8476C33.623 38.5432 33.0288 39.1375 32.3042 39.2099C31.594 39.2824 30.8766 38.8259 30.6229 38.1664C30.565 38.0215 30.3838 38.0505 30.3621 38.2027C30.2679 38.9491 29.6229 39.594 28.8693 39.681C28.1011 39.7679 27.3257 39.2679 27.0648 38.5505C27.0286 38.4418 26.833 38.4056 26.8112 38.5505C26.6808 39.3404 26.1808 40.065 25.3691 40.2607C24.6155 40.4419 23.8039 40.0071 23.6517 39.2244C23.6155 39.0578 23.3618 39.1302 23.3981 39.2969C23.572 40.1882 24.4851 40.6882 25.3402 40.5361C26.159 40.3911 26.746 39.7389 26.9851 38.978C27.3837 39.6302 28.1446 40.0433 28.92 39.9418C29.6809 39.8476 30.3041 39.2824 30.5432 38.5722C30.9201 39.1592 31.6012 39.5433 32.3114 39.4781C32.9998 39.4128 33.6085 38.9418 33.8839 38.3114C34.181 38.9563 34.8115 39.4418 35.5289 39.4636C36.3695 39.4853 37.1376 38.8259 37.2391 37.9925C37.2536 37.8113 36.9855 37.8186 36.971 37.9853Z" fill="#3A3938"/>
<path d="M27.7604 29.1951C28.785 29.1951 29.6155 28.3646 29.6155 27.34C29.6155 26.3154 28.785 25.4849 27.7604 25.4849C26.7358 25.4849 25.9053 26.3154 25.9053 27.34C25.9053 28.3646 26.7358 29.1951 27.7604 29.1951Z" fill="#3A3938"/>
<path d="M54.8835 37.4344C58.246 36.2532 58.8619 34.4343 58.4778 33.0357C58.2822 32.3111 57.8112 31.6951 57.3256 31.34C57.2387 31.2748 57.1445 31.2241 57.0503 31.1879C55.8836 30.7168 54.0792 31.869 53.3545 32.3908C54.2168 33.2749 54.8908 34.3111 55.043 35.5213C55.1227 36.1663 55.0502 36.804 54.8835 37.4344Z" fill="#3A3938"/>
<path d="M56.1375 28.5071C56.3259 29.0289 56.6158 29.5072 56.8187 30.0217C56.9636 30.3913 57.0651 30.7971 57.0433 31.1884C57.1375 31.2246 57.2317 31.2754 57.3187 31.3406C57.8042 31.6957 58.2752 32.3044 58.4709 33.0363C58.8187 32.7971 59.1811 32.5797 59.5506 32.3768C60.1521 32.029 60.7608 31.6739 61.2608 31.1956C61.7681 30.7174 62.1594 30.0869 62.2246 29.3985C62.2899 28.7535 62.1594 28.0579 61.7971 27.5144C61.0724 26.4346 61.2318 26.7317 60.4927 25.7969C60.471 25.8476 59.913 24.565 59.8912 24.6157C59.6304 25.1955 59.1811 25.6737 58.6666 26.0433C58.1086 26.4419 57.4709 26.7245 56.8332 26.9781C56.623 27.0651 56.3984 27.152 56.2389 27.3115C56.21 27.3332 56.1882 27.3622 56.1665 27.3912C55.9346 27.6883 56.0071 28.1376 56.1375 28.5071Z" fill="#FEFEFE"/>
<path d="M67.6589 22.0066C68.3618 23.7168 68.7676 25.5502 68.8473 27.3908C68.9922 27.0865 69.1444 26.7893 69.2894 26.4922C69.3691 26.3328 69.4488 26.1589 69.5937 26.0502C69.6879 25.9777 69.8183 25.9415 69.9343 25.956C69.7676 25.0574 69.5357 24.1661 69.1444 23.34C68.869 22.7602 68.5212 22.2095 68.0864 21.7312C67.8908 21.5211 67.5429 21.7385 67.6589 22.0066Z" fill="#FEFEFE"/>
<path d="M52.4564 20.9344C52.4274 21.3184 52.4564 21.7025 52.5289 22.0793C52.5289 22.0793 52.5289 22.0793 52.5289 22.0866C52.5869 22.3765 52.6738 22.6591 52.7753 22.9272C53.1376 23.862 53.7463 24.6736 54.413 25.42C54.9927 26.0722 55.6232 26.6809 56.2174 27.3186C56.4131 27.2099 56.6595 27.1882 56.8841 27.1665C57.5725 27.1085 58.261 27.0215 58.9132 26.7969C59.5146 26.5867 60.0799 26.2606 60.5002 25.7751C60.2175 23.9562 60.3335 22.0938 60.0944 20.2677C60.0001 19.572 59.8552 18.8546 59.4639 18.2604C59.0943 17.6951 58.5146 17.2676 57.8624 17.0792C57.7972 17.0574 57.7319 17.0429 57.6595 17.0285C57.2029 16.9343 56.7174 16.9632 56.2681 17.0937C56.1232 17.1372 55.9783 17.1951 55.8406 17.2603C55.7319 17.3183 55.6232 17.3763 55.5217 17.4415C54.913 17.8401 54.4927 18.456 53.971 18.9633C53.5362 19.3836 53.0217 19.7387 52.7101 20.2604C52.6956 20.2894 52.6811 20.3184 52.6593 20.3474C52.5651 20.5431 52.4999 20.7387 52.4564 20.9344Z" fill="#3A3938"/>
<path d="M47.072 10.5432C47.3039 13.1882 48.246 15.7607 49.7822 17.9202C50.4997 18.9348 51.4127 19.8913 52.5504 20.3261C52.5867 20.3406 52.6229 20.3551 52.6591 20.3696C52.6736 20.3406 52.6881 20.3116 52.7099 20.2826C53.0215 19.7609 53.536 19.4058 53.9708 18.9855C54.4925 18.4782 54.9201 17.8623 55.5216 17.4637C55.623 17.3985 55.7317 17.3333 55.8404 17.2825C55.652 16.9927 55.4491 16.7101 55.2244 16.4419C54.7607 15.8767 54.2316 15.3549 53.6954 14.8622C53.6374 14.8042 53.5722 14.7535 53.5142 14.6955C52.4562 13.7389 51.3548 12.8114 50.5142 11.6592C49.775 10.6374 49.2605 9.44171 49.0286 8.20254C48.9779 7.93441 48.9272 7.6373 48.7098 7.47788C48.5286 7.34019 48.275 7.34019 48.072 7.42715C47.8691 7.51411 47.7025 7.68078 47.572 7.86194C47.0213 8.6011 46.9923 9.60838 47.072 10.5432Z" fill="#FEFEFE"/>
<path d="M46.0507 2.6218C46.5942 3.57835 47.3116 4.43345 48.1667 5.12913C49.0653 5.86103 50.1015 6.41902 50.9204 7.23064C51.9639 8.25241 52.6088 9.62202 52.9712 11.0351C53.2828 12.2308 53.406 13.4555 53.5074 14.6874C53.5726 14.7381 53.6306 14.7961 53.6886 14.8541C54.2248 15.3468 54.7538 15.8686 55.2176 16.4338C55.4423 16.702 55.6524 16.9846 55.8336 17.2744C55.9713 17.2092 56.1162 17.1512 56.2611 17.1078C56.7104 16.9701 57.1959 16.9483 57.6525 17.0425C57.7249 17.057 57.7902 17.0715 57.8554 17.0933C58.6453 15.7526 59.3627 14.3541 59.5583 12.8178C59.8844 10.3394 58.754 7.81037 56.9568 6.07843C55.1596 4.34649 52.761 3.33921 50.3117 2.83195C49.5145 2.66528 48.6957 2.54933 47.9203 2.28845C47.1449 2.02758 46.3913 1.61452 45.8985 0.955078C45.5362 1.41161 45.7608 2.10004 46.0507 2.6218Z" fill="#FEFEFE"/>
<path d="M45.166 52.0296C45.5863 52.9354 46.1878 53.7543 46.9269 54.4137C47.2385 54.6963 47.5864 54.9572 47.9922 55.0514C48.2023 55.1022 48.4342 55.1022 48.6371 55.0369C48.8328 54.979 49.0067 54.8775 49.1299 54.7108C49.3183 54.4645 49.3546 54.1239 49.2966 53.8195C49.2386 53.5152 49.1009 53.2398 48.9487 52.9717C48.9487 52.9644 48.9487 52.9644 48.9415 52.9572C48.3907 51.9426 47.7676 50.9716 47.0791 50.0513C46.5139 50.7832 45.8979 51.4789 45.166 52.0296Z" fill="#3A3938"/>
<path d="M48.6426 55.0439C50.6064 55.957 52.9181 56.1092 54.9834 55.4353C55.121 55.3918 55.2515 55.341 55.3892 55.2903C55.8457 55.1092 56.2733 54.8628 56.5994 54.5004C56.9544 54.1019 57.1574 53.5366 57.0559 53.0221C57.0342 52.9279 57.0052 52.841 56.9689 52.754C54.3892 51.9786 51.6209 53.3482 48.9614 52.9859C49.1136 53.254 49.2513 53.5366 49.3093 53.8337C49.3672 54.1381 49.331 54.4787 49.1426 54.7251C49.0049 54.8773 48.8382 54.986 48.6426 55.0439Z" fill="#FEFEFE"/>
<path d="M47.8975 48.9716C51.3903 50.0875 55.1368 50.66 58.6949 49.9788C59.2384 49.8774 59.7819 49.7397 60.3182 49.573C60.7747 49.4281 61.3182 49.1455 61.2965 48.6672V48.66C61.2747 48.3121 60.9559 48.0657 60.6515 47.9136C59.8906 47.5222 59.0283 47.3701 58.1804 47.2469C55.4194 46.8193 52.6512 46.5222 49.8758 46.2251C49.2308 47.1454 48.5714 48.0657 47.8975 48.9716Z" fill="#3A3938"/>
<path d="M58.6963 49.9719C60.5297 52.3343 62.3703 54.6967 64.2109 57.0591C64.5733 57.5301 64.9356 57.9939 65.2979 58.4649C65.4574 58.6678 65.624 58.8779 65.8414 59.0084C66.0661 59.1388 66.3704 59.1678 66.5733 59.0084C66.6096 58.9794 66.6386 58.9504 66.6603 58.9214C66.856 58.6823 66.8197 58.2982 66.74 57.9794L61.3413 48.6675H61.2906C61.3123 49.1458 60.7688 49.4284 60.3123 49.5733C59.7833 49.74 59.247 49.8704 58.6963 49.9719Z" fill="#FEFEFE"/>
<path d="M50.6367 45.0939C54.3035 46.1374 58.2167 46.2388 61.9487 45.4707C62.5067 45.3547 63.0864 45.2026 63.5574 44.9127C63.8111 44.7605 64.0357 44.5649 64.2096 44.3185C64.514 43.8837 64.5937 43.2387 64.2458 42.8402C64.2386 42.8329 64.2314 42.8184 64.2169 42.8112C63.9198 42.4923 63.4415 42.4344 62.9995 42.4054C61.1878 42.2967 59.3761 42.4054 57.5645 42.5141C55.7456 42.6228 53.9194 42.7242 52.1005 42.8329C51.6295 43.5938 51.144 44.3475 50.6367 45.0939Z" fill="#3A3938"/>
<path d="M71.0295 58.095C71.1019 57.9863 71.1672 57.8704 71.2251 57.7544C72.4643 55.479 72.9498 52.8702 73.1672 50.2904C73.0223 50.3846 72.8121 50.3556 72.631 50.3122C72.1382 50.2035 71.6527 50.0513 71.1744 49.8701L71.1454 49.9426C71.5223 52.5803 71.2976 55.3051 70.4932 57.8486C70.3918 58.182 70.8411 58.3849 71.0295 58.095Z" fill="#3A3938"/>
<path d="M63.5654 44.9058C64.8626 46.029 66.1742 47.145 67.5945 48.1088C68.6815 48.8407 69.841 49.4784 71.0657 49.935C71.5657 50.1234 72.0729 50.2828 72.5947 50.3987C72.7831 50.4422 73.0078 50.4712 73.1599 50.3698C73.1817 50.3553 73.2107 50.3335 73.2324 50.3118C73.3411 50.1958 73.3411 50.0147 73.2904 49.8625C73.2396 49.7103 65.993 43.9565 64.2684 42.7681L64.2394 42.7971C64.2466 42.8043 64.2611 42.8115 64.2684 42.826C64.6162 43.2246 64.5365 43.8696 64.2321 44.3043C64.0437 44.558 63.8191 44.7536 63.5654 44.9058Z" fill="#FEFEFE"/>
<path d="M52.3027 42.5146C54.3608 42.2464 56.3971 41.8696 58.4189 41.3768C59.2088 41.1884 60.0204 40.9638 60.6291 40.4275C60.7668 40.3043 60.89 40.1739 60.9987 40.029C61.4552 39.4347 61.6943 38.6666 61.89 37.9275C61.9552 37.6738 62.0132 37.3912 61.8828 37.1666C61.7596 36.9492 61.4914 36.855 61.245 36.8622C61.0639 36.8695 60.8827 36.9274 60.716 36.9926C60.6581 37.0144 60.5928 37.0434 60.5349 37.0651C58.5493 37.8767 56.4768 38.4709 54.368 38.8405C54.1796 39.2608 53.9622 39.6666 53.7448 40.058C53.2738 40.8986 52.7955 41.7102 52.3027 42.5146Z" fill="#3A3938"/>
<path d="M61.8828 37.9271C61.6871 38.6663 61.448 39.4344 60.9914 40.0286C63.2596 38.3982 65.5278 36.7025 67.0858 34.3908C67.2018 34.2169 67.3177 34.0357 67.383 33.84C67.3902 33.84 67.3902 33.84 67.383 33.8328C67.4047 33.7676 67.4192 33.7024 67.4264 33.6299C67.4627 33.3545 67.3395 33.0429 67.0858 32.9342C66.7887 32.8038 66.4626 32.9777 66.1945 33.1516C66.1003 33.2096 66.0134 33.2676 65.9192 33.3255C64.122 34.4705 62.3755 35.6879 60.6943 36.9923C60.8683 36.9271 61.0422 36.8691 61.2233 36.8619C61.4697 36.8546 61.7379 36.9488 61.8611 37.1662C62.006 37.3981 61.948 37.6807 61.8828 37.9271Z" fill="#FEFEFE"/>
<path d="M65.9346 33.3338C66.0215 33.2758 66.1157 33.2179 66.2099 33.1599C66.4781 32.9932 66.8042 32.8193 67.1013 32.9425C67.3549 33.0512 67.4708 33.37 67.4419 33.6382C67.4346 33.7034 67.4201 33.7759 67.3984 33.8411C68.8187 31.6453 69.7753 29.1525 70.1956 26.5727C70.2246 26.3843 70.2463 26.1524 70.1014 26.0292C70.0579 25.9857 69.9999 25.964 69.9419 25.9568C69.826 25.9423 69.6956 25.9785 69.6014 26.051C69.4564 26.1597 69.3695 26.3263 69.297 26.493C69.1521 26.7974 68.9999 27.0945 68.855 27.3916C67.8694 29.3772 66.8984 31.3555 65.9346 33.3338Z" fill="#3A3938"/>
<path d="M48.9417 7.45534C49.3258 9.1438 50.0722 10.7453 51.1302 12.1149C52.2607 13.586 53.8114 14.6585 54.9782 16.1005C55.5796 16.8469 56.0724 17.6876 56.2825 18.6296C56.3188 18.7963 56.0651 18.8687 56.0289 18.7021C55.6303 16.9194 54.2535 15.6223 52.9636 14.4266C52.2824 13.7889 51.6012 13.1439 51.0215 12.412C50.4997 11.7453 50.0432 11.0352 49.6664 10.2743C49.2316 9.40468 48.9055 8.47712 48.6881 7.52781C48.6519 7.36114 48.9055 7.28867 48.9417 7.45534Z" fill="#3A3938"/>
<path d="M58.0372 12.3259C57.9719 12.5071 58.0154 12.7317 58.1676 12.8622C58.2908 12.9636 58.4502 12.9998 58.5951 12.9491C58.6241 12.9491 58.6531 12.9419 58.6749 12.9274C58.7836 12.8839 58.8633 12.8042 58.8995 12.6955C58.9357 12.6013 58.9213 12.4926 58.8995 12.3911C58.856 12.1955 58.7256 12.0071 58.5154 11.9853C58.298 11.9636 58.1096 12.1302 58.0372 12.3259Z" fill="#3A3938"/>
<path d="M57.9863 10.326C57.9066 10.4927 57.9066 10.7028 58.0153 10.855C58.1167 10.9999 58.2834 11.0941 58.4573 11.0869C58.6022 11.0796 58.7327 11.0072 58.8124 10.8912C58.8414 10.8622 58.8704 10.826 58.8921 10.7898C58.9863 10.6304 58.979 10.4347 58.8848 10.2753C58.7834 10.1158 58.6095 10.0216 58.4211 10.0361C58.2399 10.0579 58.066 10.1593 57.9863 10.326Z" fill="#3A3938"/>
<path d="M57.0816 11.4918C57.1033 11.6148 57.1902 11.7379 57.3132 11.7958C57.458 11.8682 57.6389 11.8465 57.7548 11.7306C57.8054 11.68 57.8271 11.6221 57.8416 11.5569C57.8706 11.4845 57.8778 11.4049 57.8633 11.3253C57.8416 11.1877 57.7403 11.0792 57.61 11.0357C57.4725 10.9923 57.3277 11.0357 57.2191 11.1154C57.1033 11.2095 57.0599 11.3542 57.0816 11.4918Z" fill="#3A3938"/>
<path d="M64.8699 34.1154C65.4062 34.601 65.7685 35.2604 65.8917 35.9706C65.9207 36.1372 65.6598 36.2097 65.6381 36.043C65.5294 35.3691 65.196 34.7604 64.6888 34.3039C64.5511 34.1879 64.7395 33.9995 64.8699 34.1154Z" fill="#3A3938"/>
<path d="M63.7399 34.7608C64.3052 35.413 64.6748 36.2174 64.7979 37.0725C64.8197 37.2392 64.566 37.3116 64.5443 37.145C64.4356 36.3334 64.095 35.5652 63.5588 34.9492C63.4356 34.8261 63.624 34.6376 63.7399 34.7608Z" fill="#3A3938"/>
<path d="M62.6234 35.6159C63.2249 36.3116 63.5727 37.1957 63.6162 38.1087C63.6235 38.2827 63.3553 38.2827 63.3481 38.1087C63.3046 37.2609 62.9857 36.442 62.435 35.7971C62.3263 35.6739 62.5147 35.4855 62.6234 35.6159Z" fill="#3A3938"/>
<path d="M64.7459 57.7039C65.2676 57.5807 65.7242 57.2474 65.9923 56.7763C66.0792 56.6314 66.3039 56.7618 66.2242 56.914C65.9271 57.4358 65.4053 57.8271 64.8183 57.9575C64.6517 58.001 64.5792 57.7474 64.7459 57.7039Z" fill="#3A3938"/>
<path d="M63.7042 55.9209C64.2405 55.8774 64.7188 55.5296 64.9506 55.0513C64.9796 54.9861 65.0738 54.9716 65.1318 55.0006C65.197 55.0368 65.2115 55.1165 65.1825 55.1817C64.9072 55.747 64.3274 56.131 63.7042 56.1818C63.6318 56.189 63.5738 56.1165 63.5738 56.0513C63.5665 55.9789 63.6318 55.9281 63.7042 55.9209Z" fill="#3A3938"/>
<path d="M62.282 54.3199C62.9487 54.1822 63.5067 53.7184 63.7748 53.0952C63.8038 53.03 63.898 53.0155 63.956 53.0445C64.0212 53.088 64.0284 53.1605 64.0067 53.2257C63.7168 53.9069 63.0791 54.4286 62.3545 54.5735C62.1878 54.6098 62.1153 54.3562 62.282 54.3199Z" fill="#3A3938"/>
<path d="M60.8982 52.7686C61.6301 52.6309 62.2751 52.1019 62.5432 51.4062C62.6012 51.2468 62.862 51.3192 62.7968 51.4787C62.4997 52.2613 61.7968 52.87 60.9707 53.0294C60.804 53.0584 60.7315 52.7976 60.8982 52.7686Z" fill="#3A3938"/>
<path d="M59.8696 51.1668C60.616 50.9277 61.2464 50.3552 61.5508 49.6306C61.5798 49.5653 61.6377 49.5146 61.7175 49.5364C61.7827 49.5509 61.8407 49.6306 61.8117 49.703C61.4711 50.5146 60.7827 51.1524 59.9421 51.4277C59.7826 51.4712 59.7102 51.2176 59.8696 51.1668Z" fill="#3A3938"/>
<path d="M37.0283 34.1665C37.9704 34.268 38.8907 33.4926 38.927 32.5433C38.9414 32.3766 39.2023 32.3693 39.1951 32.5433C39.1299 33.4346 39.8473 34.3259 40.7603 34.3912C41.6589 34.4564 42.5213 33.6882 42.5792 32.7969C42.5792 32.7824 42.5792 32.7752 42.5792 32.7607C42.601 32.6157 42.8474 32.6447 42.8401 32.7969C42.8401 32.8114 42.8329 32.8186 42.8329 32.8331C42.7024 33.7462 43.3546 34.7028 44.2532 34.9129C45.1373 35.1231 46.1301 34.5651 46.4344 33.7172C46.4852 33.5868 46.7026 33.594 46.6953 33.7535C46.6736 34.681 47.3475 35.5651 48.2606 35.7463C49.1447 35.9202 50.0795 35.3984 50.4345 34.5868C50.4925 34.4636 50.681 34.5288 50.681 34.652C50.6737 35.5651 51.1882 36.4709 52.1085 36.7101C52.9419 36.9202 53.8839 36.3912 53.9492 35.4854C53.9637 35.3187 54.2245 35.3115 54.2173 35.4854C54.1448 36.5217 53.123 37.1883 52.1375 36.9927C51.1954 36.8043 50.5867 35.9927 50.4491 35.0868C50.0795 35.6013 49.4925 35.9492 48.8548 36.0289C48.0359 36.1303 47.2533 35.7173 46.804 35.0433C46.6373 34.7897 46.5286 34.5071 46.4707 34.2172C46.1156 34.7607 45.5214 35.1375 44.8692 35.21C44.0286 35.3115 43.2314 34.8404 42.8256 34.1013C42.7314 33.9274 42.6662 33.739 42.6155 33.5505C42.3691 34.0216 41.9415 34.3984 41.427 34.5723C40.6299 34.8332 39.7965 34.4926 39.311 33.8332C39.1806 33.6592 39.0864 33.4636 39.0139 33.2607C38.6733 34.0071 37.8617 34.5288 37.0283 34.4419C36.8617 34.4129 36.8617 34.152 37.0283 34.1665Z" fill="#3A3938"/>
<path d="M37.1727 37.9853C37.2597 38.6954 37.9626 39.2244 38.6655 39.1882C39.3974 39.152 39.9916 38.536 40.1438 37.8476C40.1728 37.7244 40.3757 37.7171 40.3974 37.8476C40.5206 38.5432 41.1221 39.1375 41.8395 39.2099C42.5497 39.2824 43.2671 38.8259 43.5207 38.1664C43.5787 38.0215 43.7599 38.0505 43.7816 38.2027C43.8758 38.9491 44.5207 39.594 45.2744 39.681C46.0425 39.7679 46.8179 39.2679 47.0788 38.5505C47.1151 38.4418 47.3107 38.4056 47.3324 38.5505C47.4629 39.3404 47.9629 40.065 48.7745 40.2607C49.5282 40.4419 50.3398 40.0071 50.492 39.2244C50.5282 39.0578 50.7818 39.1302 50.7456 39.2969C50.5717 40.1882 49.6586 40.6882 48.8035 40.5361C47.9846 40.3911 47.3977 39.7389 47.1585 38.978C46.76 39.6302 45.9991 40.0433 45.2237 39.9418C44.4628 39.8476 43.8396 39.2824 43.6004 38.5722C43.2236 39.1592 42.5424 39.5433 41.8323 39.4781C41.1438 39.4128 40.5351 38.9418 40.2598 38.3114C39.9626 38.9563 39.3322 39.4418 38.6148 39.4636C37.7742 39.4853 37.006 38.8259 36.9046 37.9925C36.8828 37.8113 37.151 37.8186 37.1727 37.9853Z" fill="#3A3938"/>
<path d="M46.3747 29.1951C47.3992 29.1951 48.2298 28.3646 48.2298 27.34C48.2298 26.3154 47.3992 25.4849 46.3747 25.4849C45.3501 25.4849 44.5195 26.3154 44.5195 27.34C44.5195 28.3646 45.3501 29.1951 46.3747 29.1951Z" fill="#3A3938"/>
<path d="M44.1382 13.7094C42.7903 16.253 40.109 17.9777 37.0365 17.9777C32.5943 17.9777 29 14.3761 29 9.9412C29 5.49903 32.6016 1.89746 37.0365 1.89746C39.4206 1.89746 41.5584 2.93373 43.0294 4.57871C42.37 4.2816 41.6308 4.12217 40.8627 4.12217C37.9061 4.12217 35.5075 6.5208 35.5075 9.47741C35.5075 12.434 37.9061 14.8327 40.8627 14.8327C42.0946 14.8327 43.2323 14.4124 44.1382 13.7094Z" fill="#3A3938"/>
</svg>
