<svg width="64" height="77" viewBox="0 0 64 77" fill="none" xmlns="http://www.w3.org/2000/svg">
<path d="M39.7171 62.2385C39.6879 62.2677 39.6587 62.2896 39.6295 62.3187C39.0312 62.8149 38.3381 63.2162 37.8638 63.829C37.3312 64.5149 37.1196 65.3977 36.6892 66.1565C36.4119 66.6453 36.0325 67.0758 35.5948 67.426C34.7922 68.0681 33.7707 68.4402 32.7493 68.4621V68.4913C31.4652 68.7247 30.0935 68.338 29.0793 67.5209C28.6416 67.1707 28.2622 66.7475 27.9849 66.2513C27.5544 65.4926 27.3501 64.6097 26.8102 63.9239C26.3287 63.311 25.6356 62.9097 25.0446 62.4136C25.0154 62.3917 24.9862 62.3625 24.957 62.3333L25.0373 62.2458C25.1321 61.8664 25.2416 61.4797 25.475 61.166C25.7085 60.8595 26.1098 60.6406 26.4892 60.7282C26.7884 60.8012 27.0145 61.0492 27.2188 61.2827C27.6347 61.7569 28.0506 62.2385 28.4592 62.72C28.8313 63.1432 29.2982 63.6101 29.8527 63.5299C30.2759 63.4715 30.5969 63.0703 30.6772 62.6544C30.7574 62.2312 30.6334 61.8007 30.451 61.414C30.0278 60.5458 29.2982 59.8964 28.5978 59.2252C28.2914 58.9333 27.9849 58.6269 27.715 58.3059C27.715 58.2986 27.715 58.2986 27.715 58.2986C27.6201 57.963 27.6785 57.5763 27.7952 57.248C27.9776 56.7445 28.2695 56.263 28.7145 55.9565C29.269 55.5698 30.0059 55.4896 30.648 55.672C31.2974 55.8544 31.8591 56.2849 32.275 56.8175C32.6909 56.2849 33.3694 55.7668 34.0188 55.5771C34.6681 55.3947 35.4051 55.4677 35.9523 55.8544C36.3973 56.1608 36.6965 56.6424 36.8716 57.1458C36.981 57.4814 37.0467 57.8681 36.9518 58.2037C36.6819 58.5248 36.3754 58.8239 36.069 59.1231C35.3686 59.7943 34.639 60.4437 34.2231 61.3119C34.0334 61.6986 33.9094 62.129 33.9896 62.5522C34.0699 62.9681 34.3909 63.3694 34.8141 63.4278C35.3686 63.508 35.8355 63.0411 36.2076 62.6179C36.6235 62.1363 37.0394 61.6548 37.448 61.1805C37.6523 60.9471 37.8784 60.699 38.1776 60.6261C38.557 60.5312 38.9583 60.7501 39.1917 61.0638C39.4252 61.3775 39.5347 61.7642 39.6295 62.1436L39.7171 62.2385Z" fill="#FEFEFE"/>
<path d="M35.7713 72.14C35.6181 73.1323 35.0052 74.1319 34.0348 74.3945L33.94 74.3434C33.7867 74.628 33.5897 74.8979 33.3709 75.1314C33.0425 75.4816 32.6704 75.7881 32.2618 76.0434C31.9043 75.81 31.5833 75.5327 31.2915 75.2263C31.0726 74.9928 30.8756 74.7228 30.7224 74.4383L30.6348 74.4821C29.6644 74.2194 29.0589 73.2198 28.8983 72.2276C28.7378 71.2353 28.9348 70.2284 29.0516 69.2289C29.1172 68.6671 29.1464 68.0761 29.0734 67.5143C30.0949 68.3242 31.4593 68.7108 32.7434 68.4847V68.4555C33.7721 68.4409 34.7863 68.0615 35.5889 67.4194C35.5159 67.9812 35.5451 68.5722 35.6108 69.134C35.7275 70.1409 35.9245 71.1477 35.7713 72.14Z" fill="#FEFEFE"/>
<path d="M30.6792 62.6545C30.599 63.0704 30.2779 63.4717 29.8548 63.53C29.2929 63.6103 28.826 63.1433 28.4612 62.7202C28.0453 62.2386 27.6367 61.7644 27.2209 61.2828C27.0166 61.0494 26.7904 60.8013 26.4913 60.7283C26.1119 60.6335 25.7106 60.8524 25.4771 61.1661C25.2436 61.4798 25.1342 61.8665 25.0393 62.2459L24.9591 62.3335C23.5801 61.1369 22.7484 59.4004 22.3398 57.6202C21.9239 55.7962 21.902 53.9138 21.8728 52.046C21.8655 51.5206 21.8655 50.9953 21.8582 50.47C20.866 49.6674 20.078 48.6168 19.7132 47.3983C19.3046 46.034 19.4651 44.5748 19.6767 43.1593C18.0861 43.473 16.4007 43.276 14.9269 42.6048C13.3218 41.8752 11.9866 40.5838 11.1986 39.0151C10.5638 37.7529 10.2866 36.3447 10.002 34.9585C9.7102 33.5722 9.39647 32.1714 8.70334 30.9456C8.00291 29.7126 6.85742 28.6619 5.46387 28.4212C7.28789 27.8521 9.23595 27.6916 11.1256 27.9469C11.9574 28.0637 12.7819 28.2607 13.548 28.6182C14.8102 29.2092 15.8316 30.2014 16.8166 31.1864C17.5462 31.9233 18.2758 32.6675 18.9908 33.419C19.487 33.937 20.005 34.4769 20.669 34.7542C21.4715 35.0898 22.4054 34.995 23.2153 34.6666C23.4196 34.5791 23.6239 34.4842 23.8209 34.3748C24.3754 34.0611 24.8934 33.6525 25.3749 33.2366C25.9805 32.7186 26.5715 32.1568 27.3084 31.8503C27.9578 31.5804 28.6801 31.5293 29.3659 31.6679C28.8333 32.4559 28.308 33.2512 27.9578 34.134C27.593 35.0533 27.4179 36.0821 27.6659 37.0452C28.1693 38.9713 30.2342 40.2992 30.3874 42.2911C30.4822 43.5241 29.7891 44.6696 29.1689 45.7421C27.4543 48.7189 26.1118 52.1189 26.5715 55.5189C26.6664 56.2193 26.8415 56.9052 27.1844 57.5253C27.3376 57.8099 27.5273 58.0725 27.7389 58.3206C27.7389 58.3206 27.7389 58.3206 27.7389 58.3279C28.0088 58.6489 28.3153 58.9481 28.6217 59.2472C29.3221 59.9185 30.0518 60.5678 30.4749 61.436C30.6354 61.7936 30.7595 62.2313 30.6792 62.6545Z" fill="#FEFEFE"/>
<path d="M59.2215 28.3189C57.828 28.5669 56.6825 29.6176 55.9894 30.8433C55.289 32.0764 54.9752 33.4772 54.6834 34.8562C54.3915 36.2424 54.1143 37.6506 53.4795 38.9128C52.6915 40.4815 51.3491 41.7729 49.7512 42.5025C48.2774 43.1738 46.592 43.3707 45.0014 43.057C45.213 44.4724 45.3662 45.9317 44.9577 47.296C44.5929 48.5145 43.8049 49.5651 42.8126 50.375C42.8126 50.9003 42.8053 51.4256 42.798 51.9437C42.7761 53.8115 42.7542 55.6939 42.3311 57.5179C41.9225 59.2981 41.0907 61.0346 39.7118 62.2312L39.6315 62.1436C39.5294 61.7642 39.4272 61.3775 39.1937 61.0638C38.9603 60.7574 38.559 60.5385 38.1796 60.626C37.8804 60.699 37.6543 60.9471 37.45 61.1805C37.0341 61.6548 36.6182 62.1363 36.2096 62.6179C35.8375 63.041 35.3706 63.508 34.8161 63.4277C34.3929 63.3694 34.0719 62.9681 33.9916 62.5522C33.9114 62.129 34.0354 61.6986 34.2251 61.3119C34.641 60.4436 35.3706 59.7943 36.071 59.123C36.3774 58.8239 36.6839 58.5248 36.9538 58.2037C37.1654 57.9557 37.3551 57.693 37.5083 57.4085C37.844 56.7956 38.0191 56.1024 38.1139 55.402C38.5809 52.002 37.2311 48.6021 35.5165 45.6252C34.8963 44.5527 34.2032 43.4072 34.2981 42.1742C34.444 40.1823 36.5161 38.8544 37.0195 36.9283C37.2676 35.9725 37.0998 34.9437 36.7277 34.0171C36.3701 33.1343 35.8448 32.339 35.3195 31.551C36.0126 31.4124 36.735 31.4635 37.377 31.7334C38.1139 32.0399 38.7122 32.6017 39.3105 33.1197C39.7993 33.5429 40.31 33.9442 40.8645 34.2652C41.0615 34.3746 41.2658 34.4768 41.4701 34.557C42.28 34.8854 43.2066 34.9729 44.0092 34.6446C44.6731 34.3673 45.1911 33.8274 45.6873 33.3094C46.4096 32.5579 47.1319 31.8137 47.8615 31.0768C48.8392 30.0918 49.8606 29.0922 51.1229 28.5086C51.8817 28.151 52.7134 27.9541 53.5452 27.8373C55.4495 27.582 57.3975 27.7425 59.2215 28.3189Z" fill="#FEFEFE"/>
<path d="M35.326 31.5589C35.0488 31.6099 34.7788 31.6902 34.5234 31.8069C35.7419 23.9782 37.8651 16.1495 42.2135 9.5319C43.4393 7.6641 44.8547 5.89113 46.6204 4.52676C48.386 3.16239 50.5457 2.22849 52.7783 2.18472C55.4341 2.14094 58.0169 3.38128 59.8847 5.26367C61.7525 7.14607 62.9418 9.63403 63.5692 12.2096C63.9924 13.946 64.1602 15.843 63.416 17.4628C63.1898 14.4276 61.9495 11.4873 59.9358 9.21087C58.9581 8.10186 57.6813 7.10229 56.2002 7.0804C54.6096 7.05121 53.2307 8.15294 52.1362 9.30572C49.8526 11.728 48.1599 14.6392 46.6204 17.5868C43.8843 22.8181 41.5131 28.3704 40.9075 34.2438L40.8929 34.2657C40.3384 33.952 39.8277 33.5434 39.3389 33.1202C38.7333 32.6022 38.135 32.0404 37.4054 31.7339C36.7415 31.4713 36.0118 31.4202 35.326 31.5589Z" fill="#3A3938"/>
<path d="M46.928 40.5548C46.2421 40.6934 45.5344 40.7372 44.834 40.6934C46.0378 39.993 47.052 38.9642 47.7305 37.7531C48.8906 35.6664 49.1606 32.9814 51.0138 31.4784C52.006 30.6759 53.2902 30.3548 54.5305 30.063C54.0636 30.6686 53.6039 31.2814 53.2391 31.9527C52.5168 33.3025 52.2541 34.8419 51.7799 36.2939C51.3129 37.7531 50.5541 39.2269 49.2189 39.9638C48.5185 40.3505 47.7305 40.4964 46.928 40.5548Z" fill="#3A3938"/>
<path d="M44.2053 43.5459C43.8697 43.4948 43.5267 43.451 43.1838 43.4291C43.2641 43.7648 43.1692 44.1223 43.0087 44.4287C42.6804 45.0708 42.0529 45.5596 41.3379 45.6618C40.6229 45.7639 39.8495 45.421 39.5066 44.7935C39.3388 44.8957 39.1856 45.027 39.0615 45.1729C39.2877 44.4871 39.6379 43.8377 40.1632 43.3489C40.725 42.8236 41.4984 42.4953 42.2645 42.5682C42.9941 42.6485 43.6435 43.0643 44.2053 43.5459Z" fill="#3A3938"/>
<path d="M30.1544 31.902C30.2128 31.9239 30.2784 31.9531 30.3295 31.9822C31.1613 32.3908 31.8398 33.0694 32.3141 33.8719C32.781 33.0329 33.4741 32.3179 34.3424 31.8874C34.4007 31.8582 34.4591 31.829 34.5175 31.8071C34.7729 31.6904 35.0428 31.6102 35.3201 31.5591C35.8527 32.3471 36.378 33.1423 36.7282 34.0251C37.1003 34.9445 37.2681 35.9732 37.0201 36.9363C36.5166 38.8625 34.4445 40.1977 34.2986 42.1822C34.2111 43.4153 34.9042 44.5607 35.5171 45.6333C37.2243 48.6101 38.5741 52.01 38.1072 55.41C38.0123 56.1105 37.8372 56.7963 37.5016 57.4165C37.3484 57.701 37.1514 57.9637 36.9471 58.2118C37.0419 57.8761 36.9763 57.4894 36.8668 57.1538C36.6917 56.6504 36.3926 56.1688 35.9475 55.8624C35.393 55.4757 34.6634 55.3955 34.0141 55.5852C33.3647 55.7676 32.6862 56.2929 32.2703 56.8255C31.8544 56.2929 31.2926 55.8624 30.6432 55.68C29.9939 55.4976 29.2643 55.5778 28.7098 55.9572C28.272 56.2637 27.9729 56.7452 27.7905 57.2487C27.6737 57.5843 27.6154 57.971 27.7102 58.3066C27.4986 58.0585 27.3089 57.7959 27.1557 57.5113C26.8201 56.8984 26.645 56.2053 26.5501 55.5049C26.0905 52.1049 27.433 48.7049 29.1476 45.7281C29.7677 44.6556 30.4536 43.5174 30.366 42.277C30.2201 40.2925 28.148 38.9573 27.6519 37.0312C27.4038 36.0754 27.5716 35.0466 27.9437 34.12C28.2939 33.2372 28.8265 32.4419 29.3518 31.6539C29.6218 31.705 29.8918 31.7853 30.1544 31.902Z" fill="#3A3938"/>
<path d="M36.1221 57.5177C36.2315 57.7366 36.2169 57.9993 36.1221 58.2255C35.998 58.5538 35.75 58.8091 35.4581 59.0134C35.1663 59.2177 34.8234 59.3636 34.495 59.495C33.8676 59.743 32.7367 60.3778 32.3354 60.9688C31.9268 60.3851 30.8032 59.8306 30.1757 59.5898C29.8036 59.4439 29.4169 59.2688 29.1032 59.028C28.8624 58.8383 28.6582 58.6122 28.5487 58.3203C28.4612 58.0941 28.4393 57.8315 28.5487 57.6126C28.6727 57.3791 28.9354 57.2405 29.2054 57.2113C29.468 57.1894 29.7307 57.2624 29.9788 57.3718C30.9418 57.7877 32.1603 58.6121 32.3938 59.6336C32.6272 58.6121 33.7289 57.7001 34.692 57.2843C34.9328 57.1821 35.1955 57.1019 35.4654 57.1237C35.7354 57.1456 35.998 57.277 36.1221 57.5177Z" fill="#3A3938"/>
<path d="M29.3437 31.6541C28.6506 31.5155 27.9283 31.5665 27.2862 31.8365C26.5493 32.1429 25.9583 32.7047 25.3527 33.2228C24.8712 33.6459 24.3532 34.0545 23.7987 34.3682L23.7841 34.3464C23.1785 28.473 20.8073 22.9207 18.0712 17.6894C16.5245 14.7417 14.8318 11.8306 12.5481 9.40826C11.4537 8.25548 10.0747 7.15377 8.48415 7.18296C7.00304 7.20485 5.72623 8.2117 4.74855 9.31341C2.73482 11.5898 1.49448 14.5374 1.2683 17.5653C0.524098 15.9456 0.691904 14.0486 1.11508 12.3121C1.74254 9.7366 2.93181 7.24861 4.79961 5.36621C6.66742 3.48382 9.25024 2.24348 11.906 2.28726C14.1386 2.33103 16.2983 3.26495 18.0639 4.62932C19.8296 5.99369 21.245 7.76664 22.4708 9.63444C26.812 16.252 28.9424 24.0807 30.1609 31.9095C29.8909 31.7854 29.621 31.7052 29.3437 31.6541Z" fill="#3A3938"/>
<path d="M25.615 45.2751C25.4909 45.1219 25.3377 44.9979 25.1699 44.8884C24.8197 45.5159 24.0463 45.8588 23.3386 45.7567C22.6236 45.6545 21.9961 45.1584 21.6678 44.5236C21.5073 44.2172 21.4124 43.8597 21.4927 43.5241C21.1498 43.5459 20.8141 43.5897 20.4785 43.6408C21.033 43.1592 21.6897 42.7361 22.4193 42.6631C23.1854 42.5902 23.9588 42.9112 24.5206 43.4438C25.0313 43.9326 25.3888 44.582 25.615 45.2751Z" fill="#3A3938"/>
<path d="M17.7436 40.6495C16.9411 40.5911 16.1531 40.4452 15.4527 40.0512C14.1175 39.307 13.3587 37.8332 12.8917 36.3813C12.4248 34.9293 12.1548 33.3899 11.4325 32.0401C11.0677 31.3688 10.6007 30.756 10.1338 30.1504C11.3741 30.4422 12.6655 30.7633 13.6505 31.5658C15.5037 33.0688 15.7664 35.7611 16.9338 37.8405C17.6123 39.0589 18.6265 40.0877 19.8303 40.7808C19.1372 40.8319 18.4295 40.7881 17.7436 40.6495Z" fill="#3A3938"/>
<path d="M30.7675 61.7566C30.2495 61.0489 29.4907 60.56 28.8487 59.9764C28.1555 59.3416 27.477 58.4588 27.6302 57.4519C27.6594 57.2768 27.3894 57.1965 27.3602 57.3789C27.2362 58.1961 27.5718 58.9622 28.0826 59.5824C28.6371 60.2682 29.3959 60.757 30.0306 61.3553C30.3298 61.6399 30.6435 61.9609 30.7821 62.3622C30.9061 62.7343 30.8624 63.1939 30.5268 63.4347C29.8555 63.9235 28.9873 63.3909 28.3525 63.1137C27.674 62.8146 26.7255 62.6613 26.2366 63.369C26.1345 63.515 26.3753 63.6609 26.4774 63.5077C26.689 63.2012 27.083 63.1137 27.4332 63.1356C27.8491 63.1575 28.2358 63.3617 28.6079 63.5369C29.228 63.8287 30.016 64.1059 30.6508 63.6901C31.3293 63.2523 31.1834 62.3403 30.7675 61.7566Z" fill="#3A3938"/>
<path d="M31.2176 69.5491C30.5099 71.0959 30.2983 72.8251 30.612 74.4959C30.6485 74.671 30.9184 74.5981 30.882 74.423C30.5828 72.8324 30.7871 71.1616 31.4584 69.6878C31.5386 69.5273 31.2906 69.3813 31.2176 69.5491Z" fill="#3A3938"/>
<path d="M20.8728 40.3723C19.7127 41.9337 19.129 43.8963 19.2238 45.8371C19.253 46.3843 19.3333 46.9315 19.4646 47.4642C19.5084 47.6393 19.7783 47.5663 19.7346 47.3912C19.1363 45.0345 19.6616 42.4663 21.1135 40.5183C21.223 40.365 20.9822 40.2264 20.8728 40.3723Z" fill="#3A3938"/>
<path d="M2.37011 13.0846C2.36282 13.0116 2.31175 12.946 2.2315 12.946H2.22419C1.88857 12.6322 1.54566 12.3112 1.21003 11.9975C1.0787 11.8734 0.881706 12.0704 1.01304 12.1945C1.39243 12.5447 1.76454 12.9022 2.14394 13.2524C2.18771 13.2889 2.24609 13.3035 2.29716 13.2816C2.34094 13.2597 2.392 13.2086 2.38471 13.1503C2.37741 13.1284 2.37741 13.1065 2.37011 13.0846Z" fill="#FEFEFE"/>
<path d="M3.79294 10.6986C3.78564 10.6037 3.70538 10.5599 3.63242 10.5672L2.47964 9.12263C2.43586 9.06426 2.33371 9.07156 2.28264 9.12263C2.22427 9.181 2.23886 9.26125 2.28264 9.31962C2.70581 9.85223 3.13628 10.3922 3.55946 10.9248C3.63242 11.0196 3.80753 10.9394 3.80023 10.8226C3.79293 10.7788 3.79294 10.7423 3.79294 10.6986Z" fill="#FEFEFE"/>
<path d="M5.63734 8.08706C5.19227 7.29178 4.74721 6.4965 4.30944 5.70852C4.22189 5.548 3.98111 5.69393 4.06867 5.84715C4.51373 6.64242 4.9588 7.4377 5.39656 8.22568C5.48412 8.3862 5.73219 8.24027 5.63734 8.08706Z" fill="#FEFEFE"/>
<path d="M7.91443 3.35848C7.90713 3.17608 7.62988 3.17608 7.62988 3.35848C7.66636 4.67908 7.7977 5.99969 8.03117 7.2984C8.06036 7.4735 8.33031 7.40054 8.30112 7.22543C8.08224 5.94861 7.95091 4.64989 7.91443 3.35848Z" fill="#FEFEFE"/>
<path d="M12.2786 2.06719C11.7095 3.97147 11.1331 5.86847 10.564 7.77275C10.5129 7.94786 10.7829 8.02082 10.834 7.84572C11.4031 5.94143 11.9795 4.04444 12.5486 2.14016C12.5996 1.96505 12.3297 1.89208 12.2786 2.06719Z" fill="#FEFEFE"/>
<path d="M17.311 4.04441C15.8883 6.04354 14.4582 8.04269 13.0355 10.0345C12.9333 10.1805 13.1741 10.3191 13.2762 10.1731C14.699 8.174 16.129 6.17487 17.5518 4.18304C17.6612 4.03711 17.4204 3.89849 17.311 4.04441Z" fill="#FEFEFE"/>
<path d="M21.165 8.02823C19.2315 9.79388 17.2981 11.5595 15.3646 13.3252C15.2333 13.4492 15.4303 13.6462 15.5616 13.5222C17.4951 11.7565 19.4285 9.99087 21.362 8.22521C21.4933 8.10118 21.2963 7.90419 21.165 8.02823Z" fill="#FEFEFE"/>
<path d="M24.1772 12.8216C21.9956 14.1494 19.8214 15.4774 17.6399 16.8052C17.4866 16.9001 17.6253 17.1409 17.7785 17.046C19.96 15.7181 22.1343 14.3902 24.3158 13.0623C24.4763 12.9748 24.3304 12.7267 24.1772 12.8216Z" fill="#FEFEFE"/>
<path d="M26.616 18.316L19.9619 21.7232C19.8014 21.8035 19.94 22.0516 20.1006 21.964C22.3186 20.8258 24.5366 19.6876 26.7546 18.5567C26.9224 18.4765 26.7765 18.2357 26.616 18.316Z" fill="#FEFEFE"/>
<path d="M28.0296 23.2989C25.9867 24.2474 23.9438 25.2032 21.8936 26.1516C21.7331 26.2246 21.8717 26.4727 22.0322 26.3924C24.0751 25.4439 26.118 24.4881 28.1682 23.5396C28.336 23.4594 28.1901 23.2186 28.0296 23.2989Z" fill="#FEFEFE"/>
<path d="M29.6132 29.4936C27.4681 30.0845 25.3158 30.6682 23.1707 31.2592C22.9956 31.3103 23.0686 31.5802 23.2437 31.5292C25.3887 30.9382 27.5411 30.3545 29.6861 29.7635C29.8612 29.7197 29.7883 29.4498 29.6132 29.4936Z" fill="#FEFEFE"/>
<path d="M33.8814 61.7498C34.3994 61.042 35.1582 60.5532 35.8003 59.9695C36.4934 59.3348 37.172 58.4519 37.0187 57.4451C36.9895 57.27 37.2595 57.1897 37.2887 57.3721C37.4127 58.1893 37.0771 58.9554 36.5664 59.5755C36.0119 60.2614 35.2531 60.7502 34.6183 61.3485C34.3192 61.633 34.0054 61.9541 33.8668 62.3554C33.7428 62.7275 33.7866 63.1871 34.1222 63.4279C34.7934 63.9167 35.6617 63.3841 36.2964 63.1069C36.975 62.8077 37.9235 62.6545 38.4123 63.3622C38.5144 63.5081 38.2737 63.6541 38.1715 63.5009C37.9599 63.1944 37.5659 63.1069 37.2157 63.1287C36.7999 63.1506 36.4132 63.3549 36.0411 63.53C35.4209 63.8219 34.6329 64.0991 33.9981 63.6833C33.3196 63.2382 33.4655 62.3262 33.8814 61.7498Z" fill="#3A3938"/>
<path d="M33.4282 69.5413C34.1359 71.0881 34.3475 72.8173 34.0338 74.4881C33.9973 74.6632 33.7273 74.5902 33.7638 74.4151C34.063 72.8246 33.8587 71.1538 33.1874 69.68C33.1145 69.5195 33.3552 69.3735 33.4282 69.5413Z" fill="#3A3938"/>
<path d="M43.7765 40.3655C44.9365 41.9269 45.5202 43.8895 45.4254 45.8303C45.3962 46.3775 45.3159 46.9247 45.1846 47.4573C45.1408 47.6324 44.8709 47.5595 44.9147 47.3844C45.5129 45.0277 44.9876 42.4595 43.5357 40.5114C43.4262 40.3582 43.667 40.2196 43.7765 40.3655Z" fill="#3A3938"/>
<path d="M62.277 13.0773C62.2843 13.0043 62.3354 12.9386 62.4156 12.9386H62.4229C62.7586 12.6249 63.1015 12.3039 63.4371 11.9901C63.5684 11.8661 63.7654 12.0631 63.6341 12.1871C63.2547 12.5373 62.8826 12.8949 62.5032 13.2451C62.4594 13.2816 62.401 13.2961 62.35 13.2742C62.3062 13.2524 62.2551 13.2013 62.2624 13.1429C62.2697 13.121 62.2697 13.0991 62.277 13.0773Z" fill="#FEFEFE"/>
<path d="M60.8542 10.6908C60.8615 10.5959 60.9417 10.5522 61.0147 10.5595L62.1675 9.11482C62.2113 9.05645 62.3134 9.06374 62.3645 9.11482C62.4229 9.17319 62.4156 9.25343 62.3645 9.3118C61.9413 9.84442 61.5108 10.3843 61.0877 10.917C61.0147 11.0118 60.8396 10.9315 60.8469 10.8148C60.8542 10.771 60.8542 10.7346 60.8542 10.6908Z" fill="#FEFEFE"/>
<path d="M59.0101 8.0802C59.4551 7.28492 59.9002 6.48966 60.338 5.70168C60.4255 5.54117 60.6663 5.68709 60.5787 5.84031C60.1337 6.63559 59.6886 7.43085 59.2508 8.21883C59.1633 8.37934 58.9225 8.23342 59.0101 8.0802Z" fill="#FEFEFE"/>
<path d="M56.7336 3.35165C56.7409 3.16924 57.0182 3.16924 57.0182 3.35165C56.9817 4.67224 56.8504 5.99283 56.6169 7.29154C56.5877 7.46665 56.3177 7.39368 56.3469 7.21857C56.5658 5.93446 56.6971 4.64306 56.7336 3.35165Z" fill="#FEFEFE"/>
<path d="M52.3681 2.05268C52.9372 3.95696 53.5136 5.85393 54.0827 7.75822C54.1338 7.93332 53.8639 8.00629 53.8128 7.83118C53.2437 5.9269 52.6673 4.0299 52.0982 2.12562C52.0471 1.95781 52.3171 1.88487 52.3681 2.05268Z" fill="#FEFEFE"/>
<path d="M47.336 4.03757C48.7588 6.03671 50.1888 8.03583 51.6115 10.0277C51.7137 10.1736 51.4729 10.3122 51.3708 10.1663C49.948 8.16717 48.518 6.16804 47.0953 4.1762C46.9858 4.03028 47.2266 3.89165 47.336 4.03757Z" fill="#FEFEFE"/>
<path d="M43.4835 8.02139C45.4169 9.78705 47.3504 11.5527 49.2839 13.3184C49.4152 13.4424 49.2182 13.6394 49.0869 13.5154C47.1534 11.7497 45.2199 9.98403 43.2865 8.21838C43.1551 8.09434 43.3521 7.89736 43.4835 8.02139Z" fill="#FEFEFE"/>
<path d="M40.4702 12.8142C42.6517 14.1421 44.826 15.47 47.0075 16.7979C47.1607 16.8928 47.0221 17.1335 46.8689 17.0387C44.6873 15.7108 42.5131 14.3829 40.3316 13.055C40.1711 12.9674 40.317 12.7194 40.4702 12.8142Z" fill="#FEFEFE"/>
<path d="M38.0325 18.3081L44.6866 21.7154C44.8471 21.7957 44.7084 22.0438 44.5479 21.9562C42.3299 20.818 40.1119 19.6798 37.8939 18.5489C37.7261 18.4687 37.872 18.2279 38.0325 18.3081Z" fill="#FEFEFE"/>
<path d="M36.6155 23.2846C38.6584 24.2331 40.7013 25.1889 42.7515 26.1374C42.9121 26.2103 42.7734 26.4584 42.6129 26.3782C40.57 25.4297 38.5271 24.4739 36.4769 23.5254C36.3091 23.4524 36.455 23.2116 36.6155 23.2846Z" fill="#FEFEFE"/>
<path d="M35.0347 29.4862C37.1797 30.0772 39.3321 30.6609 41.4772 31.2519C41.6523 31.303 41.5793 31.5729 41.4042 31.5218C39.2591 30.9309 37.1068 30.3472 34.9617 29.7562C34.7866 29.7124 34.8596 29.4425 35.0347 29.4862Z" fill="#FEFEFE"/>
<path d="M35.6104 67.2591C33.6842 68.5505 31.167 68.6526 29.1533 67.4998C28.9928 67.4123 28.8542 67.6531 29.0147 67.7406C31.1159 68.9372 33.7498 68.8496 35.7563 67.4998C35.9022 67.405 35.7636 67.1569 35.6104 67.2591Z" fill="#3A3938"/>
<path d="M36.8141 7.4373C36.6317 7.86048 36.391 8.26178 36.0918 8.63388C35.924 8.84546 35.7416 9.04246 35.5373 9.23216C33.3704 11.224 30.0069 11.0781 28.015 8.91844C27.9421 8.83088 27.8618 8.75062 27.7962 8.66307C27.497 8.29097 27.2562 7.88968 27.0738 7.4738C26.7382 6.7223 26.585 5.90513 26.6215 5.09526C26.6361 4.70857 26.6944 4.32917 26.7893 3.95707C27.0447 3.00128 27.5627 2.11115 28.3361 1.39613C30.503 -0.595709 33.8665 -0.449785 35.8584 1.71716C36.4712 2.3884 36.8871 3.1691 37.0914 3.99356C37.1862 4.37296 37.2446 4.75236 37.2519 5.13175C37.2811 5.91244 37.1352 6.70769 36.8141 7.4373Z" fill="#3A3938"/>
<path d="M42.1406 6.25577C42.1406 7.71499 38.9303 8.35705 36.0922 8.63431C33.9398 8.84589 31.999 8.85318 31.8166 8.85318C31.6415 8.85318 29.8467 8.8459 27.7965 8.6635C24.8926 8.39354 21.4854 7.76606 21.4854 6.25577C21.4854 4.92058 24.1557 4.27122 26.7896 3.9502C26.6948 4.3223 26.6364 4.70901 26.6218 5.08841C24.2506 5.40944 22.8716 5.90557 22.6308 6.24849C22.8862 6.61329 24.433 7.14591 27.0742 7.45964C28.3875 7.62016 29.978 7.71499 31.8166 7.71499C33.7793 7.71499 35.4501 7.59826 36.8218 7.42315C39.3097 7.10212 40.7617 6.5914 41.0097 6.24118C40.7763 5.91286 39.4848 5.43131 37.2595 5.11758C37.2449 4.73818 37.1939 4.35149 37.099 3.97939C39.6381 4.30771 42.1406 4.95706 42.1406 6.25577Z" fill="#FEFEFE"/>
<path d="M33.5092 16.3608L34.3191 18.0608L32.6264 17.2509L31.9917 20.3153L31.3642 17.2509L29.6715 18.0608L30.4814 16.3608L27.417 15.7333L30.4814 15.1058L29.6715 13.4131L31.3642 14.2157L31.9917 11.1514L32.6264 14.2157L34.3191 13.4131L33.5092 15.1058L36.5736 15.7333L33.5092 16.3608Z" fill="#3A3938"/>
</svg>
