<svg width="50" height="50" viewBox="0 0 50 50" fill="none" xmlns="http://www.w3.org/2000/svg">
<path d="M25.4113 8.19702C24.3246 8.19789 23.2826 8.62999 22.5141 9.39845C21.7457 10.1669 21.3136 11.2089 21.3127 12.2957C21.3127 14.5565 23.1489 16.3943 25.4113 16.3943C27.6722 16.3943 29.51 14.5565 29.51 12.2957C29.51 10.0349 27.6722 8.19702 25.4113 8.19702ZM25.4113 9.83648C26.7672 9.83648 27.8705 10.9398 27.8705 12.2957C27.8705 13.6515 26.7672 14.7549 25.4113 14.7549C24.0555 14.7549 22.9522 13.6515 22.9522 12.2957C22.9522 10.9398 24.0555 9.83648 25.4113 9.83648ZM15.5746 13.1154C14.4878 13.1163 13.4458 13.5484 12.6774 14.3168C11.9089 15.0853 11.4768 16.1273 11.4759 17.214C11.4759 19.4749 13.3121 21.3127 15.5746 21.3127C17.8354 21.3127 19.6732 19.4749 19.6732 17.214C19.6732 14.9532 17.8354 13.1154 15.5746 13.1154ZM15.5746 14.7549C16.9304 14.7549 18.0338 15.8582 18.0338 17.214C18.0338 18.5699 16.9304 19.6732 15.5746 19.6732C14.2188 19.6732 13.1154 18.5699 13.1154 17.214C13.1154 15.8582 14.2188 14.7549 15.5746 14.7549ZM12.2957 22.9522C11.2089 22.953 10.1669 23.3851 9.39845 24.1536C8.62999 24.922 8.19789 25.964 8.19702 27.0508C8.19702 29.3116 10.0332 31.1494 12.2957 31.1494C14.5565 31.1494 16.3943 29.3116 16.3943 27.0508C16.3943 24.79 14.5565 22.9522 12.2957 22.9522ZM12.2957 24.5916C13.6515 24.5916 14.7549 25.695 14.7549 27.0508C14.7549 28.4066 13.6515 29.51 12.2957 29.51C10.9398 29.51 9.83648 28.4066 9.83648 27.0508C9.83648 25.695 10.9398 24.5916 12.2957 24.5916ZM36.8876 27.8705C35.8008 27.8714 34.7588 28.3035 33.9903 29.072C33.2219 29.8404 32.7898 30.8824 32.7889 31.9692C32.7889 34.23 34.6251 36.0678 36.8876 36.0678C39.1484 36.0678 40.9862 34.23 40.9862 31.9692C40.9862 29.7084 39.1484 27.8705 36.8876 27.8705ZM36.8876 29.51C38.2434 29.51 39.3467 30.6133 39.3467 31.9692C39.3467 33.325 38.2434 34.4284 36.8876 34.4284C35.5317 34.4284 34.4284 33.325 34.4284 31.9692C34.4284 30.6133 35.5317 29.51 36.8876 29.51ZM17.214 32.7889C16.1273 32.7898 15.0853 33.2219 14.3168 33.9903C13.5484 34.7588 13.1163 35.8008 13.1154 36.8876C13.1154 39.1484 14.9516 40.9862 17.214 40.9862C19.4749 40.9862 21.3127 39.1484 21.3127 36.8876C21.3127 34.6267 19.4749 32.7889 17.214 32.7889ZM17.214 34.4284C18.5699 34.4284 19.6732 35.5317 19.6732 36.8876C19.6732 38.2434 18.5699 39.3467 17.214 39.3467C15.8582 39.3467 14.7549 38.2434 14.7549 36.8876C14.7549 35.5317 15.8582 34.4284 17.214 34.4284ZM28.6903 34.4284C27.6035 34.4292 26.5615 34.8613 25.793 35.6298C25.0246 36.3982 24.5925 37.4403 24.5916 38.527C24.5916 40.7878 26.4278 42.6257 28.6903 42.6257C30.9511 42.6257 32.7889 40.7878 32.7889 38.527C32.7889 36.2662 30.9511 34.4284 28.6903 34.4284ZM28.6903 36.0678C30.0461 36.0678 31.1494 37.1712 31.1494 38.527C31.1494 39.8828 30.0461 40.9862 28.6903 40.9862C27.3344 40.9862 26.2311 39.8828 26.2311 38.527C26.2311 37.1712 27.3344 36.0678 28.6903 36.0678Z" fill="#965EFB" fill-opacity="0.7"/>
<path d="M25.2531 4.00017C24.5907 4.00181 23.9267 4.03296 23.2611 4.0969C13.4047 5.03139 5.37463 12.8172 4.16634 22.6064C3.34989 29.2282 5.5648 35.7057 10.2405 40.3814C12.2176 42.366 14.5679 43.9396 17.1561 45.0114C19.7443 46.0832 22.519 46.632 25.3203 46.6261C26.2138 46.6261 27.1122 46.572 28.0156 46.4589C37.4867 45.2949 45.2397 37.5665 46.4464 28.092C46.5218 27.5084 46.5726 26.928 46.6005 26.3509C46.6359 25.5373 46.4982 24.7255 46.1963 23.9692C45.8945 23.2129 45.4354 22.5293 44.8495 21.9637C44.289 21.4116 43.6179 20.9846 42.8803 20.7108C42.1428 20.4369 41.3555 20.3225 40.5705 20.3751C39.9134 20.4255 39.2524 20.3663 38.6147 20.1997C37.6225 19.9355 36.7209 19.4065 36.0064 18.6692C35.2919 17.9319 34.7915 17.0141 34.5586 16.0141C34.2911 14.8839 34.3687 13.6995 34.7816 12.6139C35.0922 11.8242 35.2351 10.9786 35.2012 10.1307C35.1674 9.28286 34.9575 8.45131 34.5849 7.68895C34.24 6.99019 33.7515 6.37203 33.1515 5.87483C32.5515 5.37764 31.8533 5.01258 31.1027 4.8035C29.2007 4.26267 27.2321 3.99224 25.2547 4.00017H25.2531ZM25.3236 5.63963C27.1335 5.63963 28.9205 5.88555 30.6551 6.37903C31.1862 6.52712 31.68 6.78561 32.1043 7.13762C32.5287 7.48962 32.8739 7.92722 33.1176 8.42179C33.6635 9.51695 33.7127 10.8285 33.252 12.022C32.7217 13.4129 32.62 14.9306 32.9602 16.3797C33.2617 17.672 33.9093 18.8579 34.8335 19.8101C35.7577 20.7623 36.9237 21.4451 38.2064 21.785C39.0393 21.9982 39.8803 22.0687 40.6968 22.0113C41.8067 21.9227 42.8855 22.3424 43.7068 23.1425C44.5593 23.9753 45.0184 25.1148 44.9643 26.2706C44.9364 26.805 44.8889 27.3395 44.82 27.8838C43.7052 36.6271 36.5539 43.7571 27.8139 44.8325C21.6905 45.5785 15.718 43.539 11.4013 39.2223C7.0813 34.9056 5.04018 28.9249 5.79433 22.8097C6.90916 13.7746 14.3195 6.59215 23.4152 5.73308C24.0495 5.67177 24.6863 5.64058 25.3236 5.63963ZM26.1335 18.7553C22.9693 18.7553 20.3954 21.3293 20.3954 24.4934C20.3954 27.6576 22.9693 30.2315 26.1335 30.2315C29.2976 30.2315 31.8716 27.6576 31.8716 24.4934C31.8716 21.3293 29.2976 18.7553 26.1335 18.7553ZM26.1335 20.3948C28.3943 20.3948 30.2321 22.2326 30.2321 24.4934C30.2321 26.7542 28.3943 28.5921 26.1335 28.5921C25.0467 28.5912 24.0047 28.1591 23.2362 27.3906C22.4678 26.6222 22.0357 25.5802 22.0348 24.4934C22.0348 22.2326 23.871 20.3948 26.1335 20.3948Z" fill="#707070"/>
</svg>
