<svg width="22" height="22" viewBox="0 0 22 22" fill="none" xmlns="http://www.w3.org/2000/svg">
<path d="M11.0006 0.364014C5.13539 0.364014 0.364258 5.13757 0.364258 11.0004C0.364258 16.8642 5.13539 21.6392 11.0006 21.6392C16.8671 21.6392 21.637 16.8642 21.637 11.0004C21.637 5.13757 16.8668 0.364014 11.0006 0.364014ZM11.0006 20.7534C5.62539 20.7534 1.25094 16.3783 1.25094 11.0004C1.25094 17.6521 6.60149 21.0511 11.9767 21.0511C17.352 21.0511 21.3531 15.0736 20.7513 11.0004C20.7513 16.3783 16.3759 20.7534 11.0006 20.7534Z" fill="#965EFB"/>
<path d="M8.84482 8.99946C8.84495 9.20311 8.80493 9.40478 8.72706 9.59295C8.64918 9.78113 8.53498 9.9521 8.39098 10.0961C8.24698 10.2401 8.076 10.3543 7.88783 10.4322C7.69966 10.5101 7.49798 10.5501 7.29433 10.5499C6.88301 10.55 6.4885 10.3867 6.19755 10.0959C5.90661 9.80519 5.74306 9.41078 5.74287 8.99946C5.74326 8.5881 5.90684 8.19371 6.19771 7.90283C6.48858 7.61196 6.88298 7.44838 7.29433 7.448C7.70566 7.44819 8.10006 7.61174 8.39082 7.90268C8.68158 8.19362 8.84489 8.58813 8.84482 8.99946ZM16.2552 8.99946C16.255 9.4106 16.0915 9.80482 15.8008 10.0955C15.5101 10.3863 15.1159 10.5497 14.7047 10.5499C14.5009 10.5502 14.2991 10.5103 14.1108 10.4325C13.9224 10.3548 13.7512 10.2406 13.6071 10.0966C13.4629 9.95257 13.3485 9.78154 13.2705 9.59329C13.1924 9.40503 13.1523 9.20324 13.1523 8.99946C13.1524 8.79565 13.1926 8.59386 13.2706 8.40559C13.3487 8.21733 13.463 8.04628 13.6072 7.90221C13.7514 7.75814 13.9225 7.64388 14.1108 7.56595C14.2991 7.48801 14.5009 7.44793 14.7047 7.448C15.5588 7.448 16.2552 8.14371 16.2552 8.99946ZM16.9447 13.0316H16.9471C16.9447 13.034 16.9447 13.0389 16.9447 13.0389C16.9447 13.0389 16.9447 13.0437 16.9422 13.0459L16.9398 13.0473C16.9299 13.0657 16.9224 13.0831 16.9091 13.0983C16.9091 13.1007 16.9072 13.1032 16.9072 13.1032C15.7319 15.1458 13.5265 16.9089 10.9963 16.9089C8.47231 16.9089 6.26599 15.1458 5.08898 13.1032C5.07279 13.0866 5.06127 13.0661 5.05562 13.0437C5.04309 13.0166 5.03712 12.987 5.03821 12.9572C5.03821 12.8232 5.14482 12.7169 5.27753 12.7169C5.33724 12.7169 5.39671 12.7418 5.43877 12.7814L5.4436 12.7884C5.46764 12.8086 5.48653 12.8342 5.49872 12.8631C6.73496 14.5572 8.74039 15.6585 10.9963 15.6585C13.2584 15.6585 15.2624 14.5594 16.5006 12.8607C16.5144 12.8307 16.5352 12.8036 16.5559 12.779L16.5579 12.7775L16.5603 12.779C16.5939 12.747 16.6362 12.7256 16.6819 12.7175C16.7276 12.7094 16.7747 12.7149 16.8173 12.7334C16.8598 12.7518 16.896 12.7824 16.9214 12.8213C16.9467 12.8602 16.96 12.9057 16.9596 12.9521C16.9596 12.9818 16.9524 13.006 16.9447 13.0316Z" fill="#FEFEFE"/>
</svg>
