<svg width="23" height="21" viewBox="0 0 23 21" fill="none" xmlns="http://www.w3.org/2000/svg">
<path d="M11.82 1.85921L11.4752 2.20303L11.1304 1.85824C9.93946 0.688994 8.33499 0.0373201 6.66603 0.0449888C4.99708 0.0526575 3.39867 0.719048 2.21853 1.89919C1.03838 3.07933 0.371993 4.67774 0.364325 6.3467C0.356656 8.01565 1.00833 9.62012 2.17758 10.8111L2.52236 11.1558L11.4752 20.1087L20.428 11.1558L20.7728 10.8111C21.9327 9.61827 22.5765 8.01679 22.5649 6.35302C22.5532 4.68925 21.8871 3.09695 20.7105 1.92053C19.534 0.7441 17.9416 0.0781253 16.2778 0.0666517C14.614 0.055178 13.0126 0.699128 11.82 1.85921Z" fill="#965EFB"/>
<path d="M11.8405 1.8868L11.4957 2.23062L11.1509 1.88583C9.95996 0.716582 8.3555 0.064908 6.68654 0.0725767C5.01759 0.0802454 3.41917 0.746636 2.23903 1.92678C1.05889 3.10692 0.392501 4.70533 0.384833 6.37429C0.377164 8.04324 1.02884 9.64771 2.19808 10.8386L2.54287 11.1834L11.4957 20.1363L20.4485 11.1834L20.7933 10.8386C21.9533 9.64585 22.597 8.04437 22.5854 6.38061C22.5737 4.71684 21.9076 3.12454 20.731 1.94811C19.5545 0.771688 17.9621 0.105713 16.2983 0.0942395C14.6346 0.0827659 13.0331 0.726716 11.8405 1.8868Z" fill="#965EFB"/>
<path d="M14.4901 8.4265H12.6075V6.51646C12.6075 6.25022 12.3874 6.03027 12.1209 6.03027H10.8291C10.5569 6.03027 10.3425 6.25022 10.3425 6.51646V8.4265H8.45989C8.32263 8.42803 8.1915 8.48358 8.09498 8.58111C7.99846 8.67863 7.94433 8.81026 7.94434 8.94742V10.1745C7.94434 10.4581 8.17605 10.6954 8.45989 10.6954H10.3425V12.6054C10.3425 12.8717 10.5569 13.0916 10.8291 13.0916H12.1209C12.3874 13.0916 12.6075 12.8717 12.6075 12.6054V10.6954H14.4901C14.6274 10.6939 14.7585 10.6383 14.855 10.5408C14.9516 10.4433 15.0057 10.3116 15.0057 10.1745V8.94742C15.0057 8.81026 14.9516 8.67863 14.855 8.58111C14.7585 8.48358 14.6274 8.42803 14.4901 8.4265Z" fill="#FEFEFE"/>
</svg>
