<svg width="21" height="23" viewBox="0 0 21 23" fill="none" xmlns="http://www.w3.org/2000/svg">
<path d="M19.1359 1.02974C19.1359 1.02974 18.3194 2.82179 10.0054 4.92943C-1.19997 7.96624 2.92887 16.7086 3.92467 17.4971C11.1901 16.4888 15.9577 9.79976 15.9577 9.79976C16.1696 9.52469 16.2544 9.5695 16.1299 9.89607C16.1299 9.89607 14.4592 16.2862 4.87929 18.2556C1.51425 18.9474 0.363281 21.0398 0.363281 21.0398L1.14516 22.1363C3.49029 20.0277 6.6173 19.8589 6.6173 19.8589C25.2056 24.6668 19.6888 1.16036 19.6888 1.16036C19.6175 0.819497 19.3905 0.767056 19.1359 1.02974Z" fill="#965EFB"/>
</svg>
