<svg width="52" height="72" viewBox="0 0 52 72" fill="none" xmlns="http://www.w3.org/2000/svg">
<path d="M51.393 40.9617C51.6466 41.7516 51.6756 42.5705 51.4147 43.3603C50.8929 44.9546 49.4001 46.23 47.7117 46.3242C48.1755 46.8604 47.9508 47.7663 47.545 48.2953C47.1899 48.7591 46.7044 49.1141 46.3783 49.6069C46.0522 50.0997 45.9508 50.6867 45.9508 51.2664C45.9508 52.3969 46.2696 53.5563 45.9435 54.665C45.6537 55.6506 44.842 56.3752 43.9217 56.7666C42.6391 57.3173 41.2187 57.2231 39.8636 57.0782C40.6173 58.6507 40.4071 60.5928 39.2476 61.9189C38.6897 62.5566 37.9433 63.0349 37.1244 63.274C36.2765 63.5276 35.3925 63.4552 34.5301 63.3682C33.6895 63.2813 32.7837 63.1508 31.9503 63.3972C31.6677 63.4842 31.4286 63.6146 31.2257 63.7813C31.1749 63.8465 31.117 63.9045 31.0735 63.9769C30.6097 64.6581 30.559 65.5205 30.385 66.3031C30.2111 67.064 29.8778 67.7452 29.2763 68.2524C28.9937 68.4916 28.6748 68.68 28.327 68.8032C27.8995 68.9626 27.4357 69.0206 27.0299 69.238C26.7183 69.4047 26.3849 69.6945 26.3704 70.0713C26.3559 70.3974 26.6168 70.7525 26.9646 70.709C27.1096 70.6945 27.1241 70.9119 26.9936 70.9482C26.1168 71.209 25.1747 71.0931 24.3559 70.7018C22.8558 69.9989 21.9935 68.4626 21.6456 66.9046C21.4572 66.0495 21.363 65.1291 20.921 64.3538C20.6673 63.9117 20.2905 63.5132 19.8267 63.303C19.1238 63.1943 18.3774 63.2958 17.6672 63.3682C16.7977 63.4552 15.9208 63.5276 15.073 63.274C14.2541 63.0349 13.5077 62.5566 12.9497 61.9189C11.7903 60.5928 11.5801 58.6507 12.3337 57.0782C10.9786 57.2231 9.55105 57.3173 8.27565 56.7666C7.35533 56.368 6.54371 55.6433 6.25384 54.665C5.92775 53.5563 6.2466 52.3969 6.2466 51.2664C6.2466 50.6794 6.14514 50.0997 5.81905 49.6069C5.49295 49.1214 5.01467 48.7591 4.65234 48.2953C4.23928 47.7663 4.02189 46.8604 4.48567 46.3242C2.79721 46.23 1.30441 44.9546 0.782652 43.3603C0.521774 42.5705 0.558009 41.7443 0.804394 40.9617C1.08701 40.0704 1.57978 39.2733 1.92037 38.4109C2.28995 37.4761 2.37691 36.5485 2.00733 35.5992C1.65225 34.7006 1.05078 33.918 0.673955 33.0339C-0.0434594 31.331 0.144953 29.2729 1.18122 27.7366C2.14502 26.3091 3.75376 25.396 5.46396 25.2583C4.80452 23.2437 5.32628 20.9103 6.78285 19.3741C7.48577 18.6349 8.39884 18.1566 9.2322 17.5842C9.69598 17.2653 10.1308 16.9102 10.4714 16.4682C10.7612 16.0914 10.9931 15.6711 11.2323 15.258C11.6453 14.5551 12.1381 13.8159 12.957 13.555C13.841 13.2724 14.7324 13.6637 15.5223 14.0333C16.4426 14.4609 17.3919 14.9319 18.4281 14.671C19.4789 14.4101 20.2978 13.5985 21.0297 12.8521C22.2471 11.6202 24.2037 9.80129 26.0443 10.9608C26.0733 10.9752 26.0878 10.997 26.0951 11.0187C26.1023 10.997 26.1168 10.9752 26.1458 10.9608C27.9864 9.80129 29.943 11.6202 31.1604 12.8521C31.8996 13.5985 32.7185 14.4101 33.762 14.671C34.7982 14.9319 35.7548 14.4536 36.6679 14.0333C37.4577 13.6637 38.3491 13.2724 39.2332 13.555C40.052 13.8159 40.5448 14.5478 40.9578 15.258C41.197 15.6711 41.4216 16.0914 41.7187 16.4682C42.0593 16.9102 42.5014 17.2653 42.9579 17.5842C43.7913 18.1566 44.7043 18.6349 45.4073 19.3741C46.8711 20.9176 47.3928 23.251 46.7261 25.2583C48.4363 25.396 50.0451 26.3091 51.0089 27.7366C52.0452 29.2729 52.2336 31.331 51.5162 33.0339C51.1393 33.9253 50.5379 34.7006 50.1828 35.5992C49.806 36.5485 49.8929 37.4761 50.2697 38.4109C50.6176 39.2733 51.1103 40.0776 51.393 40.9617Z" fill="#3A3938"/>
<path d="M10.2982 30.8311C10.146 30.8963 9.95761 30.918 9.79094 30.9325C9.05903 30.9977 8.32713 30.7151 7.75464 30.2731C6.55895 29.3527 6.19662 27.8165 6.17488 26.3816C6.15314 24.9323 6.29083 23.2149 7.32709 22.1061C7.79088 21.6134 8.41408 21.2583 9.09527 21.2003C9.78369 21.1423 10.3997 21.4539 10.9287 21.867C11.4866 22.309 11.9432 22.8743 12.5446 23.2656C13.1316 23.6424 13.907 23.9105 14.552 23.4975C14.6752 23.4178 14.7766 23.5917 14.6969 23.6932C13.8273 24.7729 12.9577 25.8526 12.0809 26.9324C12.0664 26.9469 12.0519 26.9614 12.0301 26.9686C12.0301 26.9759 12.0301 26.9759 12.0229 26.9831C11.9939 27.0991 11.82 27.0991 11.7838 26.9831C11.6243 26.3671 11.1243 25.8744 10.5156 25.686C9.97935 25.5193 9.39962 25.628 8.97207 25.9976C8.57351 26.3454 8.32712 26.8817 8.35611 27.4107C8.42133 28.4832 9.76195 29.1498 10.6678 28.6063C10.762 28.5484 10.8707 28.6426 10.8489 28.744C10.733 29.2296 10.6171 29.7151 10.4939 30.2078C10.4576 30.3455 10.4286 30.4832 10.3924 30.6209C10.3924 30.7151 10.3924 30.7876 10.2982 30.8311Z" fill="#FEFEFE"/>
<path d="M46.0233 26.3815C46.0015 27.8163 45.632 29.3526 44.4435 30.2729C43.871 30.7149 43.1391 30.9975 42.4072 30.9323C42.2478 30.9178 42.0521 30.8961 41.9 30.8309C41.813 30.7874 41.8058 30.7149 41.784 30.628C41.755 30.4903 41.7188 30.3526 41.6826 30.2149C41.5666 29.7294 41.4434 29.2366 41.3275 28.7511C41.3057 28.6496 41.4144 28.5554 41.5086 28.6134C42.4217 29.1497 43.7551 28.4902 43.8203 27.4177C43.8565 26.8815 43.6102 26.3525 43.2116 26.0046C42.784 25.6278 42.2116 25.5264 41.6681 25.693C41.0594 25.8814 40.5666 26.3742 40.3999 26.9902C40.3709 27.1061 40.197 27.1061 40.168 26.9902C40.168 26.9829 40.168 26.9757 40.1608 26.9757C40.1463 26.9684 40.1245 26.9612 40.11 26.9394C39.2332 25.8597 38.3636 24.78 37.494 23.7002C37.4143 23.5988 37.5158 23.4248 37.6462 23.5046C38.2839 23.9104 39.0593 23.6422 39.6535 23.2727C40.255 22.8886 40.7115 22.3161 41.2695 21.8741C41.7913 21.4538 42.4145 21.1422 43.1029 21.2074C43.7768 21.2654 44.4073 21.6204 44.8711 22.1132C45.9146 23.2219 46.045 24.9394 46.0233 26.3815Z" fill="#FEFEFE"/>
<path d="M41.0958 38.9403C41.7408 40.0997 42.0524 41.3824 41.9726 42.7085C41.8929 44.0346 41.4799 45.339 40.8494 46.5057C39.5233 48.9768 37.2551 50.7667 35.0376 52.3972C34.8275 52.5494 34.6173 52.7016 34.4144 52.8538C34.4507 53.9697 34.4217 55.0857 34.1101 56.1582C33.7622 57.3467 33.0448 58.4626 31.9144 59.0279C31.639 59.1656 31.3564 59.267 31.0665 59.325C30.7477 60.1801 30.552 61.0859 30.1607 61.9193C29.8998 62.47 29.5592 62.999 29.0809 63.3831C28.6027 63.7672 28.0229 63.9918 27.4215 64.086C26.9867 64.1585 26.5519 64.173 26.1098 64.1657C25.6678 64.173 25.233 64.1585 24.7982 64.086C24.1967 63.9846 23.617 63.7672 23.1387 63.3831C22.6604 62.999 22.3198 62.47 22.059 61.9193C21.6749 61.0859 21.472 60.1801 21.1531 59.325C20.856 59.267 20.5734 59.1656 20.3053 59.0279C19.1748 58.4554 18.4574 57.3467 18.1096 56.1582C17.7907 55.0857 17.769 53.9625 17.8052 52.8538C17.5951 52.7016 17.3849 52.5494 17.182 52.3972C14.9573 50.774 12.6964 48.9768 11.3702 46.5057C10.7398 45.339 10.3195 44.0346 10.247 42.7085C10.1745 41.3824 10.4716 40.0997 11.1238 38.9403C11.7905 37.7373 12.7108 36.6866 13.2616 35.4184C13.8268 34.1213 13.8993 32.6865 14.2689 31.3313C14.4428 30.6791 14.7037 30.0487 15.0732 29.4907C15.4356 28.9472 15.8849 28.4689 16.3849 28.0559C17.4429 27.1863 18.7255 26.5196 20.0517 26.1862C21.3416 25.8601 22.7329 25.8819 23.9431 26.4979C24.9866 27.0269 25.8417 27.9762 26.0736 29.1429C26.0736 29.1501 26.0736 29.1574 26.0736 29.1719H26.1461C26.1461 29.1646 26.1461 29.1574 26.1461 29.1429C26.378 27.9762 27.233 27.0341 28.2766 26.4979C29.4795 25.8819 30.8708 25.8601 32.168 26.1862C33.4941 26.5268 34.784 27.1863 35.842 28.0559C36.342 28.4689 36.7986 28.9472 37.1537 29.4907C37.5305 30.0559 37.7841 30.6864 37.958 31.3313C38.3276 32.6865 38.4073 34.1213 38.9653 35.4184C39.5088 36.6866 40.4291 37.7373 41.0958 38.9403Z" fill="#FEFEFE"/>
<path d="M15.0813 30.4179C15.0595 30.4034 15.0378 30.3889 15.0088 30.3889C15.074 30.3092 15.1392 30.2367 15.2045 30.157C15.2987 30.0338 15.1247 29.8599 15.0305 29.9831C13.2334 32.2803 10.4434 33.7368 7.53755 33.976C6.71868 34.0412 5.89257 34.0122 5.0882 33.8818C4.93602 33.86 4.8708 34.0919 5.02298 34.1209C7.9651 34.5992 11.0522 33.7658 13.4073 31.9469C13.9001 31.5629 14.3566 31.1353 14.7769 30.6715C13.5522 33.4542 11.0884 35.5775 8.14626 36.3529C7.26218 36.5848 6.3491 36.7007 5.43603 36.6862C5.27661 36.6862 5.27661 36.9326 5.43603 36.9326C8.72599 36.9761 11.8783 35.4108 13.8421 32.773C14.1754 32.3237 14.4653 31.8455 14.7189 31.3527C14.1392 33.1064 13.2334 34.7514 12.0522 36.1789C10.6681 37.8384 8.92165 39.1718 6.95782 40.0776C5.84184 40.5921 4.66065 40.9689 3.45771 41.1863C3.30553 41.2153 3.37075 41.4545 3.52293 41.4255C5.70416 41.0197 7.78393 40.1283 9.57384 38.8239C11.342 37.5413 12.8058 35.8673 13.8566 33.9542C14.4436 32.889 14.9001 31.744 15.2117 30.5701C15.2262 30.4759 15.1537 30.4179 15.0813 30.4179Z" fill="#FEFEFE"/>
<path d="M12.8629 54.2307C11.6237 53.064 10.7324 51.5495 10.3121 49.8973C9.87732 48.2016 9.96427 46.4044 10.544 44.7522C10.8701 43.8174 11.3484 42.9333 11.9643 42.1507C12.0585 42.0275 11.8919 41.8535 11.7904 41.9767C10.6672 43.3971 9.98601 45.1363 9.82659 46.9334C9.67441 48.6944 10.0585 50.4843 10.8918 52.0423C11.3629 52.9191 11.9716 53.7162 12.6962 54.4047C12.8049 54.5134 12.9789 54.3394 12.8629 54.2307Z" fill="#FEFEFE"/>
<path d="M15.4643 54.0128C13.0077 52.6215 11.3555 50.0634 11.1163 47.2445C11.0439 46.3821 11.0946 45.5198 11.2757 44.6792C11.312 44.527 11.0728 44.4618 11.0366 44.614C10.3989 47.5633 11.3192 50.6939 13.4642 52.8171C14.0222 53.3679 14.6527 53.8461 15.3338 54.2302C15.4788 54.3027 15.602 54.0925 15.4643 54.0128Z" fill="#FEFEFE"/>
<path d="M16.4718 52.8323C14.7906 52.0424 13.4717 50.5568 12.863 48.8032C12.6891 48.3032 12.5731 47.7814 12.5224 47.2524C12.5079 47.093 12.2615 47.093 12.276 47.2524C12.4572 49.1727 13.45 50.9844 14.9573 52.1873C15.3848 52.5279 15.8486 52.8178 16.3414 53.0497C16.4863 53.1149 16.6167 52.9047 16.4718 52.8323Z" fill="#FEFEFE"/>
<path d="M24.5364 23.9539C23.8552 22.2147 22.8479 20.5987 21.5725 19.2291C20.8551 18.4537 20.0507 17.7653 19.1739 17.1711C19.0434 17.0841 18.9202 17.2942 19.0507 17.3812C20.5725 18.4175 21.8769 19.7653 22.8914 21.3089C23.8987 22.8451 24.6233 24.5698 25.0001 26.367C25.2103 27.3888 25.3118 28.4323 25.29 29.4758C25.29 29.6352 25.5292 29.6352 25.5364 29.4758C25.5799 27.5917 25.2248 25.7076 24.5364 23.9539Z" fill="#FEFEFE"/>
<path d="M23.2831 24.3741C22.2686 22.9538 20.9062 21.7943 19.3409 21.0262C18.4641 20.5914 17.5365 20.2798 16.5727 20.0986C16.4206 20.0696 16.3553 20.3088 16.5075 20.3378C18.1742 20.6494 19.7612 21.3668 21.0874 22.4175C22.428 23.4828 23.486 24.8669 24.1672 26.4394C24.5585 27.3307 24.8194 28.2873 24.9426 29.2511C24.9643 29.4033 25.2107 29.4105 25.189 29.2511C24.9643 27.4974 24.3121 25.8162 23.2831 24.3741Z" fill="#FEFEFE"/>
<path d="M24.5296 28.8955C24.0441 27.4172 23.1672 26.0693 22.015 25.0258C20.7831 23.9171 19.2468 23.1707 17.6163 22.8808C16.6815 22.7141 15.725 22.6996 14.7829 22.8301C14.6307 22.8518 14.6959 23.091 14.8481 23.0692C16.4786 22.8446 18.1743 23.091 19.6744 23.7794C21.0657 24.4171 22.2759 25.4316 23.1527 26.6853C23.6455 27.3882 24.0296 28.1563 24.2977 28.968C24.3412 29.1129 24.5803 29.0477 24.5296 28.8955Z" fill="#FEFEFE"/>
<path d="M20.5082 25.3813C18.9357 24.519 17.095 24.2219 15.3269 24.548C15.1747 24.577 15.2399 24.8161 15.3921 24.7871C17.0878 24.4755 18.8704 24.7726 20.385 25.5987C20.5227 25.664 20.6459 25.4538 20.5082 25.3813Z" fill="#FEFEFE"/>
<path d="M18.261 25.5201C17.1885 25.3317 16.0798 25.4331 15.058 25.8244C14.913 25.8824 14.9783 26.1143 15.1232 26.0636C16.1015 25.6867 17.1595 25.578 18.1958 25.7592C18.3479 25.781 18.4204 25.5491 18.261 25.5201Z" fill="#FEFEFE"/>
<path d="M9.13837 32.2944C8.0224 32.7654 6.78323 32.8886 5.60203 32.635C5.44985 32.5987 5.38463 32.8379 5.53681 32.8741C6.76149 33.135 8.05138 33.019 9.20359 32.5335C9.34853 32.4683 9.28331 32.2291 9.13837 32.2944Z" fill="#FEFEFE"/>
<path d="M8.44351 31.6643C7.79856 31.9034 7.11738 31.9831 6.4362 31.9106C6.27678 31.8962 6.28402 32.1425 6.4362 32.157C7.13912 32.2295 7.84929 32.1425 8.50873 31.9034C8.65366 31.8454 8.58844 31.6063 8.44351 31.6643Z" fill="#FEFEFE"/>
<path d="M9.23956 40.1066C7.94966 41.353 6.32642 42.2371 4.57999 42.6574C4.08722 42.7734 3.57996 42.8531 3.07269 42.8965C2.91327 42.911 2.91327 43.1574 3.07269 43.1429C4.91333 42.9907 6.70324 42.3458 8.21054 41.2805C8.63809 40.9762 9.0439 40.6428 9.41348 40.2805C9.52942 40.1646 9.3555 39.9906 9.23956 40.1066Z" fill="#FEFEFE"/>
<path d="M8.88294 42.6072C7.86116 44.0058 6.51329 45.1507 4.96252 45.9334C4.82483 46.0058 4.94803 46.216 5.08571 46.1435C6.67272 45.3391 8.04233 44.1652 9.09309 42.7304C9.18729 42.6072 8.97714 42.484 8.88294 42.6072Z" fill="#FEFEFE"/>
<path d="M26.0507 49.9395C26.0435 49.9395 26.0435 49.9395 26.0435 49.9395C25.9204 49.9395 25.7974 49.9395 25.6743 49.9322C25.573 49.8888 25.5874 49.7006 25.725 49.7006C25.8336 49.7006 25.9349 49.7006 26.0435 49.6934H26.0507C26.2027 49.7078 26.2027 49.9395 26.0507 49.9395Z" fill="#3A3938"/>
<path d="M26.0586 37.3094C26.0296 37.3384 25.9934 37.3601 25.9355 37.3456C25.921 37.3456 25.9066 37.3384 25.8993 37.3384C25.8342 37.3239 25.7763 37.3094 25.7111 37.3094C25.6677 37.2515 25.6749 37.143 25.769 37.1212C25.8125 37.114 25.8487 37.0995 25.8921 37.0923C25.9283 37.0995 25.9572 37.1068 25.9934 37.114C26.102 37.1357 26.1092 37.2443 26.0586 37.3094Z" fill="#3A3938"/>
<path d="M21.0221 41.8458C20.9932 41.7951 20.9642 41.7444 20.9279 41.6937C20.8917 41.6792 20.87 41.6429 20.8627 41.5922C20.8627 41.5922 20.8627 41.5922 20.8627 41.585C20.5729 41.1067 20.2178 40.6719 19.7975 40.2951C19.196 40.8603 18.3264 41.1067 17.5438 40.7806C16.8119 40.4762 16.3553 39.6864 16.5365 38.9037C15.8843 38.7298 15.2031 38.7443 14.5509 38.94C14.435 38.9762 14.3408 38.8168 14.435 38.737C14.9422 38.2805 15.5582 37.9689 16.2249 37.8167C17.3916 37.5486 18.6308 37.8022 19.5728 38.5486C20.3917 39.2008 20.9424 40.1791 21.0801 41.2154C21.1381 41.3893 21.2033 41.5632 21.2468 41.7444C21.283 41.8893 21.0874 41.9763 21.0221 41.8458Z" fill="#3A3938"/>
<path d="M36.6972 30.4252C36.7189 30.4107 36.7407 30.3962 36.7697 30.3962C36.7044 30.3165 36.6392 30.244 36.574 30.1643C36.4798 30.0411 36.6537 29.8672 36.7479 29.9904C38.5451 32.2876 41.335 33.7442 44.2409 33.9833C45.0598 34.0485 45.8859 34.0195 46.6903 33.8891C46.8425 33.8673 46.9077 34.0992 46.7555 34.1282C43.8134 34.6065 40.7263 33.7731 38.3712 31.9542C37.8784 31.5702 37.4219 31.1426 37.0016 30.6788C38.2262 33.4615 40.6901 35.5848 43.6322 36.3602C44.5163 36.5921 45.4294 36.708 46.3424 36.6935C46.5019 36.6935 46.5019 36.9399 46.3424 36.9399C43.0525 36.9834 39.9002 35.4181 37.9364 32.7804C37.603 32.3311 37.3132 31.8528 37.0595 31.36C37.6393 33.1137 38.5451 34.7587 39.7263 36.1863C41.1104 37.8457 42.8568 39.1791 44.8206 40.0849C45.9366 40.5994 47.1178 40.9763 48.3208 41.1937C48.4729 41.2227 48.4077 41.4618 48.2555 41.4328C46.0743 41.027 43.9945 40.1357 42.2046 38.8313C40.4364 37.5486 38.9726 35.8747 37.9219 33.9616C37.3349 32.8963 36.8784 31.7513 36.5668 30.5774C36.545 30.4832 36.6247 30.4252 36.6972 30.4252Z" fill="#FEFEFE"/>
<path d="M38.9153 54.2376C40.1545 53.0709 41.0458 51.5563 41.4661 49.9041C41.9009 48.2084 41.8139 46.4113 41.2342 44.759C40.9081 43.8242 40.4298 42.9401 39.8139 42.1575C39.7197 42.0343 39.8863 41.8604 39.9878 41.9836C41.111 43.4039 41.7922 45.1431 41.9516 46.9403C42.1038 48.7012 41.7197 50.4911 40.8864 52.0491C40.4153 52.926 39.8066 53.7231 39.082 54.4115C38.9733 54.5202 38.7993 54.3463 38.9153 54.2376Z" fill="#FEFEFE"/>
<path d="M36.3061 54.0128C38.7627 52.6215 40.4149 50.0634 40.654 47.2445C40.7265 46.3821 40.6758 45.5198 40.4946 44.6792C40.4584 44.527 40.6975 44.4618 40.7337 44.614C41.3714 47.5633 40.4511 50.6939 38.3061 52.8171C37.7481 53.3679 37.1177 53.8461 36.4365 54.2302C36.2916 54.3027 36.1684 54.0925 36.3061 54.0128Z" fill="#FEFEFE"/>
<path d="M35.3049 52.8386C36.9861 52.0487 38.3049 50.5632 38.9137 48.8095C39.0876 48.3095 39.2035 47.7877 39.2543 47.2587C39.2687 47.0993 39.5151 47.0993 39.5006 47.2587C39.3195 49.1791 38.3267 50.9907 36.8194 52.1937C36.3918 52.5343 35.9281 52.8241 35.4353 53.056C35.2831 53.114 35.1599 52.9038 35.3049 52.8386Z" fill="#FEFEFE"/>
<path d="M27.5016 23.9607C28.1828 22.2215 29.1901 20.6055 30.4655 19.2359C31.1829 18.4605 31.9873 17.7721 32.8641 17.1779C32.9946 17.0909 33.1177 17.3011 32.9873 17.388C31.4655 18.4243 30.1611 19.7722 29.1466 21.3157C28.1393 22.852 27.4147 24.5767 27.0378 26.3738C26.8277 27.3956 26.7262 28.4391 26.748 29.4826C26.748 29.6421 26.5088 29.6421 26.5016 29.4826C26.4654 27.5913 26.8132 25.7072 27.5016 23.9607Z" fill="#FEFEFE"/>
<path d="M28.7529 24.3815C29.7674 22.9611 31.1298 21.8017 32.6951 21.0335C33.5719 20.5987 34.4995 20.2871 35.4633 20.1059C35.6155 20.077 35.6807 20.3161 35.5285 20.3451C33.8618 20.6567 32.2748 21.3741 30.9486 22.4249C29.608 23.4901 28.55 24.8742 27.8688 26.4467C27.4775 27.3381 27.2166 28.2946 27.0934 29.2584C27.0717 29.4106 26.8253 29.4178 26.8471 29.2584C27.0717 27.5047 27.7239 25.8163 28.7529 24.3815Z" fill="#FEFEFE"/>
<path d="M27.5158 28.9033C28.0013 27.425 28.8782 26.0771 30.0304 25.0336C31.2623 23.9249 32.7986 23.1785 34.4291 22.8886C35.3639 22.7219 36.3204 22.7074 37.2625 22.8379C37.4147 22.8596 37.3495 23.0988 37.1973 23.077C35.5668 22.8524 33.8711 23.0988 32.371 23.7872C30.9797 24.4249 29.7695 25.4394 28.8927 26.6931C28.3999 27.396 28.0158 28.1641 27.7477 28.9758C27.7042 29.1134 27.4651 29.0482 27.5158 28.9033Z" fill="#FEFEFE"/>
<path d="M31.5299 25.3813C33.1024 24.519 34.9431 24.2219 36.7112 24.548C36.8634 24.577 36.7982 24.8161 36.646 24.7871C34.9503 24.4755 33.1676 24.7726 31.6531 25.5987C31.5154 25.6712 31.3922 25.461 31.5299 25.3813Z" fill="#FEFEFE"/>
<path d="M33.7751 25.5269C34.8476 25.3385 35.9563 25.4399 36.9781 25.8313C37.123 25.8892 37.0578 26.1211 36.9129 26.0704C35.9346 25.6936 34.8766 25.5849 33.8403 25.766C33.6881 25.7878 33.6229 25.5486 33.7751 25.5269Z" fill="#FEFEFE"/>
<path d="M42.6388 32.3022C43.7548 32.7732 44.994 32.8964 46.1752 32.6428C46.3274 32.6065 46.3926 32.8457 46.2404 32.8819C45.0157 33.1428 43.7258 33.0268 42.5736 32.5413C42.4287 32.4761 42.4939 32.237 42.6388 32.3022Z" fill="#FEFEFE"/>
<path d="M43.3361 31.6716C43.981 31.9107 44.6622 31.9904 45.3434 31.918C45.5028 31.9035 45.4956 32.1499 45.3434 32.1644C44.6405 32.2368 43.9303 32.1499 43.2709 31.9107C43.1259 31.8528 43.1912 31.6136 43.3361 31.6716Z" fill="#FEFEFE"/>
<path d="M42.5383 40.1067C43.8282 41.3531 45.4515 42.2372 47.1979 42.6575C47.6907 42.7734 48.1979 42.8531 48.7052 42.8966C48.8646 42.9111 48.8646 43.1575 48.7052 43.143C46.8646 42.9908 45.0746 42.3459 43.5673 41.2806C43.1398 40.9763 42.734 40.6429 42.3644 40.2806C42.2485 40.1719 42.4224 39.998 42.5383 40.1067Z" fill="#FEFEFE"/>
<path d="M42.8931 42.6132C43.9149 44.0118 45.2627 45.1567 46.8135 45.9394C46.9512 46.0118 46.828 46.222 46.6903 46.1495C45.1033 45.3451 43.7337 44.1712 42.6829 42.7364C42.5887 42.6059 42.7989 42.4827 42.8931 42.6132Z" fill="#FEFEFE"/>
<path d="M26.0507 49.9396C26.0435 49.9396 26.0435 49.9396 26.0435 49.9396C25.9349 49.9396 25.8336 49.9396 25.725 49.9468C25.7033 49.9468 25.6888 49.9396 25.6743 49.9396C25.573 49.8961 25.5874 49.7079 25.725 49.7079C25.8336 49.7079 25.9349 49.7079 26.0435 49.7007H26.0507C26.2027 49.7079 26.2027 49.9396 26.0507 49.9396Z" fill="#3A3938"/>
<path d="M18.8271 47.0847C19.03 49.4761 18.059 51.7371 17.7691 54.0705C17.7546 54.2226 17.5082 54.2299 17.5227 54.0705C17.53 54.0125 17.5445 53.9473 17.5517 53.8893C17.3778 53.8748 17.2329 53.7371 17.1459 53.5777C16.9937 53.3023 16.943 52.969 16.9285 52.6646C16.885 51.382 17.6677 50.2877 18.0227 49.0993C18.3851 47.8819 18.4358 46.5775 18.1604 45.3383C18.1242 45.1789 18.3343 45.1282 18.3923 45.2731C18.6387 45.8456 18.7764 46.4615 18.8271 47.0847Z" fill="#3A3938"/>
<path d="M31.6812 59.6938C29.4493 59.8387 27.9202 57.8097 25.8767 57.3097C23.8332 57.8169 22.3114 59.8315 20.0867 59.6938C19.949 59.6865 19.92 59.4909 20.0577 59.4474C20.6447 59.2807 21.2026 59.0416 21.7389 58.7372C23.6592 57.6357 25.0144 55.7299 25.4347 53.5559C25.0868 52.8892 24.3767 52.4689 23.6955 52.2008C22.9418 51.9109 22.1375 51.7443 21.4128 51.3819C21.0939 51.2225 20.7244 51.0196 20.5577 50.679C20.4273 50.4181 20.4417 50.092 20.6374 49.8819C20.391 49.6717 20.2533 49.3384 20.2316 48.9978C20.2171 48.6934 20.2823 48.3891 20.362 48.092C20.4417 47.7876 20.5287 47.4905 20.6157 47.1861C21.2316 44.9614 21.8476 42.7367 22.4708 40.5193C22.7244 39.599 23.0143 38.6279 23.6737 37.9105C24.2317 37.3018 25.0723 36.9105 25.8984 37.0771C25.855 37.0844 25.8187 37.0916 25.7753 37.1061C25.681 37.1279 25.6666 37.2366 25.7173 37.2945C24.8332 37.1858 24.0071 37.7801 23.536 38.4902C23.0288 39.2729 22.8114 40.2077 22.565 41.0917C22.2824 42.1208 21.9925 43.1425 21.7099 44.1716C21.4273 45.1861 21.1447 46.2079 20.8621 47.2224C20.7896 47.4833 20.7171 47.7514 20.6447 48.0123C20.5722 48.2659 20.4997 48.5268 20.4852 48.7877C20.4635 49.1282 20.5649 49.5268 20.8476 49.7297C21.1302 49.592 21.4925 49.6282 21.7969 49.6355C22.2606 49.6427 22.7317 49.6428 23.1955 49.65C24.152 49.6572 25.1013 49.6717 26.0506 49.6862C25.9419 49.6862 25.8405 49.6862 25.7318 49.6935C25.5941 49.6935 25.5796 49.8819 25.681 49.9254C25.6955 49.9326 25.71 49.9326 25.7318 49.9326C25.8405 49.9326 25.9419 49.9326 26.0506 49.9254C26.0506 49.9254 26.0506 49.9254 26.0579 49.9254C26.21 49.9254 26.2101 49.6935 26.0651 49.679C26.9057 49.6717 27.7536 49.6572 28.5942 49.65C29.058 49.6428 29.529 49.6427 29.9928 49.6355C30.2971 49.6355 30.6522 49.5993 30.9421 49.7297C31.2319 49.5268 31.3262 49.1355 31.3044 48.7949C31.2899 48.5268 31.2102 48.2731 31.145 48.0195C31.0725 47.7514 31.0001 47.4905 30.9276 47.2296C30.645 46.2151 30.3624 45.1933 30.0797 44.1788C29.7899 43.1498 29.5073 42.128 29.2246 41.099C28.9783 40.2077 28.7609 39.2801 28.2536 38.4975C27.7826 37.78 26.9492 37.1858 26.0651 37.3018C26.1158 37.2438 26.1086 37.1279 26.0071 37.1061C25.9709 37.0989 25.9419 37.0916 25.9057 37.0844C26.7246 36.925 27.5579 37.3235 28.1087 37.925C28.7681 38.6424 29.058 39.6134 29.3116 40.5338C29.9348 42.7585 30.5508 44.9759 31.1667 47.2006C31.2537 47.505 31.3334 47.8021 31.4204 48.1065C31.5001 48.3963 31.5653 48.7079 31.5508 49.0123C31.5291 49.3456 31.3986 49.679 31.145 49.8964C31.3406 50.1065 31.3551 50.4326 31.2247 50.6935C31.058 51.0268 30.6957 51.2297 30.3696 51.3964C29.6449 51.7587 28.8406 51.9254 28.0869 52.2153C27.4057 52.4834 26.6956 52.9037 26.3477 53.5704C26.768 55.7444 28.1232 57.6503 30.0435 58.7517C30.5725 59.0561 31.1377 59.288 31.7247 59.4619C31.8552 59.4909 31.8189 59.6865 31.6812 59.6938Z" fill="#3A3938"/>
<path d="M26.0592 37.3094C26.0085 37.3167 25.9506 37.3239 25.8999 37.3384C25.8782 37.3456 25.8565 37.3456 25.842 37.3529C25.7841 37.3674 25.7407 37.3456 25.7189 37.3094C25.6755 37.2515 25.6827 37.143 25.7768 37.1212C25.8203 37.114 25.8565 37.0995 25.8999 37.0923C25.9361 37.0995 25.965 37.1068 26.0012 37.114C26.1026 37.1357 26.1098 37.2443 26.0592 37.3094Z" fill="#3A3938"/>
<path d="M34.8493 52.6647C34.8348 52.9691 34.7841 53.3024 34.6391 53.5778C34.5522 53.7372 34.4 53.8749 34.2261 53.8894C34.2333 53.9546 34.2478 54.0126 34.2551 54.0778C34.2768 54.23 34.0304 54.23 34.0087 54.0778C33.7116 51.7371 32.7478 49.4835 32.9507 47.0921C33.0014 46.4689 33.1391 45.8529 33.3855 45.2804C33.4434 45.1355 33.6536 45.1862 33.6246 45.3456C33.3565 46.5848 33.4 47.8892 33.7623 49.1066C34.1101 50.2878 34.8928 51.382 34.8493 52.6647Z" fill="#3A3938"/>
<path d="M37.2193 38.9547C36.5671 38.7591 35.8859 38.7518 35.2337 38.9185C35.4149 39.7011 34.9511 40.491 34.2192 40.7954C33.4365 41.1215 32.5669 40.8678 31.9655 40.3098C31.5452 40.6867 31.1901 41.1215 30.9002 41.5997C30.9002 41.5997 30.9002 41.5997 30.9002 41.607C30.9002 41.6577 30.8712 41.6867 30.835 41.7084C30.806 41.7592 30.7698 41.8099 30.7408 41.8606C30.6756 41.9838 30.4799 41.8968 30.5162 41.7664C30.5596 41.5852 30.6249 41.4113 30.6828 41.2374C30.8205 40.1939 31.3713 39.2228 32.1901 38.5707C33.1322 37.8243 34.3714 37.5706 35.5381 37.8315C36.2047 37.9837 36.8207 38.2953 37.328 38.7518C37.4367 38.8315 37.3352 38.9837 37.2193 38.9547Z" fill="#3A3938"/>
<path d="M26.5025 14.4465C29.116 14.4465 31.2346 12.3279 31.2346 9.71446C31.2346 7.10102 29.116 4.98242 26.5025 4.98242C23.8891 4.98242 21.7705 7.10102 21.7705 9.71446C21.7705 12.3279 23.8891 14.4465 26.5025 14.4465Z" fill="#FEFEFE"/>
<path d="M27.6463 3.07591C27.5666 3.38027 27.4289 3.67014 27.3492 3.9745C27.2912 4.1774 27.2623 4.40205 27.2985 4.6122C27.0376 4.57597 26.7767 4.55423 26.5086 4.55423C26.0956 4.55423 25.6897 4.60495 25.3057 4.69916C25.255 4.26436 25.4579 3.80782 25.7115 3.43824C26.0231 2.98895 26.4361 2.61213 26.697 2.12661C26.9507 1.64109 27.0159 0.996142 26.6463 0.590332C27.4507 1.0831 27.8782 2.1411 27.6463 3.07591Z" fill="#FEFEFE"/>
<path d="M25.3499 16.3664C25.4296 16.0621 25.5673 15.7722 25.647 15.4678C25.705 15.2649 25.734 15.0403 25.6977 14.8301C25.9586 14.8664 26.2195 14.8881 26.4876 14.8881C26.9007 14.8881 27.3065 14.8374 27.6906 14.7432C27.7413 15.178 27.5384 15.6345 27.2847 16.0041C26.9731 16.4534 26.5601 16.8302 26.2992 17.3157C26.0456 17.8012 25.9804 18.4462 26.3499 18.852C25.5456 18.352 25.118 17.294 25.3499 16.3664Z" fill="#FEFEFE"/>
<path d="M19.8498 8.56914C20.1542 8.64885 20.4441 8.78654 20.7484 8.86625C20.9513 8.92422 21.176 8.95321 21.3861 8.91698C21.3499 9.17786 21.3282 9.43873 21.3282 9.70686C21.3282 10.1199 21.3789 10.5257 21.4731 10.9098C21.0383 10.9605 20.5818 10.7576 20.2122 10.504C19.7629 10.1924 19.3861 9.77932 18.9005 9.51844C18.415 9.26481 17.7701 9.19959 17.3643 9.56917C17.8643 8.7648 18.9223 8.33724 19.8498 8.56914Z" fill="#FEFEFE"/>
<path d="M33.1477 10.8661C32.8433 10.7863 32.5534 10.6487 32.2491 10.569C32.0462 10.511 31.8215 10.482 31.6114 10.5182C31.6476 10.2573 31.6693 9.99647 31.6693 9.72834C31.6693 9.31529 31.6186 8.90947 31.5244 8.5254C31.9592 8.47468 32.4157 8.67758 32.7853 8.93121C33.2346 9.24282 33.6114 9.65587 34.097 9.91675C34.5825 10.1704 35.2274 10.2356 35.6332 9.86603C35.1332 10.6704 34.0752 11.0979 33.1477 10.8661Z" fill="#FEFEFE"/>
<path d="M22.6098 4.20686C22.7764 4.47498 22.8779 4.77934 23.0373 5.05471C23.146 5.23588 23.2765 5.41704 23.4504 5.54023C23.2402 5.69241 23.0373 5.86633 22.8489 6.06199C22.5518 6.3591 22.3054 6.67795 22.0953 7.01129C21.7547 6.73592 21.5663 6.27214 21.4938 5.83009C21.3996 5.29384 21.4213 4.72862 21.2619 4.20686C21.1025 3.6851 20.6894 3.17783 20.1387 3.15609C21.0662 2.9387 22.117 3.38799 22.6098 4.20686Z" fill="#FEFEFE"/>
<path d="M30.3865 15.2288C30.2198 14.9606 30.1184 14.6563 29.959 14.3809C29.8503 14.1997 29.7198 14.0186 29.5459 13.8954C29.7561 13.7432 29.959 13.5693 30.1474 13.3736C30.4445 13.0765 30.6909 12.7577 30.901 12.4243C31.2416 12.6997 31.43 13.1635 31.5025 13.6055C31.5967 14.1418 31.575 14.707 31.7344 15.2288C31.8938 15.7505 32.3069 16.2578 32.8576 16.2795C31.93 16.4969 30.8793 16.0549 30.3865 15.2288Z" fill="#FEFEFE"/>
<path d="M20.9881 13.6052C21.2562 13.4386 21.5606 13.3371 21.836 13.1777C22.0171 13.069 22.1983 12.9386 22.3215 12.7646C22.4737 12.9748 22.6476 13.1777 22.8432 13.3661C23.1403 13.6632 23.4592 13.9096 23.7925 14.1198C23.5172 14.4604 23.0534 14.6488 22.6113 14.7212C22.0751 14.8154 21.5099 14.7937 20.9881 14.9531C20.4663 15.1125 19.9591 15.5256 19.9373 16.0763C19.7199 15.1488 20.1692 14.098 20.9881 13.6052Z" fill="#FEFEFE"/>
<path d="M32.0105 5.83047C31.7424 5.99714 31.438 6.09859 31.1626 6.25802C30.9815 6.36672 30.8003 6.49716 30.6771 6.67108C30.5249 6.46093 30.351 6.25802 30.1554 6.06961C29.8582 5.7725 29.5394 5.52612 29.2061 5.31597C29.4814 4.97538 29.9452 4.78696 30.3872 4.7145C30.9235 4.62029 31.4887 4.64203 32.0105 4.4826C32.5322 4.32318 33.0395 3.91012 33.0612 3.35938C33.2786 4.28694 32.8294 5.3377 32.0105 5.83047Z" fill="#FEFEFE"/>
</svg>
