<svg width="67" height="73" viewBox="0 0 67 73" fill="none" xmlns="http://www.w3.org/2000/svg">
<path d="M10.287 19.7745C9.84189 19.7745 9.48438 19.417 9.48438 18.972V16.8634C9.48438 14.711 11.2354 12.96 13.3878 12.96C15.5401 12.96 17.2912 14.711 17.2912 16.8634C17.2912 17.3084 16.9337 17.6659 16.4886 17.6659C16.0436 17.6659 15.6861 17.3084 15.6861 16.8634C15.6861 15.5939 14.6573 14.5651 13.3878 14.5651C12.1183 14.5651 11.0895 15.5939 11.0895 16.8634V18.972C11.0895 19.417 10.732 19.7745 10.287 19.7745Z" fill="#3A3938"/>
<path d="M1.2124 54.8828L0.957031 54.8244L13.1269 14.1924L13.3896 14.2434L1.2124 54.8828Z" fill="#3A3938"/>
<path d="M25.6977 54.8535C25.6977 54.8535 24.9972 60.508 13.3964 60.508C1.79561 60.508 1.08789 54.8535 1.08789 54.8535H25.6977Z" fill="#FEFEFE"/>
<path d="M25.5658 54.8832L13.126 14.2219L13.3886 14.1636L25.8212 54.8248L25.5658 54.8832Z" fill="#3A3938"/>
<path d="M32.5262 18.8976L16.2705 17.0663V15.1401H51.3356V17.0663L35.0726 18.8976L34.2773 19.8096L36.1159 22.0933L34.8245 22.8229C34.8245 22.8229 34.1241 36.2332 36.2327 42.2525C38.3412 48.2718 38.5674 52.7516 35.255 54.9112C35.255 54.9112 35.0361 57.6473 36.8309 57.8588C38.5455 58.0631 38.3339 59.6245 37.6043 59.9893C37.5678 60.0112 37.5314 60.0185 37.5022 60.0331C37.5022 60.0331 37.5533 60.0842 37.6189 60.1717C37.6043 60.1863 37.5824 60.1936 37.5605 60.2009C36.3275 60.3614 35.0872 60.4344 33.8468 60.4344C33.8104 60.4344 33.7812 60.4344 33.7447 60.4344C32.4898 60.4271 31.2421 60.3322 30.0018 60.1644C29.9945 60.1644 29.9945 60.1644 29.9872 60.1571C30.0456 60.0841 30.0893 60.0404 30.0893 60.0404C30.0383 60.0185 29.9872 59.9966 29.9361 59.9674C29.2503 59.5588 29.0825 58.0631 30.7606 57.8661C32.5554 57.6473 32.3438 54.9185 32.3438 54.9185C29.0241 52.7589 29.2503 48.2791 31.3589 42.2598C33.4674 36.2405 32.767 22.8302 32.767 22.8302L31.4756 22.1006L33.3142 19.8169L32.5262 18.8976Z" fill="#FEFEFE"/>
<path d="M57.6468 72.5537H9.95215C9.95215 72.5537 10.0105 70.6494 20.0718 68.7816C29.1482 67.0962 30.1697 62.6309 30.2791 61.7846C30.2864 61.697 30.2937 61.646 30.2937 61.646C30.2061 61.6095 30.1259 61.5657 30.0529 61.5146C31.2787 61.646 32.5117 61.7116 33.7448 61.7262C33.7812 61.7262 33.8104 61.7262 33.8469 61.7262C35.0362 61.7335 36.2254 61.6898 37.4147 61.5876C37.3782 61.6095 37.3418 61.6241 37.3053 61.6387C37.3053 61.6387 37.3053 61.7116 37.3272 61.8357C37.4731 62.8134 38.6332 67.1254 47.5271 68.7743C57.5884 70.6494 57.6468 72.5537 57.6468 72.5537Z" fill="#FEFEFE"/>
<path d="M57.4134 19.774C57.8585 19.774 58.216 19.4165 58.216 18.9715V16.8629C58.216 14.7105 56.465 12.9595 54.3126 12.9595C52.1603 12.9595 50.4092 14.7105 50.4092 16.8629C50.4092 17.308 50.7667 17.6655 51.2118 17.6655C51.6568 17.6655 52.0143 17.308 52.0143 16.8629C52.0143 15.5934 53.0431 14.5646 54.3126 14.5646C55.5821 14.5646 56.6109 15.5934 56.6109 16.8629V18.9715C56.6109 19.4165 56.9684 19.774 57.4134 19.774Z" fill="#3A3938"/>
<path d="M66.4917 54.8828L66.747 54.8244L54.5771 14.1924L54.3145 14.2434L66.4917 54.8828Z" fill="#3A3938"/>
<path d="M42.0039 54.8535C42.0039 54.8535 42.7043 60.508 54.3052 60.508C65.906 60.508 66.6137 54.8535 66.6137 54.8535H42.0039Z" fill="#FEFEFE"/>
<path d="M42.1382 54.8827L54.578 14.2215L54.3154 14.1631L41.8828 54.8243L42.1382 54.8827Z" fill="#3A3938"/>
<path d="M35.5037 18.84C34.3874 18.913 33.2711 18.9276 32.1548 18.8692C31.9797 18.8619 31.9797 19.11 32.1548 19.1173C33.2711 19.1683 34.3874 19.161 35.5037 19.0881C35.6715 19.0735 35.6715 18.8327 35.5037 18.84Z" fill="#3A3938"/>
<path d="M34.7359 19.7295C34.1085 19.7514 33.481 19.7514 32.8608 19.7368C32.6857 19.7295 32.6857 19.9776 32.8608 19.9849C33.4883 19.9995 34.1158 19.9994 34.7359 19.9776C34.911 19.9776 34.911 19.7295 34.7359 19.7295Z" fill="#3A3938"/>
<path d="M35.0207 22.788C34.1963 22.7807 33.3718 22.7807 32.5473 22.7734C32.3722 22.7734 32.3722 23.0215 32.5473 23.0215C33.3718 23.0288 34.1963 23.0288 35.0207 23.0361C35.1885 23.0361 35.1885 22.7953 35.0207 22.788Z" fill="#3A3938"/>
<path d="M36.1892 22.0218C34.6059 22.0072 33.0154 21.9853 31.4321 21.9707C31.257 21.9707 31.257 22.2188 31.4321 22.2188C33.0154 22.2334 34.6059 22.2552 36.1892 22.2698C36.3643 22.2698 36.3643 22.0218 36.1892 22.0218Z" fill="#3A3938"/>
<path d="M32.1095 53.0214C31.1172 50.9639 30.8545 48.6146 31.3434 46.4112C31.482 45.791 31.679 45.1854 31.9344 44.6017C32 44.4558 31.7374 44.3902 31.679 44.5361C30.7597 46.6738 30.5919 49.0743 31.1902 51.2996C31.358 51.9343 31.5915 52.5472 31.876 53.1382C31.949 53.2841 32.1824 53.1601 32.1095 53.0214Z" fill="#3A3938"/>
<path d="M32.6943 54.1457L32.3004 53.5475C32.2639 53.4891 32.1763 53.4672 32.1179 53.5037C32.0596 53.5402 32.0304 53.6131 32.0669 53.6715C32.1982 53.8685 32.3295 54.0655 32.4609 54.2698C32.4973 54.3281 32.5849 54.35 32.6433 54.3136C32.7016 54.2844 32.7308 54.2041 32.6943 54.1457Z" fill="#3A3938"/>
<path d="M37.4232 61.5873C36.2339 61.6894 35.0447 61.7332 33.8554 61.7259C33.8262 61.7259 33.7897 61.7259 33.7532 61.7259C32.5202 61.7113 31.2871 61.6456 30.0614 61.5143C29.3829 61.0693 29.7915 60.4199 30.003 60.1572C30.003 60.1572 30.0103 60.1645 30.0176 60.1645C31.258 60.3396 32.5056 60.4345 33.7605 60.4418C33.7897 60.4418 33.8262 60.4418 33.8627 60.4418C35.103 60.4418 36.3434 60.3688 37.5764 60.2083C37.5983 60.2083 37.6202 60.1937 37.6348 60.1864C37.8464 60.471 38.2476 61.1568 37.4232 61.5873Z" fill="#3A3938"/>
<path d="M37.6265 60.1795C37.6119 60.1941 37.59 60.2014 37.5681 60.2014C36.3351 60.362 35.0948 60.4349 33.8544 60.4349C33.8252 60.4349 33.7888 60.4349 33.7523 60.4349C32.4973 60.4276 31.2497 60.3328 30.0094 60.1576C30.0021 60.1576 30.0021 60.1577 29.9948 60.1504C29.8926 60.1285 29.8926 60.0263 29.9437 59.968C29.9729 59.9315 30.024 59.9169 30.075 59.9242C31.2862 60.092 32.5192 60.1868 33.745 60.1941C33.7742 60.1941 33.8106 60.1941 33.8471 60.1941C35.0656 60.1941 36.284 60.1212 37.4879 59.968C37.539 59.9607 37.5754 59.9752 37.6046 59.9971C37.6703 60.0482 37.6849 60.1431 37.6265 60.1795Z" fill="#3A3938"/>
<path d="M37.5393 61.8285C37.4664 61.8358 37.4007 61.8431 37.3278 61.8431C36.1677 61.938 35.0076 61.9817 33.8475 61.9744C33.8183 61.9744 33.7819 61.9744 33.7454 61.9744C32.5853 61.9598 31.4252 61.9015 30.2724 61.7847C30.1922 61.7774 30.1119 61.7701 30.0389 61.7628C29.8711 61.7483 29.8711 61.5002 30.0389 61.5148H30.0462C31.272 61.6461 32.505 61.7118 33.7381 61.7264C33.7673 61.7264 33.8038 61.7264 33.8402 61.7264C35.0295 61.7337 36.2188 61.6899 37.408 61.5877C37.4518 61.5877 37.4883 61.5804 37.5321 61.5804C37.7145 61.5658 37.7072 61.8139 37.5393 61.8285Z" fill="#3A3938"/>
<path d="M25.7775 54.8396C22.6766 56.0726 19.4007 56.8606 16.0809 57.167C12.7685 57.4735 9.41231 57.3202 6.15095 56.6782C4.3707 56.328 2.59045 55.8318 1.06556 54.825C0.91964 54.7301 0.788308 54.9636 0.926934 55.0584C2.28401 55.9559 3.85997 56.4666 5.44323 56.8095C7.07756 57.167 8.74107 57.3932 10.4119 57.51C13.7535 57.7361 17.1316 57.488 20.4002 56.7657C22.2608 56.3572 24.0848 55.8027 25.8504 55.0949C26.0037 55.0293 25.938 54.7739 25.7775 54.8396Z" fill="#3A3938"/>
<path d="M66.6078 54.8318C65.4478 55.7585 63.9886 56.1598 62.5439 56.3713C60.9534 56.6048 59.319 56.6851 57.7139 56.7215C54.3139 56.8091 50.8993 56.5829 47.5431 56.043C45.668 55.7439 43.8075 55.3426 41.9689 54.8537C41.8011 54.81 41.7281 55.0653 41.8959 55.1091C45.2303 55.9992 48.6448 56.5756 52.0813 56.8383C53.8032 56.9696 55.5324 57.0207 57.2615 56.9915C58.925 56.9623 60.5959 56.8893 62.2448 56.6705C63.8645 56.4589 65.4915 56.0503 66.7902 55.0143C66.9289 54.9121 66.7392 54.7297 66.6078 54.8318Z" fill="#3A3938"/>
<path d="M61.3812 49.374C60.2503 51.5044 58.0031 52.9563 55.4203 52.9563C51.6993 52.9563 48.6787 49.9358 48.6787 46.2148C48.6787 42.4864 51.6993 39.4731 55.4203 39.4731C57.4194 39.4731 59.2143 40.3414 60.4473 41.7277C59.8928 41.4796 59.2799 41.3409 58.6306 41.3409C56.1499 41.3409 54.1435 43.3474 54.1435 45.8281C54.1435 48.3087 56.1499 50.3152 58.6306 50.3152C59.6666 50.3079 60.6224 49.9577 61.3812 49.374Z" fill="#3A3938"/>
<path d="M13.403 50.1536C15.9738 50.1536 18.0579 48.0695 18.0579 45.4987C18.0579 42.9278 15.9738 40.8438 13.403 40.8438C10.8321 40.8438 8.74805 42.9278 8.74805 45.4987C8.74805 48.0695 10.8321 50.1536 13.403 50.1536Z" fill="#3A3938"/>
<path d="M14.5339 38.9623C14.4609 39.2614 14.3223 39.546 14.242 39.8524C14.1836 40.0567 14.1545 40.2756 14.1909 40.4799C13.9356 40.4434 13.6729 40.4215 13.4103 40.4215C13.0017 40.4215 12.6004 40.4726 12.221 40.5601C12.1699 40.1296 12.3669 39.6773 12.6223 39.3198C12.9287 38.882 13.3373 38.5026 13.5927 38.0284C13.8407 37.5541 13.9064 36.9121 13.5416 36.5181C14.3369 37.0069 14.76 38.0503 14.5339 38.9623Z" fill="#FEFEFE"/>
<path d="M12.2722 52.0505C12.3451 51.7513 12.4838 51.4668 12.564 51.1604C12.6224 50.9561 12.6516 50.7372 12.6151 50.5329C12.8705 50.5694 13.1331 50.5913 13.3958 50.5913C13.8044 50.5913 14.2056 50.5402 14.585 50.4526C14.6361 50.8831 14.4391 51.3355 14.1838 51.693C13.8773 52.1307 13.4687 52.5101 13.2134 52.9844C12.9653 53.4586 12.8996 54.1007 13.2645 54.4947C12.4619 54.0058 12.046 52.9698 12.2722 52.0505Z" fill="#FEFEFE"/>
<path d="M6.85826 44.3746C7.1574 44.4476 7.44195 44.5862 7.74839 44.6665C7.95268 44.7248 8.17155 44.754 8.37584 44.7175C8.33936 44.9729 8.31749 45.2356 8.31749 45.4982C8.31749 45.9068 8.36856 46.3081 8.45611 46.6875C8.02564 46.7385 7.57327 46.5416 7.21577 46.2862C6.778 45.9798 6.39861 45.5712 5.92436 45.3158C5.45012 45.0677 4.80805 45.0021 4.41406 45.3669C4.9029 44.5716 5.94625 44.1484 6.85826 44.3746Z" fill="#FEFEFE"/>
<path d="M19.9465 46.6374C19.6473 46.5644 19.3628 46.4258 19.0564 46.3455C18.8521 46.2872 18.6332 46.258 18.4289 46.2945C18.4654 46.0391 18.4873 45.7764 18.4873 45.5138C18.4873 45.1052 18.4362 44.7039 18.3486 44.3245C18.7791 44.2734 19.2315 44.4704 19.589 44.7258C20.0267 45.0322 20.4061 45.4408 20.8804 45.6962C21.3546 45.9442 21.9967 46.0099 22.3907 45.6451C21.9018 46.4477 20.8585 46.8636 19.9465 46.6374Z" fill="#FEFEFE"/>
<path d="M9.57362 40.0783C9.73413 40.3483 9.83628 40.6402 9.9895 40.9174C10.0916 41.0998 10.2303 41.2749 10.3908 41.3989C10.1865 41.5522 9.9822 41.72 9.79979 41.9097C9.50795 42.2015 9.25987 42.5153 9.06288 42.8436C8.72726 42.5736 8.54487 42.1213 8.46462 41.6835C8.36977 41.1509 8.39163 40.6037 8.23842 40.0856C8.0779 39.5749 7.66933 39.0715 7.13672 39.0496C8.05603 38.838 9.09207 39.2758 9.57362 40.0783Z" fill="#FEFEFE"/>
<path d="M17.2332 50.9342C17.0727 50.6642 16.9705 50.3724 16.8173 50.0951C16.7151 49.9127 16.5765 49.7376 16.416 49.6136C16.6203 49.4604 16.8246 49.2925 17.007 49.1028C17.2988 48.811 17.5469 48.4973 17.7439 48.1689C18.0795 48.4389 18.2619 48.8913 18.3422 49.329C18.437 49.8617 18.4151 50.4088 18.5684 50.9269C18.7289 51.4376 19.1375 51.941 19.6701 51.9629C18.7508 52.1818 17.7147 51.744 17.2332 50.9342Z" fill="#FEFEFE"/>
<path d="M7.97549 49.3367C8.24545 49.1762 8.53729 49.074 8.81454 48.9208C8.99694 48.8187 9.17205 48.68 9.29609 48.5195C9.44931 48.7238 9.61713 48.9281 9.80682 49.1105C10.0987 49.4024 10.4124 49.6504 10.7407 49.8474C10.4708 50.183 10.0184 50.3654 9.58065 50.4457C9.04803 50.5406 8.50082 50.5187 7.9828 50.6719C7.47207 50.8324 6.96863 51.241 6.94674 51.7736C6.72786 50.8543 7.16563 49.8182 7.97549 49.3367Z" fill="#FEFEFE"/>
<path d="M18.8316 41.6835C18.5617 41.844 18.2698 41.9461 17.9926 42.0994C17.8102 42.2015 17.6351 42.3401 17.511 42.5007C17.3578 42.2964 17.19 42.0921 17.0003 41.9097C16.7085 41.6178 16.3947 41.3697 16.0664 41.1728C16.3364 40.8371 16.7887 40.6547 17.2265 40.5745C17.7591 40.4796 18.3063 40.5015 18.8243 40.3483C19.3351 40.1878 19.8385 39.7792 19.8604 39.2466C20.0793 40.1586 19.6342 41.1946 18.8316 41.6835Z" fill="#FEFEFE"/>
<path d="M36.5828 9.99726L38.0421 13.0689L34.9704 11.6024L33.8322 17.162L32.6867 11.6024L29.6151 13.0689L31.0743 9.99726L25.5146 8.85177L31.0743 7.71358L29.6151 4.64192L32.6867 6.10114L33.8322 0.541504L34.9704 6.10114L38.0421 4.64192L36.5828 7.71358L42.1352 8.85177L36.5828 9.99726Z" fill="#3A3938"/>
</svg>
