<svg width="50" height="50" viewBox="0 0 50 50" fill="none" xmlns="http://www.w3.org/2000/svg">
<path d="M35.25 25.7812H16.8594C16.1175 25.7771 15.4073 25.4801 14.8835 24.9548C14.3596 24.4294 14.0645 23.7184 14.0625 22.9766V4.59375C14.0625 3.84918 14.3577 3.13499 14.8835 2.60777C15.4093 2.08055 16.1226 1.78332 16.8672 1.78125H35.25C35.9946 1.78332 36.7079 2.08055 37.2337 2.60777C37.7594 3.13499 38.0547 3.84918 38.0547 4.59375V22.9766C38.0526 23.7198 37.7565 24.432 37.2309 24.9575C36.7054 25.483 35.9932 25.7792 35.25 25.7812ZM16.8594 3.34375C16.5306 3.34786 16.2166 3.48137 15.9856 3.71535C15.7545 3.94932 15.625 4.26492 15.625 4.59375V22.9766C15.627 23.304 15.7575 23.6176 15.9883 23.8499C16.2191 24.0822 16.5319 24.2147 16.8594 24.2188H35.25C35.5802 24.2167 35.8961 24.0841 36.1288 23.8499C36.3616 23.6157 36.4922 23.2989 36.4922 22.9688V4.59375C36.4922 4.26358 36.3616 3.94681 36.1288 3.71262C35.8961 3.47842 35.5802 3.34581 35.25 3.34375H16.8594Z" fill="#965EFB" fill-opacity="0.7"/>
<path d="M35.25 25.7812H16.8594C16.1175 25.7771 15.4073 25.4801 14.8835 24.9548C14.3596 24.4294 14.0645 23.7184 14.0625 22.9766V4.59375C14.0625 3.84918 14.3577 3.13499 14.8835 2.60777C15.4093 2.08055 16.1226 1.78332 16.8672 1.78125H35.25C35.9946 1.78332 36.7079 2.08055 37.2337 2.60777C37.7594 3.13499 38.0547 3.84918 38.0547 4.59375V22.9766C38.0526 23.7198 37.7565 24.432 37.2309 24.9575C36.7054 25.483 35.9932 25.7792 35.25 25.7812ZM16.8594 3.34375C16.5306 3.34786 16.2166 3.48137 15.9856 3.71535C15.7545 3.94932 15.625 4.26492 15.625 4.59375V22.9766C15.627 23.304 15.7575 23.6176 15.9883 23.8499C16.2191 24.0822 16.5319 24.2147 16.8594 24.2188H35.25C35.5802 24.2167 35.8961 24.0841 36.1288 23.8499C36.3616 23.6157 36.4922 23.2989 36.4922 22.9688V4.59375C36.4922 4.26358 36.3616 3.94681 36.1288 3.71262C35.8961 3.47842 35.5802 3.34581 35.25 3.34375H16.8594Z" fill="#707070"/>
<path d="M23.1875 48H4.79687C4.05502 47.9959 3.34483 47.6988 2.82098 47.1735C2.29713 46.6482 2.00205 45.9372 2 45.1953V26.8125C2 26.0679 2.29524 25.3537 2.821 24.8265C3.34676 24.2993 4.06012 24.0021 4.80469 24H23.1875C23.9321 24.0021 24.6454 24.2993 25.1712 24.8265C25.6969 25.3537 25.9922 26.0679 25.9922 26.8125V45.1953C25.9901 45.9385 25.694 46.6507 25.1684 47.1762C24.6429 47.7018 23.9307 47.9979 23.1875 48ZM4.79687 25.5625C4.46807 25.5666 4.15413 25.7001 3.92308 25.9341C3.69202 26.1681 3.56247 26.4837 3.5625 26.8125V45.1953C3.56452 45.5228 3.69497 45.8364 3.92581 46.0687C4.15664 46.301 4.46942 46.4334 4.79687 46.4375H23.1875C23.5177 46.4354 23.8336 46.3028 24.0663 46.0686C24.2991 45.8344 24.4297 45.5177 24.4297 45.1875V26.8125C24.4297 26.4823 24.2991 26.1656 24.0663 25.9314C23.8336 25.6972 23.5177 25.5646 23.1875 25.5625H4.79687Z" fill="#707070"/>
<path d="M45.4844 48.0078H27.1016C26.3556 48.0078 25.6403 47.7115 25.1128 47.184C24.5854 46.6566 24.2891 45.9412 24.2891 45.1953V26.8125C24.2891 26.0666 24.5854 25.3512 25.1128 24.8238C25.6403 24.2963 26.3556 24 27.1016 24H45.4844C46.2289 24.0021 46.9423 24.2993 47.4681 24.8265C47.9938 25.3537 48.2891 26.0679 48.2891 26.8125V45.1953C48.2891 45.9399 47.9938 46.6541 47.4681 47.1813C46.9423 47.7085 46.2289 48.0057 45.4844 48.0078ZM27.1016 25.5703C26.77 25.5703 26.4521 25.702 26.2177 25.9364C25.9833 26.1708 25.8516 26.4888 25.8516 26.8203V45.1953C25.8516 45.3595 25.8839 45.522 25.9467 45.6737C26.0095 45.8253 26.1016 45.9631 26.2177 46.0792C26.3338 46.1953 26.4715 46.2873 26.6232 46.3502C26.7749 46.413 26.9374 46.4453 27.1016 46.4453H45.4844C45.8145 46.4432 46.1305 46.3106 46.3632 46.0764C46.5959 45.8422 46.7266 45.5255 46.7266 45.1953V26.8125C46.7245 26.4837 46.593 26.1689 46.3605 25.9364C46.128 25.7039 45.8132 25.5724 45.4844 25.5703H27.1016Z" fill="#707070"/>
<path d="M28.375 22.7031H24.1016C23.3189 22.7108 22.56 22.4338 21.9664 21.9235C21.3728 21.4133 20.9849 20.7046 20.875 19.9296C20.7971 19.1976 20.9801 18.4616 21.3917 17.8513C21.8033 17.2411 22.4172 16.7957 23.125 16.5937V13.7031C22.3167 13.5831 21.5875 13.1512 21.0938 12.4999C20.6622 11.8761 20.4655 11.1196 20.5384 10.3646C20.6114 9.60951 20.9493 8.90467 21.4922 8.37495L24.0391 5.7812C24.5742 5.25263 25.282 4.93477 26.0325 4.88598C26.7831 4.83719 27.526 5.06073 28.125 5.51557C28.514 5.82681 28.8262 6.22329 29.0375 6.67438C29.2488 7.12547 29.3536 7.6191 29.3438 8.11713V16.5937C30.0517 16.7957 30.6655 17.2411 31.0771 17.8513C31.4888 18.4616 31.6717 19.1976 31.5938 19.9296C31.4857 20.704 31.0994 21.4125 30.507 21.9229C29.9147 22.4333 29.1569 22.7106 28.375 22.7031ZM26.2344 6.42963C25.8234 6.43344 25.4304 6.59904 25.1407 6.89057L22.586 9.43745C22.3047 9.70157 22.1261 10.0568 22.0818 10.44C22.0375 10.8233 22.1303 11.2098 22.3438 11.5312C22.4829 11.7219 22.6634 11.8787 22.8718 11.9896C23.0802 12.1006 23.311 12.1629 23.5469 12.1718C23.8557 12.186 24.147 12.3192 24.3597 12.5435C24.5724 12.7678 24.6899 13.0658 24.6875 13.3749V16.8749C24.6917 17.1556 24.5957 17.4286 24.4167 17.6448C24.2377 17.861 23.9875 18.0063 23.711 18.0546C23.3215 18.1236 22.9727 18.3378 22.7349 18.6538C22.4971 18.9699 22.3881 19.3644 22.4297 19.7578C22.4939 20.1515 22.6987 20.5087 23.0061 20.763C23.3135 21.0173 23.7028 21.1514 24.1016 21.1406H28.375C28.7743 21.1531 29.1644 21.0196 29.4722 20.765C29.78 20.5104 29.9843 20.1523 30.0469 19.7578C30.0886 19.3644 29.9795 18.9699 29.7417 18.6538C29.5039 18.3378 29.1551 18.1236 28.7657 18.0546C28.4898 18.0049 28.2405 17.8591 28.0618 17.6432C27.8831 17.4274 27.7865 17.1552 27.7891 16.8749V8.11713C27.7999 7.85958 27.7512 7.603 27.6469 7.36728C27.5426 7.13155 27.3854 6.92299 27.1875 6.75776C26.9148 6.54609 26.5796 6.43071 26.2344 6.42963Z" fill="#965EFB" fill-opacity="0.7"/>
<path d="M17.8827 45.2031H10.9843C10.8516 45.2111 10.7185 45.2111 10.5858 45.2031H10.3749C9.78166 45.0948 9.23079 44.822 8.78504 44.4159C8.3393 44.0097 8.0166 43.4866 7.85374 42.9059C7.69087 42.3253 7.69439 41.7106 7.86388 41.1319C8.03337 40.5532 8.36202 40.0338 8.81238 39.6327L13.8983 34.539C13.9837 34.4527 14.0316 34.3362 14.0316 34.2148C14.0316 34.0934 13.9837 33.9769 13.8983 33.8906C13.8615 33.8389 13.8128 33.7969 13.7564 33.7679C13.7 33.7388 13.6375 33.7237 13.5741 33.7237C13.5107 33.7237 13.4482 33.7388 13.3918 33.7679C13.3354 33.7969 13.2867 33.8389 13.2499 33.8906L12.4218 34.6718C11.8078 35.2378 10.9987 35.5443 10.1638 35.5273C9.32897 35.5104 8.53303 35.1711 7.94257 34.5807C7.35211 33.9902 7.01289 33.1943 6.99591 32.3594C6.97893 31.5246 7.28549 30.7155 7.85144 30.1015L8.69519 29.2577C9.97418 27.9718 11.7068 27.2392 13.5204 27.2175C15.3339 27.1959 17.0835 27.8869 18.3929 29.142C19.7022 30.397 20.4666 32.1159 20.5217 33.9287C20.5767 35.7416 19.9181 37.5036 18.6874 38.8359C19.4484 39.0311 20.1124 39.4968 20.5552 40.1458C20.9981 40.7948 21.1895 41.5828 21.0938 42.3627C20.9981 43.1425 20.6219 43.8609 20.0352 44.3836C19.4486 44.9063 18.6918 45.1976 17.9061 45.2031H17.8827ZM10.6796 43.6406H10.7577C10.8331 43.6456 10.9088 43.6456 10.9843 43.6406H17.8827C18.3261 43.6406 18.7513 43.4644 19.0649 43.1509C19.3784 42.8373 19.5546 42.4121 19.5546 41.9687C19.5546 41.5253 19.3784 41.1 19.0649 40.7865C18.7513 40.4729 18.3261 40.2968 17.8827 40.2968H16.9139C16.7604 40.2962 16.6104 40.2503 16.4827 40.1649C16.3551 40.0795 16.2555 39.9584 16.1963 39.8166C16.1371 39.6749 16.121 39.5189 16.15 39.3681C16.179 39.2173 16.2518 39.0784 16.3593 38.9687L17.3827 37.9452C18.3886 36.9403 18.9542 35.5769 18.9549 34.155C18.9557 32.7331 18.3915 31.3692 17.3866 30.3632C16.3817 29.3573 15.0183 28.7917 13.5964 28.791C12.1745 28.7902 10.8105 29.3544 9.80457 30.3593L8.95301 31.2499C8.70674 31.5717 8.58575 31.972 8.61252 32.3764C8.63929 32.7807 8.81201 33.1616 9.09855 33.4481C9.38509 33.7347 9.76595 33.9074 10.1703 33.9342C10.5746 33.9609 10.9749 33.8399 11.2968 33.5937L12.1483 32.7499C12.5323 32.3949 13.0388 32.2024 13.5616 32.2126C14.0844 32.2229 14.583 32.4351 14.9527 32.8049C15.3225 33.1747 15.5347 33.6732 15.545 34.196C15.5552 34.7188 15.3627 35.2253 15.0077 35.6093L9.89832 40.7031C9.71648 40.8604 9.5702 41.0546 9.46917 41.2728C9.36815 41.491 9.31471 41.7282 9.31238 41.9687C9.31311 42.3566 9.44936 42.7321 9.69757 43.0303C9.94579 43.3284 10.2904 43.5305 10.6718 43.6015L10.6796 43.6406ZM36.2889 45.2031C34.5664 45.201 32.9151 44.5152 31.6978 43.2965C30.4805 42.0777 29.7968 40.4256 29.7968 38.7031C29.7968 37.9178 30.1087 37.1646 30.664 36.6094C31.2193 36.0541 31.9724 35.7421 32.7577 35.7421C32.9732 35.7415 33.1881 35.7651 33.3983 35.8124V35.664C33.3907 35.5548 33.3907 35.4451 33.3983 35.3359C33.3938 35.2813 33.3938 35.2264 33.3983 35.1718C33.3946 35.125 33.3946 35.078 33.3983 35.0312C33.3928 34.9401 33.3928 34.8488 33.3983 34.7577C33.4068 34.6655 33.4225 34.5741 33.4452 34.4843C33.464 34.3963 33.4902 34.3101 33.5233 34.2265C33.5563 34.1252 33.5954 34.0261 33.6405 33.9296C33.6373 33.9011 33.6373 33.8722 33.6405 33.8437L33.9843 33.164H33.1327C32.7305 33.1846 32.3284 33.1233 31.9507 32.9836C31.573 32.8439 31.2277 32.6289 30.9358 32.3515C30.6438 32.0742 30.4113 31.7403 30.2525 31.3703C30.0936 31.0003 30.0117 30.6018 30.0117 30.1991C30.0117 29.7965 30.0936 29.398 30.2525 29.028C30.4113 28.6579 30.6438 28.3241 30.9358 28.0468C31.2277 27.7694 31.573 27.5544 31.9507 27.4147C32.3284 27.275 32.7305 27.2137 33.1327 27.2343H38.8124C39.3187 27.2333 39.8169 27.3621 40.2592 27.6085C40.7015 27.8549 41.0733 28.2106 41.339 28.6416C41.6047 29.0727 41.7554 29.5646 41.7767 30.0705C41.798 30.5764 41.6893 31.0793 41.4608 31.5312L40.3749 33.664C41.4184 34.5084 42.1745 35.6555 42.5392 36.9474C42.9038 38.2393 42.859 39.6125 42.4109 40.8779C41.9628 42.1433 41.1335 43.2387 40.0372 44.0132C38.9408 44.7878 37.6313 45.2035 36.2889 45.2031ZM32.7577 37.3046C32.3868 37.3046 32.0311 37.452 31.7688 37.7142C31.5066 37.9765 31.3593 38.3322 31.3593 38.7031C31.3555 39.5614 31.5756 40.4058 31.9978 41.1531C32.42 41.9005 33.0297 42.5248 33.7668 42.9646C34.5038 43.4044 35.3428 43.6445 36.201 43.6611C37.0592 43.6777 37.9068 43.4704 38.6604 43.0595C39.414 42.6486 40.0474 42.0483 40.4983 41.3179C40.9491 40.5875 41.2017 39.7522 41.2313 38.8944C41.2608 38.0366 41.0662 37.1859 40.6667 36.4263C40.2672 35.6666 39.6765 35.0242 38.953 34.5624C38.8019 34.458 38.6924 34.3036 38.6439 34.1264C38.5953 33.9492 38.6107 33.7606 38.6874 33.5937L40.0624 30.8671C40.169 30.653 40.2199 30.4155 40.2103 30.1765C40.2007 29.9375 40.1311 29.7048 40.0077 29.4999C39.882 29.2962 39.706 29.1281 39.4967 29.0118C39.2874 28.8956 39.0518 28.835 38.8124 28.8359H33.1327C32.9397 28.8215 32.7459 28.847 32.5632 28.911C32.3806 28.9749 32.2132 29.0758 32.0713 29.2075C31.9295 29.3391 31.8164 29.4986 31.739 29.6759C31.6616 29.8533 31.6217 30.0447 31.6217 30.2382C31.6217 30.4317 31.6616 30.6231 31.739 30.8005C31.8164 30.9778 31.9295 31.1373 32.0713 31.2689C32.2132 31.4006 32.3806 31.5015 32.5632 31.5655C32.7459 31.6294 32.9397 31.655 33.1327 31.6406H35.2577C35.3905 31.6403 35.5211 31.6739 35.6373 31.7381C35.7535 31.8024 35.8514 31.8952 35.9218 32.0077C35.9903 32.1265 36.0264 32.2612 36.0264 32.3984C36.0264 32.5355 35.9903 32.6702 35.9218 32.789L35.0233 34.5624V34.6562C35.0233 34.6562 35.0233 34.7265 34.9764 34.7812C34.9741 34.8228 34.9741 34.8645 34.9764 34.9062C34.9764 34.9062 34.9764 34.9687 34.9764 34.9999C34.9764 35.0312 34.9764 35.1406 34.9764 35.1874V35.1562C34.9742 35.177 34.9742 35.1979 34.9764 35.2187C34.9714 35.2733 34.9714 35.3282 34.9764 35.3827C34.972 35.4269 34.972 35.4714 34.9764 35.5156C34.9858 35.5608 34.9989 35.6052 35.0155 35.6484C35.0305 35.6889 35.0488 35.7281 35.0702 35.7656L35.1327 35.8906C35.1542 35.93 35.1804 35.9668 35.2108 35.9999L35.2968 36.1015C35.324 36.1365 35.3555 36.168 35.3905 36.1952L35.4921 36.2812L35.6249 36.3671H35.6874C35.7602 36.4025 35.836 36.4313 35.9139 36.4531H35.9999C36.088 36.4655 36.1774 36.4655 36.2655 36.4531H36.3358C36.7562 36.4608 37.165 36.5926 37.5107 36.8319C37.8564 37.0712 38.1237 37.4074 38.2789 37.7982C38.4341 38.189 38.4704 38.6169 38.3831 39.0283C38.2958 39.4396 38.0889 39.8159 37.7883 40.11C37.4878 40.4041 37.107 40.6027 36.6939 40.681C36.2807 40.7593 35.8537 40.7137 35.4664 40.55C35.0791 40.3863 34.7488 40.1118 34.5171 39.7609C34.2853 39.4101 34.1625 38.9985 34.1639 38.5781C34.1308 38.2286 33.9681 37.9041 33.7079 37.6685C33.4477 37.4328 33.1087 37.303 32.7577 37.3046ZM35.6561 38.0859C35.7035 38.2935 35.7271 38.5058 35.7264 38.7187C35.7264 38.8686 35.7854 39.0125 35.8907 39.1192C35.996 39.2259 36.139 39.2869 36.2889 39.289C36.4402 39.289 36.5853 39.2289 36.6922 39.1219C36.7992 39.015 36.8593 38.8699 36.8593 38.7187C36.8572 38.5688 36.7962 38.4257 36.6895 38.3204C36.5827 38.2152 36.4389 38.1562 36.2889 38.1562H36.1952C36.0136 38.141 35.8334 38.1123 35.6561 38.0702V38.0859Z" fill="#965EFB" fill-opacity="0.7"/>
</svg>
