<svg width="75" height="68" viewBox="0 0 75 68" fill="none" xmlns="http://www.w3.org/2000/svg">
<path d="M18.3304 66.1143C16.375 67.0044 14.1351 67.4203 12.0703 66.8366L12.1068 66.6688C13.1136 66.822 14.2154 66.231 14.6021 65.2753C14.8282 64.7135 14.8209 64.0641 15.142 63.5388C15.5141 62.9186 16.2437 62.6268 16.9514 62.459C17.6518 62.2911 18.396 62.2036 19.0162 61.8242C19.4977 61.5323 19.8771 60.9924 19.8917 60.4525C21.7158 60.7954 23.6492 60.5109 25.3054 59.6646C25.9767 59.7375 26.6552 59.7375 27.3338 59.7229C26.1226 60.6714 24.9042 61.6199 23.693 62.5611C21.993 63.8963 20.2784 65.2315 18.3304 66.1143Z" fill="#FEFEFE"/>
<path d="M21.563 57.8777C21.3806 57.8267 21.1909 57.7683 21.0085 57.7026C19.1553 57.0241 17.6085 55.5795 15.6678 55.2293C13.8729 54.9009 12.0708 55.5649 10.2905 55.9808C8.51759 56.4039 6.44548 56.5207 5.05922 55.3387C4.06695 54.4851 3.65838 53.1572 3.29358 51.9022C2.4983 49.1662 1.71031 46.4374 0.915039 43.7014C1.34551 44.825 2.79013 45.2482 3.9575 44.9709C5.12488 44.6864 6.08067 43.8765 7.01457 43.1177C7.94848 42.3662 8.96994 41.6147 10.1665 41.4761C11.0201 41.3812 11.8738 41.6147 12.6326 42.0306C12.8952 42.1765 13.1506 42.3443 13.3914 42.5267C14.3034 43.2345 15.0184 44.1684 15.7261 45.0804L15.8064 45.0585C16.4703 47.9113 17.6815 50.6546 19.6587 52.8069C21.7527 55.0906 24.7952 56.6228 27.8814 56.5499C26.1523 57.9361 23.7227 58.4541 21.563 57.8777Z" fill="#FEFEFE"/>
<path d="M27.6621 41.1256C27.8372 43.2123 28.2167 45.3939 29.3548 47.1303C28.9536 47.072 28.5304 47.072 28.1364 47.1522C26.8085 45.693 25.1742 44.5183 23.3647 43.7376C22.7737 43.4823 22.1536 43.2561 21.6501 42.8548C21.1467 42.4462 20.7746 41.8115 20.8914 41.1694C20.9935 40.6222 21.424 40.199 21.6064 39.6737C22.1973 37.9372 19.848 36.157 20.5119 34.4424C20.8986 33.4428 22.1171 33.0488 22.7227 32.1806C23.2188 31.4729 23.1969 30.4806 22.7519 29.7583C24.6124 30.4004 26.0205 32.1806 26.6917 34.0849C27.487 36.3248 27.4724 38.7544 27.6621 41.1256Z" fill="#FEFEFE"/>
<path d="M27.8956 56.5491C24.8093 56.622 21.7741 55.0898 19.6729 52.8062C17.6956 50.6611 16.4042 47.9324 15.7403 45.0796C15.0326 44.1603 14.3175 43.2337 13.4055 42.5259C13.1647 42.3435 12.9094 42.1757 12.6467 42.0298C12.2454 40.7165 12.1944 39.3084 12.4935 37.9659C10.2317 36.4994 8.67034 34.1573 7.35704 31.8007C6.08752 29.517 4.97123 27.1311 4.36565 24.5921C3.81845 22.2938 3.709 19.8496 4.29269 17.5659C4.81071 17.493 5.34332 17.4711 5.86135 17.4127C6.83903 17.3033 7.87508 17.0333 8.50984 16.2891C9.67721 14.9175 9.00596 12.6119 10.1369 11.2183C11.1437 9.97801 13.0699 10.0364 14.4051 9.16814C15.2004 8.65012 15.7403 7.81834 16.2364 7.00848C16.7253 6.19861 17.2068 5.35227 17.9364 4.7394C18.666 4.12652 19.7094 3.7909 20.5849 4.163C21.745 4.65913 22.1536 6.12566 23.175 6.86257C24.3789 7.72351 26.1153 7.3587 27.4213 8.06642C28.4793 8.63552 29.063 9.79561 29.4424 10.9265C29.8145 12.0647 30.0552 13.2686 30.6973 14.2754C31.2737 15.1801 32.2805 15.917 33.3239 15.8587C32.2659 17.5878 30.4346 18.7698 28.5668 19.6162C26.4947 20.5647 24.2694 21.214 22.3432 22.4325C18.9287 24.5848 16.7763 28.2693 15.2879 32.0268C14.4343 34.1792 13.6974 36.5796 14.3686 38.7903C15.0544 40.8624 16.6012 42.6646 18.6003 43.5693C20.1544 44.277 21.8909 44.4521 23.5252 44.9555C24.9771 45.4079 26.451 46.2178 27.166 47.5311C27.4651 47.3414 27.8007 47.2173 28.1582 47.1444C28.5522 47.0641 28.9754 47.0641 29.3767 47.1225C29.4351 47.1298 29.5007 47.1444 29.5591 47.159C30.6608 47.3852 31.6166 48.0491 32.5213 48.713C33.426 49.3843 34.3308 50.092 35.3887 50.4568C36.1329 50.7122 36.9355 50.7997 37.6213 51.1718C38.7814 51.8066 39.4088 53.2804 39.0513 54.5572C38.8178 55.3963 38.2269 56.0821 37.6505 56.7461C36.7895 57.731 35.8775 58.7525 34.6518 59.2194C33.82 59.5405 32.908 59.5696 32.0179 59.5915C30.6389 59.628 29.2599 59.6718 27.8737 59.7156C27.6986 59.7229 27.5235 59.7229 27.3411 59.7302C26.6625 59.7448 25.984 59.7448 25.3128 59.6718C25.0063 59.6426 24.7072 59.5988 24.4153 59.5332C23.3282 59.2924 22.263 58.7598 21.5844 57.8697C23.7222 58.4533 26.1518 57.9353 27.8956 56.5491Z" fill="#3A3938"/>
<path d="M21.3664 47.4801C21.1475 47.305 20.8994 47.181 20.6295 47.1299C20.3814 47.0788 20.075 47.0569 19.8634 47.2101C19.6372 47.3707 19.6007 47.6625 19.5861 47.9179C19.5642 48.2243 19.5934 48.5308 19.6737 48.8226C19.7175 48.9831 19.9655 48.9174 19.9218 48.7569C19.8561 48.5089 19.8342 48.2608 19.8415 48.0054C19.8488 47.8303 19.8488 47.5531 20.002 47.429C20.1552 47.305 20.4179 47.3415 20.593 47.378C20.8119 47.4217 21.0162 47.5166 21.1913 47.6625C21.2424 47.7063 21.3226 47.7136 21.3737 47.6625C21.4102 47.6114 21.4175 47.5239 21.3664 47.4801Z" fill="#FEFEFE"/>
<path d="M21.7972 50.6461C21.5492 50.6753 21.3157 50.5513 21.0749 50.5513C20.8487 50.5513 20.6371 50.6534 20.535 50.865C20.4328 51.0693 20.411 51.3101 20.4183 51.5289C20.4256 51.777 20.4912 52.0251 20.5934 52.2513C20.6226 52.3169 20.7101 52.3315 20.7685 52.295C20.8341 52.2585 20.8414 52.1856 20.8122 52.1199C20.7247 51.9375 20.6809 51.7405 20.6663 51.5435C20.659 51.3611 20.6663 51.1568 20.7466 50.9963C20.8268 50.8285 20.9874 50.7993 21.1625 50.8139C21.3741 50.8358 21.5783 50.9234 21.7899 50.9015C21.8556 50.8942 21.9213 50.8504 21.9213 50.7701C21.9286 50.7118 21.8702 50.6388 21.7972 50.6461Z" fill="#FEFEFE"/>
<path d="M24.5615 48.1656C24.2988 48.1728 24.0434 48.078 23.7808 48.0634C23.5619 48.0488 23.3284 48.0999 23.1606 48.2531C22.9855 48.4209 22.9417 48.6836 22.949 48.9171C22.949 49.1797 23.0147 49.4424 23.1168 49.6832C23.146 49.7488 23.2408 49.7634 23.2919 49.7269C23.3576 49.6905 23.3649 49.6175 23.3357 49.5518C23.2482 49.3548 23.2044 49.1359 23.2044 48.9171C23.2044 48.7419 23.219 48.5304 23.3649 48.4136C23.5035 48.3115 23.7005 48.3042 23.861 48.3261C24.0945 48.3553 24.3207 48.4282 24.5541 48.4209C24.722 48.4209 24.7293 48.1656 24.5615 48.1656Z" fill="#FEFEFE"/>
<path d="M24.1977 51.1565C23.9715 51.2076 23.7453 51.1127 23.5191 51.12C23.3221 51.1273 23.1178 51.2003 23.0084 51.3754C22.8989 51.5578 22.9281 51.784 22.9646 51.981C23.0157 52.2217 23.0886 52.4552 23.1908 52.6814C23.22 52.7471 23.3148 52.7616 23.3659 52.7252C23.4316 52.6887 23.4388 52.6157 23.4097 52.5501C23.3294 52.3604 23.2638 52.1634 23.22 51.9591C23.1908 51.8132 23.1397 51.6162 23.2346 51.4848C23.3221 51.3681 23.4972 51.3608 23.6286 51.3754C23.8401 51.39 24.0444 51.4484 24.256 51.3973C24.4238 51.3681 24.3582 51.12 24.1977 51.1565Z" fill="#FEFEFE"/>
<path d="M26.2994 50.6167C26.0805 50.6094 25.8616 50.6021 25.6428 50.6021C25.5406 50.6021 25.4385 50.624 25.3655 50.6896C25.2926 50.7553 25.2561 50.8501 25.2415 50.945C25.1904 51.3317 25.3071 51.7548 25.5041 52.0905C25.5844 52.2364 25.8106 52.1051 25.723 51.9591C25.5552 51.6746 25.475 51.3536 25.4895 51.0252C25.4895 50.9815 25.4968 50.9158 25.5333 50.8793C25.5771 50.8428 25.6647 50.8574 25.723 50.8574C25.9127 50.8574 26.1097 50.8647 26.2994 50.8647C26.4672 50.8793 26.4672 50.6167 26.2994 50.6167Z" fill="#FEFEFE"/>
<path d="M31.0565 14.8447C29.6338 16.355 27.8535 17.4421 26.0514 18.4417C24.2492 19.4412 22.3887 20.3824 20.7398 21.6374C19.1858 22.8266 17.8287 24.264 16.7124 25.8691C15.5888 27.4888 14.7132 29.2837 14.115 31.1588C13.6115 32.7566 13.3124 34.4274 13.2467 36.1055C12.8965 34.4128 12.9257 32.6618 13.2394 30.9618C13.6407 28.8021 14.4871 26.7665 15.5815 24.8695C16.6978 22.9507 18.0549 21.185 19.4849 19.4923C20.9149 17.7923 22.4106 16.1507 23.8407 14.4507C25.2561 12.758 26.6059 10.9923 27.7076 9.07347C27.8462 8.8327 27.9776 8.58463 28.1089 8.34386C28.1892 8.19794 27.963 8.06661 27.89 8.21253C26.8321 10.2044 25.4969 12.0357 24.0669 13.7795C22.6441 15.5159 21.1338 17.1648 19.6819 18.8721C18.2446 20.5648 16.8583 22.3086 15.6909 24.1983C14.5381 26.0734 13.6188 28.1017 13.13 30.2541C12.6557 32.348 12.5755 34.5515 13.1154 36.6455C13.1227 36.6819 13.1373 36.7111 13.1446 36.7476C12.3493 35.0403 11.9626 33.1652 11.9042 31.2901C11.8313 29.1232 12.1669 26.9708 12.736 24.8841C13.3489 22.6442 14.2025 20.4846 15.0853 18.3468C15.9682 16.2164 16.8729 14.0932 17.5879 11.8971C18.2956 9.73012 18.8283 7.49022 18.9523 5.20654C18.9669 4.92199 18.9742 4.63013 18.9742 4.34558C18.9742 4.17777 18.7188 4.17777 18.7188 4.34558C18.7042 6.67304 18.2373 8.96402 17.5514 11.182C16.8656 13.4073 15.9682 15.5597 15.0781 17.7048C14.1879 19.8425 13.3124 21.9949 12.6557 24.2202C12.0429 26.3142 11.6416 28.4811 11.6343 30.67C11.6343 32.7275 11.9845 34.8068 12.8308 36.6892C11.1819 34.2523 10.5034 31.2755 10.321 28.3644C10.0948 24.7528 10.5618 21.1412 10.5618 17.5297C10.5618 15.5451 10.4158 13.5533 9.94159 11.6271C9.90511 11.4666 9.65705 11.5323 9.69353 11.6928C10.5472 15.2241 10.3064 18.8794 10.124 22.4691C9.94889 25.9275 9.83216 29.4661 10.7952 32.8296C11.1528 34.0699 11.6489 35.2592 12.3201 36.3609C10.7879 34.588 9.48923 32.618 8.47507 30.5094C7.23473 27.9266 6.3957 25.1395 6.03089 22.294C5.8266 20.6962 5.76822 19.0837 5.85577 17.4713C5.86306 17.3035 5.6077 17.3035 5.6004 17.4713C5.43259 20.3679 5.76092 23.2936 6.5416 26.088C7.32229 28.8824 8.54073 31.5601 10.1605 33.9678C11.0652 35.3103 12.0939 36.5798 13.2248 37.7326C13.2467 37.7545 13.5313 37.8274 13.524 37.6961C13.524 37.6304 13.5386 37.1708 13.5094 37.0759C13.4875 35.3176 13.7137 33.5592 14.1879 31.8665C14.7133 29.9768 15.5231 28.1747 16.5884 26.5257C17.6536 24.8841 18.9669 23.403 20.4845 22.17C22.0677 20.8786 23.8845 19.9228 25.672 18.9451C27.445 17.9747 29.2252 16.9606 30.7063 15.567C30.896 15.3919 31.0784 15.2095 31.2535 15.0198C31.3557 14.9031 31.1733 14.7207 31.0565 14.8447Z" fill="#FEFEFE"/>
<path d="M26.6128 59.2272C24.4167 60.3581 22.0309 61.1023 19.5867 61.4306C19.4262 61.4525 19.4918 61.7006 19.6523 61.6787C21.6442 61.4087 23.585 60.8615 25.4309 60.0662C23.1472 61.6349 20.5279 62.6928 17.7919 63.1452C16.9382 63.2838 16.0773 63.3641 15.209 63.3787C15.0412 63.386 15.0412 63.6414 15.209 63.6341C18.3172 63.5684 21.3961 62.7147 24.103 61.1972C24.4386 61.0075 24.7596 60.8105 25.0807 60.6062C24.1686 61.3796 23.2129 62.1092 22.2133 62.7658C20.6592 63.7946 18.9884 64.7431 17.2373 65.3851C16.2305 65.7572 15.1798 66.0126 14.1073 66.0564C13.9395 66.0637 13.9395 66.319 14.1073 66.3117C16.0554 66.2388 17.8867 65.4873 19.594 64.6044C21.2721 63.7362 22.8626 62.7074 24.3437 61.5474C25.1901 60.8834 26 60.1757 26.7661 59.4315C26.8755 59.322 26.7369 59.1615 26.6128 59.2272Z" fill="#3A3938"/>
<path d="M28.8226 47.1005C28.7058 46.9108 28.3848 46.298 28.3337 46.2177C27.502 44.5177 27.1372 42.6207 26.838 40.7602C26.4805 38.5349 26.1741 36.2658 25.1964 34.2156C24.7076 33.1941 24.0582 32.2383 23.2046 31.4795C23.0805 31.3701 22.8981 31.5525 23.0222 31.6619C24.5762 33.0555 25.4153 35.04 25.8968 37.0392C26.444 39.2937 26.5972 41.6211 27.1955 43.8683C27.2393 44.0216 27.2831 44.1675 27.3269 44.3207C26.7869 43.1752 26.32 41.9932 25.8166 40.8332C25.0724 39.1259 24.2187 37.4405 22.9711 36.0323C22.2999 35.2808 21.5265 34.6242 20.6363 34.1353C20.4904 34.0551 20.3591 34.2813 20.505 34.3542C22.0883 35.2225 23.2775 36.6306 24.1895 38.1555C25.2037 39.8482 25.8895 41.7014 26.6775 43.5035C27.0569 44.3645 27.4582 45.2108 27.9251 46.028C26.4878 44.3791 24.8827 42.8688 23.1316 41.5409C22.5406 41.0885 21.9277 40.6581 21.3003 40.2495C21.1617 40.1619 21.0303 40.3808 21.169 40.4684C23.3651 41.9057 25.3715 43.613 27.1518 45.5464C27.6552 46.0937 28.144 46.6628 28.611 47.2464C28.7131 47.3705 28.9028 47.2173 28.8226 47.1005Z" fill="#3A3938"/>
<path d="M32.9893 49.2379C32.1284 48.158 30.8808 47.3628 29.5237 47.0709C28.816 46.9177 28.0353 46.9396 27.4078 47.3482C26.8241 47.7276 26.5469 48.3696 26.5469 49.0555C26.5469 49.4932 26.6563 49.931 26.7949 50.3469C26.9117 50.7044 27.0284 51.1203 27.3203 51.3829C27.4443 51.4924 27.6267 51.31 27.5027 51.2005C27.2546 50.9816 27.1597 50.6387 27.0576 50.3396C26.9409 49.9967 26.8387 49.6392 26.8095 49.2744C26.7585 48.6177 26.9628 47.9538 27.5319 47.5817C28.1082 47.2096 28.8232 47.195 29.4726 47.3409C30.0928 47.4795 30.6911 47.7276 31.231 48.0559C31.8292 48.4207 32.3546 48.8877 32.7923 49.4349C32.9091 49.5516 33.0915 49.3692 32.9893 49.2379Z" fill="#FEFEFE"/>
<path d="M17.004 47.6325C16.4495 46.7277 15.7491 45.9106 14.9246 45.232C14.0929 44.5389 13.1298 43.9552 12.0938 43.6269C11.5539 43.4591 10.9775 43.3642 10.4011 43.3934C9.83197 43.4299 9.29205 43.5831 8.77403 43.8093C7.7015 44.2835 6.7968 45.0496 5.84831 45.7209C4.76848 46.4797 3.51354 47.1582 2.14187 46.9831C1.98136 46.9612 1.98136 47.2166 2.14187 47.2385C4.54959 47.5449 6.28605 45.502 8.17574 44.4003C9.17531 43.8166 10.2843 43.4883 11.4444 43.7217C12.5242 43.9333 13.5311 44.4878 14.3993 45.1445C15.3478 45.8595 16.1577 46.7496 16.7779 47.7638C16.8727 47.9024 17.0916 47.7784 17.004 47.6325Z" fill="#3A3938"/>
<path d="M18.6171 50.9383C17.26 49.1799 15.4725 47.6624 13.3128 47.0203C12.1892 46.6847 10.9854 46.5898 9.82528 46.8014C8.6506 47.013 7.63645 47.5894 6.65877 48.2533C6.10426 48.6327 5.54977 49.034 4.95879 49.3623C4.3605 49.6907 3.6163 49.9241 2.97424 49.5812C2.82832 49.501 2.69697 49.7271 2.8429 49.8001C3.93731 50.3838 5.0974 49.6177 5.99482 49.0121C6.9725 48.3555 7.9283 47.6259 9.0592 47.2538C11.3137 46.5168 13.7725 47.137 15.6841 48.4503C16.7274 49.1653 17.6248 50.0701 18.3909 51.0623C18.493 51.1937 18.7192 51.0696 18.6171 50.9383Z" fill="#3A3938"/>
<path d="M34.3596 52.6752C34.8915 52.6752 35.3227 52.244 35.3227 51.7121C35.3227 51.1802 34.8915 50.749 34.3596 50.749C33.8277 50.749 33.3965 51.1802 33.3965 51.7121C33.3965 52.244 33.8277 52.6752 34.3596 52.6752Z" fill="#FEFEFE"/>
<path d="M57.4692 1.55042C59.4246 0.660294 61.6645 0.244423 63.7293 0.828111L63.6928 0.995908C62.686 0.842689 61.5842 1.43368 61.1975 2.38947C60.9714 2.95127 60.9787 3.60062 60.6576 4.12594C60.2855 4.74611 59.5559 5.03797 58.8482 5.20578C58.1478 5.37359 57.4036 5.46114 56.7834 5.84053C56.3019 6.13238 55.9225 6.67229 55.9079 7.2122C54.0838 6.86929 52.1504 7.15383 50.4941 8.00017C49.8229 7.92721 49.1444 7.92722 48.4658 7.94182C49.677 6.99332 50.8954 6.04482 52.1066 5.10362C53.8066 3.77573 55.5139 2.44054 57.4692 1.55042Z" fill="#3A3938"/>
<path d="M54.2305 9.79483C54.4129 9.8459 54.6026 9.90429 54.785 9.96995C56.6382 10.6485 58.185 12.0931 60.1258 12.4433C61.9206 12.7716 63.7228 12.1077 65.503 11.6845C67.276 11.2613 69.3481 11.1446 70.7343 12.3266C71.7266 13.1802 72.1352 14.5081 72.5 15.763C73.2953 18.4991 74.0832 21.2278 74.8785 23.9639C74.448 22.8403 73.0034 22.4171 71.836 22.6943C70.6687 22.9789 69.7129 23.7888 68.779 24.5476C67.8451 25.3064 66.8236 26.0506 65.6271 26.1892C64.7734 26.284 63.9198 26.0506 63.161 25.6347C62.8983 25.4888 62.6429 25.3209 62.4022 25.1385C61.4902 24.4308 60.7751 23.4969 60.0674 22.5849L59.9872 22.6068C59.3232 19.754 58.1121 17.0107 56.1348 14.8583C54.0408 12.5746 50.9984 11.0425 47.9121 11.1154C49.6486 9.72916 52.0782 9.21844 54.2305 9.79483Z" fill="#3A3938"/>
<path d="M48.1312 26.5471C47.9561 24.4604 47.5767 22.2789 46.4385 20.5424C46.8398 20.6008 47.2629 20.6008 47.6569 20.5205C48.9848 21.9797 50.6192 23.1544 52.4286 23.9351C53.0196 24.1904 53.6397 24.4166 54.1432 24.8179C54.6466 25.2265 55.0187 25.8612 54.902 26.5033C54.7998 27.0505 54.3694 27.4737 54.187 27.999C53.596 29.7355 55.9453 31.5157 55.2814 33.2303C54.8947 34.2299 53.6762 34.6239 53.0707 35.4921C52.5745 36.1998 52.5964 37.1921 53.0415 37.9144C51.181 37.2724 49.7728 35.4921 49.1016 33.5878C48.3136 31.3479 48.3282 28.9183 48.1312 26.5471Z" fill="#3A3938"/>
<path d="M47.9044 11.1228C50.9907 11.0498 54.0258 12.582 56.1271 14.8657C58.1044 17.0108 59.3958 19.7395 60.0597 22.5923C60.7674 23.5116 61.4825 24.4382 62.3945 25.1459C62.6353 25.3283 62.8906 25.4961 63.1533 25.6421C63.5545 26.9554 63.6056 28.3635 63.3065 29.706C65.5683 31.1725 67.1296 33.5146 68.4429 35.8712C69.7125 38.1549 70.8288 40.5407 71.4343 43.0797C71.9816 45.378 72.091 47.8222 71.5073 50.1059C70.9893 50.1789 70.4567 50.2008 69.9387 50.2591C68.961 50.3686 67.9249 50.6385 67.2902 51.3827C66.1228 52.7544 66.794 55.06 65.6631 56.4535C64.6563 57.6939 62.7301 57.6355 61.3949 58.5037C60.5996 59.0217 60.0597 59.8535 59.5636 60.6634C59.0747 61.4732 58.5932 62.3196 57.8636 62.9325C57.134 63.5453 56.0906 63.8809 55.2151 63.5088C54.055 63.0127 53.6464 61.5462 52.625 60.8093C51.4211 59.9484 49.6846 60.3132 48.3786 59.6054C47.3207 59.0363 46.737 57.8763 46.3576 56.7454C45.9855 55.6072 45.7448 54.4033 45.1027 53.3965C44.5263 52.4917 43.5194 51.7548 42.4761 51.8132C43.534 50.084 45.3654 48.902 47.2332 48.0557C49.3053 47.1072 51.5306 46.4579 53.4568 45.2394C56.8713 43.0871 59.0237 39.4025 60.5121 35.645C61.3657 33.4927 62.1026 31.0922 61.4314 28.8815C60.7456 26.8094 59.1988 25.0073 57.1996 24.1026C55.6456 23.3949 53.9091 23.2198 52.2748 22.7163C50.8228 22.264 49.349 21.4541 48.634 20.1408C48.3349 20.3305 47.9993 20.4545 47.6418 20.5275C47.2478 20.6078 46.8246 20.6078 46.4233 20.5494C46.3649 20.5421 46.2993 20.5275 46.2409 20.5129C45.1392 20.2867 44.1834 19.6228 43.2787 18.9588C42.374 18.2876 41.4692 17.5799 40.4113 17.2151C39.6671 16.9597 38.8645 16.8721 38.1787 16.5C37.0186 15.8653 36.3911 14.3915 36.7486 13.1146C36.9821 12.2756 37.5731 11.5898 38.1495 10.9258C39.0104 9.94084 39.9225 8.91937 41.1482 8.45242C41.98 8.13139 42.892 8.1022 43.7821 8.08031C45.1611 8.04383 46.54 8.00007 47.9263 7.95629C48.1014 7.949 48.2765 7.94901 48.4589 7.94171C49.1375 7.92712 49.816 7.92711 50.4872 8.00007C50.7937 8.02925 51.0928 8.07303 51.3846 8.1387C52.4718 8.37947 53.537 8.91208 54.2155 9.80221C52.0778 9.21852 49.6482 9.72924 47.9044 11.1228Z" fill="#FEFEFE"/>
<path d="M54.4338 20.1913C54.6527 20.3664 54.9007 20.4904 55.1707 20.5415C55.4188 20.5926 55.7252 20.6145 55.9368 20.4612C56.163 20.3007 56.1995 20.0089 56.2141 19.7535C56.2359 19.4471 56.2067 19.1407 56.1265 18.8488C56.0827 18.6883 55.8346 18.754 55.8784 18.9145C55.9441 19.1625 55.966 19.4106 55.9587 19.666C55.9514 19.8411 55.9514 20.1183 55.7982 20.2424C55.645 20.3664 55.3823 20.3299 55.2072 20.2934C54.9883 20.2497 54.784 20.1548 54.6089 20.0089C54.5578 19.9651 54.4776 19.9578 54.4265 20.0089C54.39 20.0527 54.3754 20.1475 54.4338 20.1913Z" fill="#3A3938"/>
<path d="M54.0045 17.0254C54.2526 16.9962 54.4861 17.1203 54.7269 17.1203C54.953 17.1203 55.1646 17.0181 55.2668 16.8065C55.3689 16.6022 55.3908 16.3615 55.3835 16.1426C55.3762 15.8945 55.3105 15.6464 55.2084 15.4203C55.1792 15.3546 55.0916 15.34 55.0333 15.3765C54.9676 15.413 54.9603 15.4859 54.9895 15.5516C55.0771 15.734 55.1208 15.931 55.1354 16.128C55.1427 16.3104 55.1354 16.5147 55.0552 16.6752C54.9749 16.843 54.8144 16.8722 54.6393 16.8576C54.4277 16.8357 54.2234 16.7481 54.0118 16.77C53.9462 16.7773 53.8805 16.8211 53.8805 16.9014C53.8732 16.9597 53.9316 17.0327 54.0045 17.0254Z" fill="#3A3938"/>
<path d="M51.2382 19.4989C51.5009 19.4916 51.7563 19.5864 52.0189 19.601C52.2378 19.6156 52.4713 19.5645 52.6391 19.4113C52.8142 19.2435 52.858 18.9809 52.8507 18.7474C52.8507 18.4847 52.785 18.2221 52.6829 17.9813C52.6537 17.9156 52.5588 17.901 52.5078 17.9375C52.4421 17.974 52.4348 18.0469 52.464 18.1126C52.5515 18.3096 52.5953 18.5285 52.5953 18.7474C52.5953 18.9225 52.5807 19.1341 52.4348 19.2508C52.2962 19.353 52.0992 19.3603 51.9387 19.3384C51.7052 19.3092 51.479 19.2362 51.2455 19.2435C51.0704 19.2508 51.0704 19.5062 51.2382 19.4989Z" fill="#3A3938"/>
<path d="M51.6029 16.514C51.8291 16.4629 52.0552 16.5578 52.2814 16.5505C52.4784 16.5432 52.6827 16.4702 52.7922 16.2951C52.9016 16.1127 52.8724 15.8865 52.8359 15.6895C52.7849 15.4488 52.7119 15.2153 52.6098 14.9891C52.5806 14.9234 52.4857 14.9088 52.4346 14.9453C52.369 14.9818 52.3617 15.0548 52.3909 15.1204C52.4711 15.3101 52.5368 15.5071 52.5806 15.7114C52.6097 15.8574 52.6608 16.0543 52.566 16.1857C52.4784 16.3024 52.3033 16.3097 52.172 16.2951C51.9604 16.2805 51.7561 16.2221 51.5445 16.2732C51.3767 16.3024 51.4424 16.5505 51.6029 16.514Z" fill="#3A3938"/>
<path d="M49.4944 17.054C49.7133 17.0613 49.9322 17.0686 50.1511 17.0686C50.2532 17.0686 50.3553 17.0467 50.4283 16.9811C50.5013 16.9154 50.5378 16.8205 50.5524 16.7257C50.6034 16.339 50.4867 15.9158 50.2897 15.5802C50.2094 15.4343 49.9833 15.5656 50.0708 15.7115C50.2386 15.9961 50.3189 16.3171 50.3043 16.6454C50.3043 16.6892 50.297 16.7549 50.2605 16.7914C50.2167 16.8278 50.1292 16.8132 50.0708 16.8132C49.8811 16.8132 49.6841 16.806 49.4944 16.806C49.3339 16.7914 49.3339 17.0467 49.4944 17.054Z" fill="#3A3938"/>
<path d="M44.7445 52.8273C46.1673 51.317 47.9475 50.2299 49.7497 49.2303C51.5518 48.2307 53.4123 47.2895 55.0612 46.0346C56.6153 44.8453 57.9724 43.408 59.0887 41.8029C60.2123 40.1831 61.0878 38.3883 61.6861 36.5132C62.1895 34.9153 62.4887 33.2445 62.5543 31.5664C62.9046 33.2591 62.8754 35.0102 62.5616 36.7102C62.1603 38.8698 61.314 40.9055 60.2196 42.8024C59.1033 44.7213 57.7462 46.487 56.3162 48.1797C54.8861 49.8797 53.3904 51.5213 51.9604 53.2213C50.5449 54.914 49.1952 56.6796 48.0935 58.5985C47.9548 58.8393 47.8235 59.0874 47.6922 59.3281C47.6119 59.474 47.8381 59.6054 47.9111 59.4594C48.969 57.4676 50.3042 55.6363 51.7342 53.8925C53.157 52.156 54.6673 50.5071 56.1192 48.7998C57.5565 47.1071 58.9428 45.3634 60.1101 43.4737C61.2629 41.5986 62.1822 39.5703 62.6711 37.4179C63.1453 35.3239 63.2256 33.1205 62.6857 31.0265C62.6784 30.99 62.6638 30.9609 62.6565 30.9244C63.4518 32.6317 63.8385 34.5068 63.8968 36.3819C63.9698 38.5488 63.6342 40.7012 63.0651 42.7878C62.4522 45.0277 61.5985 47.1874 60.7157 49.3251C59.8329 51.4556 58.9282 53.5788 58.2132 55.7749C57.5054 57.9419 56.9728 60.1818 56.8488 62.4654C56.8342 62.75 56.8269 63.0418 56.8269 63.3264C56.8269 63.4942 57.0823 63.4942 57.0823 63.3264C57.0969 60.9989 57.5638 58.7079 58.2496 56.4899C58.9355 54.2646 59.8329 52.1123 60.723 49.9672C61.6131 47.8294 62.4887 45.6771 63.1453 43.4518C63.7582 41.3578 64.1595 39.1909 64.1668 37.002C64.1668 34.9445 63.8166 32.8651 62.9702 30.9827C64.6191 33.4196 65.2977 36.3965 65.4801 39.3076C65.7063 42.9192 65.2393 46.5308 65.2393 50.1423C65.2393 52.1269 65.3852 54.1187 65.8595 56.0449C65.896 56.2054 66.144 56.1397 66.1076 55.9792C65.2539 52.4479 65.4947 48.7925 65.6771 45.2028C65.8522 41.7445 65.9689 38.2059 65.0058 34.8424C64.6483 33.6021 64.1522 32.4128 63.4809 31.3111C65.0131 33.084 66.3118 35.054 67.326 37.1625C68.5663 39.7454 69.4054 42.5325 69.7702 45.378C69.9745 46.9758 70.0328 48.5882 69.9453 50.2007C69.938 50.3685 70.1934 50.3685 70.2007 50.2007C70.3685 47.3041 70.0401 44.3784 69.2595 41.584C68.4788 38.7896 67.2603 36.1119 65.6406 33.7042C64.7359 32.3617 63.7071 31.0922 62.5762 29.9394C62.5543 29.9175 62.2698 29.8445 62.2771 29.9759C62.2771 30.0415 62.2625 30.5012 62.2917 30.596C62.3136 32.3544 62.0874 34.1128 61.6131 35.8055C61.0878 37.6951 60.278 39.4973 59.2127 41.1462C58.1475 42.7878 56.8342 44.2689 55.3166 45.502C53.7333 46.7934 51.9166 47.7492 50.1291 48.7269C48.3561 49.6973 46.5759 50.7114 45.0947 52.105C44.905 52.2801 44.7226 52.4625 44.5475 52.6522C44.4454 52.7689 44.6278 52.9513 44.7445 52.8273Z" fill="#3A3938"/>
<path d="M49.188 8.44502C51.3842 7.31412 53.77 6.56993 56.2142 6.2416C56.3747 6.21972 56.309 5.97165 56.1485 5.99354C54.1567 6.26349 52.2159 6.8107 50.37 7.60597C52.6537 6.03731 55.273 4.97937 58.009 4.52701C58.8627 4.38839 59.7236 4.30815 60.5919 4.29355C60.7597 4.28626 60.7597 4.03089 60.5919 4.03819C57.4837 4.10385 54.4048 4.95749 51.6979 6.47508C51.3623 6.66478 51.0413 6.86178 50.7202 7.06607C51.6322 6.29268 52.588 5.56308 53.5876 4.90643C55.1417 3.87767 56.8125 2.92918 58.5635 2.28713C59.5704 1.91502 60.621 1.65965 61.6936 1.61587C61.8614 1.60858 61.8614 1.35321 61.6936 1.3605C59.7455 1.43347 57.9142 2.18496 56.2069 3.06779C54.5288 3.93603 52.9382 4.96478 51.4571 6.12486C50.6108 6.78881 49.8009 7.49653 49.0348 8.24073C48.9254 8.35017 49.064 8.51068 49.188 8.44502Z" fill="#FEFEFE"/>
<path d="M46.9689 20.5715C47.0857 20.7612 47.4067 21.3741 47.4578 21.4543C48.2895 23.1543 48.6543 25.0513 48.9535 26.9118C49.311 29.1372 49.6174 31.4062 50.5951 33.4564C51.0839 34.4779 51.7333 35.4337 52.5869 36.1925C52.711 36.3019 52.8934 36.1195 52.7693 36.0101C51.2153 34.6165 50.3762 32.632 49.8947 30.6328C49.3475 28.3783 49.1943 26.0509 48.596 23.8037C48.5522 23.6505 48.5084 23.5046 48.4646 23.3513C49.0045 24.4968 49.4715 25.6788 49.9749 26.8389C50.7191 28.5462 51.5728 30.2316 52.8204 31.6397C53.4916 32.3912 54.265 33.0479 55.1552 33.5367C55.3011 33.617 55.4324 33.3908 55.2865 33.3178C53.7032 32.4496 52.514 31.0414 51.602 29.5165C50.5878 27.8238 49.902 25.9706 49.114 24.1685C48.7346 23.3076 48.3333 22.4612 47.8664 21.644C49.3037 23.293 50.9088 24.8033 52.6599 26.1312C53.2509 26.5835 53.8638 27.014 54.4912 27.4226C54.6298 27.5101 54.7612 27.2912 54.6225 27.2037C52.4264 25.7663 50.42 24.059 48.6397 22.1256C48.1363 21.5784 47.6475 21.0093 47.1805 20.4256C47.0784 20.3016 46.896 20.4475 46.9689 20.5715Z" fill="#FEFEFE"/>
<path d="M42.8122 18.4269C43.6731 19.5067 44.9208 20.302 46.2778 20.5938C46.9856 20.747 47.7663 20.7251 48.3937 20.3165C48.9774 19.9371 49.2547 19.2951 49.2547 18.6093C49.2547 18.1715 49.1452 17.7337 49.0066 17.3178C48.8899 16.9603 48.7731 16.5445 48.4813 16.2818C48.3572 16.1724 48.1748 16.3548 48.2989 16.4642C48.5469 16.6831 48.6418 17.026 48.7439 17.3251C48.8607 17.668 48.9628 18.0256 48.992 18.3904C49.0431 19.047 48.8388 19.711 48.2697 20.0831C47.6933 20.4552 46.9783 20.4697 46.3289 20.3238C45.7087 20.1852 45.1105 19.9371 44.5706 19.6088C43.9723 19.244 43.447 18.777 43.0092 18.2298C42.8925 18.1204 42.71 18.3028 42.8122 18.4269Z" fill="#3A3938"/>
<path d="M58.7903 20.0387C59.3448 20.9434 60.0452 21.7606 60.8697 22.4391C61.7014 23.1322 62.6645 23.7159 63.7006 24.0442C64.2405 24.212 64.8169 24.3069 65.3933 24.2777C65.9624 24.2412 66.5023 24.088 67.0203 23.8618C68.0928 23.3876 68.9975 22.6215 69.946 21.9503C71.0259 21.1915 72.2808 20.5129 73.6525 20.688C73.813 20.7099 73.813 20.4546 73.6525 20.4327C71.2448 20.1262 69.5083 22.1691 67.6186 23.2708C66.619 23.8545 65.51 24.1829 64.3499 23.9494C63.2701 23.7378 62.2632 23.1833 61.395 22.5267C60.4465 21.8116 59.6366 20.9215 59.0165 19.9074C58.9289 19.7614 58.7027 19.8928 58.7903 20.0387Z" fill="#FEFEFE"/>
<path d="M57.1776 16.7337C58.5347 18.4921 60.3222 20.0096 62.4819 20.6517C63.6055 20.9873 64.8093 21.0822 65.9694 20.8706C67.1441 20.659 68.1582 20.0826 69.1359 19.4187C69.6904 19.0393 70.2449 18.638 70.8359 18.3097C71.4342 17.9813 72.1784 17.7478 72.8204 18.0908C72.9664 18.171 73.0977 17.9449 72.9518 17.8719C71.8574 17.2882 70.6973 18.0543 69.7999 18.6599C68.8222 19.3165 67.8664 20.0461 66.7355 20.4182C64.481 21.1551 62.0222 20.535 60.1106 19.2217C59.0673 18.5067 58.1699 17.6019 57.4038 16.6097C57.3016 16.4783 57.0827 16.6024 57.1776 16.7337Z" fill="#FEFEFE"/>
<path d="M41.4387 16.9233C41.9706 16.9233 42.4017 16.4921 42.4017 15.9602C42.4017 15.4283 41.9706 14.9971 41.4387 14.9971C40.9068 14.9971 40.4756 15.4283 40.4756 15.9602C40.4756 16.4921 40.9068 16.9233 41.4387 16.9233Z" fill="#3A3938"/>
</svg>
