<svg width="74" height="77" viewBox="0 0 74 77" fill="none" xmlns="http://www.w3.org/2000/svg">
<path d="M47.7866 33.5099C47.7866 32.5177 47.6553 31.5546 47.4145 30.6426C48.9978 32.8387 49.9244 35.5309 49.9244 38.4421C49.9244 45.8185 43.9416 51.8013 36.5652 51.8013C29.1889 51.8013 23.2061 45.8185 23.2061 38.4421C23.2061 35.5309 24.1327 32.8387 25.7159 30.6426C25.4751 31.5546 25.3438 32.5177 25.3438 33.5099C25.3438 39.7043 30.3708 44.7314 36.5652 44.7314C42.7596 44.7314 47.7866 39.7043 47.7866 33.5099Z" fill="#FEFEFE"/>
<path d="M36.2148 23.0412V62.5132H36.908V23.0412H36.2148Z" fill="#3A3938"/>
<path d="M36.564 23.4999L32.5146 25.8127L36.564 16.2476L41.4524 25.8127L36.564 23.4999Z" fill="#FEFEFE"/>
<path d="M36.5641 61.6885L32.1719 65.5846V76.4923L36.5641 72.3408L40.9564 76.4923V65.4752L36.5641 61.6885Z" fill="#FEFEFE"/>
<path d="M36.5212 40.9384C39.6401 40.9384 42.1684 38.4101 42.1684 35.2912C42.1684 32.1724 39.6401 29.644 36.5212 29.644C33.4024 29.644 30.874 32.1724 30.874 35.2912C30.874 38.4101 33.4024 40.9384 36.5212 40.9384Z" fill="#3A3938"/>
<path d="M29.3991 25.7036C30.3841 26.4989 32.5802 27.5933 36.5128 26.3967L36.6149 28.2353C36.6149 28.2353 32.9815 28.0602 31.0407 29.9718C30.0484 30.9422 28.4944 31.1027 27.3343 30.3293C26.9257 30.0594 26.5171 29.7383 26.1231 29.3589C25.4811 28.7315 24.5691 28.4469 23.6789 28.5637C22.9201 28.6585 22.0738 28.819 21.5849 29.0598L21.0742 26.8929C21.0742 26.8929 23.9197 25.2293 27.5094 25.0615C28.2025 25.0323 28.8665 25.2658 29.3991 25.7036Z" fill="#3A3938"/>
<path d="M21.5936 29.06L21.0829 26.8931C21.0829 26.8931 13.3782 30.0012 10.1971 33.6055C7.01596 37.2098 2.14946 36.8522 0.296245 34.7729C0.296245 34.7729 -0.192596 36.7063 3.09065 37.4651C6.3739 38.2239 11.4885 37.6329 12.7945 34.999C14.1661 32.2557 21.5936 29.06 21.5936 29.06Z" fill="#FEFEFE"/>
<path d="M43.8975 25.7036C42.9125 26.4989 40.7164 27.5933 36.7838 26.3967L36.6816 28.2353C36.6816 28.2353 40.3151 28.0602 42.2559 29.9718C43.2481 30.9422 44.8022 31.1027 45.9623 30.3293C46.3709 30.0594 46.7795 29.7383 47.1734 29.3589C47.8155 28.7315 48.7275 28.4469 49.6176 28.5637C50.3764 28.6585 51.2228 28.819 51.7116 29.0598L52.2224 26.8929C52.2224 26.8929 49.3769 25.2293 45.7872 25.0615C45.0941 25.0323 44.4301 25.2658 43.8975 25.7036Z" fill="#3A3938"/>
<path d="M51.7041 29.06L52.2148 26.8931C52.2148 26.8931 59.9195 30.0012 63.1006 33.6055C66.2817 37.2098 71.1482 36.8522 73.0014 34.7729C73.0014 34.7729 73.4903 36.7063 70.207 37.4651C66.9311 38.2312 61.8092 37.6329 60.5032 34.999C59.1388 32.2557 51.7041 29.06 51.7041 29.06Z" fill="#FEFEFE"/>
<path d="M36.767 61.6299V64.2273C38.3794 65.4385 39.9627 66.7299 41.4657 68.0651C41.5168 68.1161 41.5459 68.1745 41.5459 68.2402C41.5459 68.2986 41.5241 68.3569 41.4876 68.4007C41.3927 68.5102 41.2322 68.5174 41.1301 68.4226C39.7219 67.175 38.2627 65.9711 36.7743 64.8475V66.8247C38.4743 68.2183 40.0211 69.5097 41.5314 70.8157C41.5824 70.8668 41.6116 70.9252 41.6116 70.9908C41.6116 71.0054 41.6116 71.02 41.6116 71.0346C41.5897 71.1221 41.5241 71.1951 41.4365 71.2243C41.349 71.2535 41.2541 71.2389 41.1884 71.1732C39.7438 69.9256 38.2627 68.678 36.7743 67.4595V69.59L41.203 73.6685C41.2541 73.7196 41.2833 73.7779 41.2833 73.8436C41.2833 73.902 41.2614 73.9603 41.2176 74.0114C41.1228 74.1208 40.9623 74.1281 40.8601 74.0333L36.7743 70.2758V72.3552C36.7743 72.4938 36.6649 72.6033 36.5262 72.6033C36.3876 72.6033 36.2782 72.5011 36.2782 72.3552V70.1882L32.0975 74.0406C31.9953 74.1354 31.8348 74.1281 31.74 74.0187C31.6451 73.9166 31.6524 73.7706 31.7546 73.6758L36.2636 69.5243C36.2709 69.517 36.2782 69.517 36.2855 69.5097V67.3865C34.7679 68.6269 33.2503 69.9037 31.7692 71.1805C31.6524 71.2827 31.4919 71.2462 31.4044 71.1513C31.3168 71.0492 31.3241 70.9033 31.4263 70.8157C33.0022 69.4586 34.6074 68.1089 36.2125 66.8029C36.2271 66.7591 36.249 66.7299 36.2855 66.7007V64.7745C34.7606 65.9273 33.2649 67.1531 31.8275 68.4299C31.7181 68.5247 31.5649 68.5101 31.4627 68.408C31.3752 68.3058 31.3825 68.1599 31.4846 68.0651C33.0168 66.7007 34.6292 65.3874 36.2782 64.1471V61.6299C36.2782 61.4913 36.3876 61.3818 36.5262 61.3818C36.6576 61.3818 36.767 61.4913 36.767 61.6299Z" fill="#3A3938"/>
<path d="M66.7174 35.5682L66.4475 36.1008C66.5496 35.933 66.6518 35.7725 66.7539 35.612C66.8342 35.4952 66.9874 35.4587 67.1114 35.539C67.1187 35.539 67.1187 35.5463 67.1187 35.5463C67.1552 35.5098 67.2063 35.4879 67.2574 35.4733C67.3887 35.4514 67.5054 35.5317 67.5273 35.663C67.6513 36.4145 67.8264 37.1587 68.038 37.8883C68.038 37.9029 68.0453 37.9102 68.0453 37.9248L71.2702 35.2909C71.3942 35.1888 71.5548 35.2326 71.635 35.3347C71.6715 35.3785 71.6934 35.4368 71.6934 35.4879C71.6934 35.5609 71.6642 35.6192 71.6058 35.6703L38.248 62.9067C38.1751 62.965 38.0802 62.9797 38 62.9505C37.9124 62.9213 37.8467 62.841 37.8321 62.7535C37.8249 62.6732 37.854 62.5929 37.9197 62.5419L67.7243 38.2094C67.644 38.1875 67.5857 38.1291 67.5638 38.0415C67.3741 37.3849 67.2136 36.7064 67.0895 36.0278C66.6445 36.7428 66.338 37.3338 66.0754 37.9394C66.0462 38.0197 65.9732 38.0634 65.9003 38.078C65.8273 38.0999 65.7398 38.0926 65.6814 38.0489C65.5501 37.9613 65.5428 37.757 65.6595 37.6622C65.7325 37.5016 65.8054 37.3338 65.8857 37.1733L65.426 37.9613C65.3531 38.0853 65.2071 38.1145 65.0831 38.0415C64.9664 37.9686 64.9226 37.8227 64.9956 37.7059C65.4552 36.9398 65.893 36.1446 66.2797 35.342C66.3162 35.2617 66.3891 35.2107 66.4694 35.2107C66.5569 35.2034 66.6518 35.2544 66.7028 35.3274C66.732 35.3712 66.7466 35.4149 66.7466 35.466C66.7466 35.4952 66.7393 35.5317 66.7174 35.5682Z" fill="#3A3938"/>
<path d="M65.9151 35.2026C66.0026 35.2026 66.0975 35.2464 66.1412 35.3267C66.1631 35.3631 66.1777 35.4069 66.1777 35.4507C66.1777 35.4872 66.1704 35.531 66.1485 35.5674C65.74 36.3189 65.2949 37.0558 64.8279 37.7636C64.7769 37.8438 64.6966 37.8803 64.6018 37.873C64.5142 37.8657 64.4194 37.8146 64.3829 37.7344C64.3391 37.6614 64.3537 37.5739 64.3975 37.5009C64.8644 36.8005 65.3095 36.0636 65.7108 35.3194C65.7545 35.2464 65.8275 35.2026 65.9151 35.2026Z" fill="#3A3938"/>
<path d="M7.25507 35.232C7.31344 35.2028 7.3718 35.1955 7.43017 35.2028C7.49584 35.2174 7.55421 35.2612 7.59069 35.3269C7.99197 36.0711 8.42974 36.8007 8.90399 37.5011C8.93317 37.5449 8.94776 37.5886 8.94776 37.6324C8.94776 37.6689 8.94047 37.7054 8.92587 37.7346C8.88939 37.8148 8.80184 37.8732 8.70699 37.8732C8.61944 37.8805 8.53189 37.8367 8.48081 37.7637C8.00657 37.056 7.5688 36.3191 7.15292 35.5676C7.13103 35.5312 7.12374 35.4874 7.12374 35.4509C7.11644 35.3633 7.16751 35.2831 7.25507 35.232Z" fill="#3A3938"/>
<path d="M35.2936 62.9505C35.2061 62.9869 35.1112 62.9723 35.0382 62.9067L1.68773 35.6703C1.58558 35.5828 1.56369 35.4441 1.65125 35.342C1.7315 35.2398 1.89202 35.1961 2.02335 35.2982L5.24823 37.9321C5.24823 37.9248 5.25552 37.9102 5.25552 37.9029C5.46711 37.1733 5.63492 36.4218 5.76625 35.6776C5.78814 35.5463 5.90488 35.466 6.03621 35.4879C6.08728 35.4952 6.13835 35.5244 6.17484 35.5609L6.18213 35.5536C6.30616 35.4733 6.45938 35.5025 6.53234 35.6265C6.64179 35.7871 6.74393 35.9476 6.83878 36.1154C6.75123 35.9403 6.65638 35.7579 6.56882 35.5828C6.53234 35.5025 6.53234 35.4077 6.58342 35.3274C6.63449 35.2544 6.72934 35.2034 6.81689 35.2107C6.90444 35.218 6.97011 35.2617 7.00659 35.342C7.40058 36.1446 7.83105 36.9398 8.298 37.7059C8.31989 37.7497 8.33448 37.7935 8.33448 37.8373C8.33448 37.9175 8.29071 37.9978 8.21045 38.0489C8.08641 38.1218 7.94049 38.0926 7.86753 37.9686C7.71431 37.7205 7.56839 37.4652 7.42247 37.2025C7.49543 37.3557 7.56839 37.5162 7.63406 37.6694C7.68513 37.7132 7.71431 37.7789 7.71431 37.8518C7.71431 37.9321 7.67783 38.0124 7.60487 38.0561C7.53921 38.0999 7.45165 38.1072 7.37869 38.0853C7.29843 38.0707 7.24007 38.027 7.20359 37.9467C6.91904 37.2827 6.57612 36.6407 6.18943 36.0351C6.06539 36.7137 5.91217 37.3922 5.72247 38.0489C5.70059 38.1291 5.63492 38.1948 5.56196 38.2166L35.3593 62.5492C35.4176 62.5929 35.4468 62.6586 35.4468 62.7316C35.4468 62.7389 35.4468 62.7535 35.4468 62.7681C35.4395 62.841 35.3739 62.9213 35.2936 62.9505Z" fill="#3A3938"/>
<path d="M36.6743 -0.0078125L38.0971 6.93807L41.9348 5.11405L40.1108 8.95181L47.0567 10.3745L40.1108 11.7973L41.9348 15.635L38.0971 13.811L36.6743 20.7569L35.2516 13.811L31.4139 15.635L33.2379 11.7973L26.292 10.3745L33.2379 8.95181L31.4139 5.11405L35.2516 6.93807L36.6743 -0.0078125Z" fill="#3A3938"/>
</svg>
