<svg width="51" height="73" viewBox="0 0 51 73" fill="none" xmlns="http://www.w3.org/2000/svg">
<path d="M26.4234 62.8755C25.5843 63.036 24.6577 62.8244 24.0667 62.175C23.4831 61.533 23.308 60.6137 23.3444 59.7673C23.4247 58.06 24.4097 56.433 25.8835 55.572C26.0294 55.4845 26.168 55.718 26.0221 55.8055C26.0148 55.8128 26.0075 55.8128 26.0002 55.8201C26.1535 55.769 26.3067 55.7326 26.4745 55.7107C27.2843 55.6231 28.0869 56.0025 28.6268 56.5862C29.2251 57.2283 29.4805 58.1038 29.4294 58.972C29.3418 60.6574 28.1672 62.5471 26.4234 62.8755Z" fill="#FEFEFE"/>
<path d="M26.1985 65.2319C25.9285 66.2095 25.447 67.1288 24.7903 67.8949C24.2212 68.5589 23.4405 69.2155 22.5139 69.2228C21.6019 69.2301 20.8431 68.5224 20.5659 67.6834C20.2521 66.7349 20.5075 65.6842 20.9161 64.8014C21.4268 63.6997 22.2732 62.7658 23.3019 62.1237C23.6302 61.8538 23.9805 61.6203 24.3526 61.4525C24.7684 61.2628 25.25 61.1679 25.6658 61.3941C26.0234 61.5911 26.2276 61.9778 26.3298 62.3645C26.4465 62.8023 26.4538 63.2765 26.4319 63.7289C26.4101 64.2396 26.3298 64.743 26.1985 65.2319Z" fill="#FEFEFE"/>
<path d="M22.374 69.9381C22.0165 70.3759 21.6225 70.7772 21.192 71.1493C19.689 72.4261 17.3324 73.6518 15.4135 72.5136C14.6328 72.0467 14.1075 71.1493 14.2242 70.2227C14.3556 69.1428 15.3186 68.5519 16.2307 68.136C17.7118 67.4574 19.3461 67.1364 20.9731 67.1729C21.4693 67.1437 22.0311 67.1072 22.4834 67.3626C22.8847 67.5961 23.0671 68.0557 23.0452 68.5008C23.016 69.0553 22.7096 69.5295 22.374 69.9381Z" fill="#FEFEFE"/>
<path d="M14.6846 72.6016C12.8606 73.1342 10.9053 72.4192 9.42415 71.3467C8.66536 70.7922 7.69497 69.9458 8.0014 68.8806C8.29325 67.8883 9.60655 67.6986 10.4894 67.6549C11.5765 67.6038 12.6636 67.8373 13.6413 68.3115C13.8821 68.3991 14.1155 68.5012 14.3417 68.6106C14.7576 68.8149 15.1443 69.063 15.5018 69.3476C15.8812 69.6467 16.2606 70.0188 16.3555 70.5149C16.443 70.96 16.2898 71.4342 16.0125 71.7845C15.6769 72.2003 15.1881 72.4557 14.6846 72.6016Z" fill="#FEFEFE"/>
<path d="M9.40936 69.8363C9.06645 70.0843 8.6068 70.1135 8.21281 69.9968C7.76045 69.8655 7.35917 69.5809 7.00166 69.2818C6.68063 69.0191 6.38877 68.7127 6.12611 68.3917C5.51324 67.6256 5.08278 66.7281 4.8566 65.7723C4.76904 65.5243 4.69609 65.2762 4.63042 65.0281C4.55016 64.7144 4.4772 64.3788 4.49179 64.0578C3.9227 63.6346 3.41198 63.102 3.1785 62.4234C2.96692 61.8251 3.00339 61.1685 3.3536 60.6286C3.68193 60.1397 4.25831 59.8479 4.8493 59.9646C5.12655 60.0157 5.38921 60.1543 5.57891 60.3732C5.79779 60.6286 5.89265 60.9715 5.98021 61.2925C6.13342 61.8324 6.29393 62.3797 6.45445 62.9196C7.00166 63.1166 7.49049 63.547 7.88448 63.9483C9.08834 65.1813 9.82525 66.874 9.87632 68.6032C9.87632 69.0629 9.81794 69.5517 9.40936 69.8363Z" fill="#FEFEFE"/>
<path d="M26.5401 63.0143C25.9564 62.1679 24.9788 61.6499 23.95 61.6499C23.7749 61.6499 23.7822 61.9199 23.9573 61.9199C24.8839 61.9272 25.7813 62.3941 26.314 63.1529C26.4015 63.2915 26.635 63.1529 26.5401 63.0143Z" fill="#3A3938"/>
<path d="M7.42403 57.8632C7.00085 58.8262 6.24206 59.6361 5.26439 60.052C4.33778 60.4387 3.30173 60.3949 2.43349 59.8915C1.60903 59.4099 1.01075 58.5636 0.930496 57.6005C0.850239 56.652 1.22963 55.6598 1.97383 55.0542C2.34594 54.7477 2.7983 54.5653 3.21418 54.31C3.33092 54.2224 3.44037 54.1276 3.54251 54.0108C3.77599 53.7482 3.95838 53.4271 4.05323 53.0842C4.25022 52.3838 4.04593 51.5812 3.49872 51.0924C2.9661 50.6181 2.17084 50.5306 1.55067 50.8735C1.44852 50.9319 1.33179 50.8005 1.37557 50.6984C1.47042 50.4868 1.59445 50.2898 1.76226 50.1293C2.52106 49.3705 3.67382 49.3632 4.61502 49.7645C5.55622 50.1658 6.33691 50.91 6.87682 51.7709C7.96394 53.522 8.27038 55.9443 7.42403 57.8632Z" fill="#3A3938"/>
<path d="M23.4972 21.901C23.3002 22.0907 23.1105 22.3096 22.9573 22.5358C22.5779 23.0903 22.3152 23.7032 22.1255 24.3452C21.8847 24.4328 21.6294 24.5057 21.374 24.5349C20.8049 24.5933 20.1774 24.4401 19.8272 23.995C19.6594 23.7761 19.5646 23.5208 19.5135 23.2435C19.4843 23.0611 19.4697 22.8714 19.4697 22.689C19.477 22.1637 19.5573 21.6457 19.7251 21.1568C19.7616 21.0474 19.8053 20.9233 19.8783 20.8285C19.9294 20.7409 20.0023 20.668 20.0899 20.6169C20.3453 20.4783 20.659 20.6023 20.9216 20.7191C21.7753 21.1131 22.6362 21.507 23.4972 21.901Z" fill="#3A3938"/>
<path d="M13.1589 25.9426C11.3422 26.4607 9.33579 26.3002 7.62121 25.4903C5.86284 24.6585 4.4328 23.1409 3.6959 21.3315C2.96628 19.5221 2.9371 17.4427 3.62293 15.6187H3.64482C3.68859 15.9689 3.78344 16.3118 3.91477 16.6328V16.6401C4.21391 17.3405 4.70276 17.968 5.29375 18.4495C5.67314 18.7633 6.09632 19.0113 6.54868 19.2229C7.13237 19.4929 7.75983 19.6753 8.39459 19.792C9.11691 19.9234 9.88299 19.989 10.4886 20.4049C11.065 20.8062 11.4079 21.4701 11.6049 22.1414C11.8019 22.8126 11.8821 23.5203 12.0791 24.1989C12.1302 24.3886 12.1958 24.571 12.2761 24.7534C12.4585 25.1839 12.7066 25.5778 13.0641 25.877C13.1079 25.8916 13.1298 25.9208 13.1589 25.9426Z" fill="#3A3938"/>
<path d="M19.7175 21.1564C19.557 21.6526 19.4694 22.1706 19.4621 22.6886C19.4621 22.871 19.4694 23.0607 19.5059 23.2431C17.5724 24.5126 15.3836 25.4028 13.1072 25.8405L13.078 25.8697C12.7278 25.5779 12.4724 25.1766 12.29 24.7461C12.4433 24.25 12.83 23.8414 13.2312 23.4912C15.0553 21.886 17.4411 20.9302 19.8707 20.8208C19.7977 20.9229 19.754 21.047 19.7175 21.1564Z" fill="#FEFEFE"/>
<path d="M18.302 4.36083C17.0106 5.50632 15.2522 6.07541 14.0921 7.36682C13.3187 8.22777 12.8883 9.32218 12.4286 10.3874C12.3775 10.5042 12.3264 10.6209 12.2754 10.7376C11.7792 11.8612 11.1226 12.9994 10.0647 13.6196C10.0719 13.6488 10.0865 13.6853 10.0938 13.7217C10.4076 14.8818 10.2252 16.1659 9.59771 17.1801C8.93377 18.2526 7.79556 19.0114 6.55523 19.2084L6.54795 19.2157C6.10288 19.0041 5.67971 18.7561 5.29301 18.4423C4.70203 17.9608 4.20588 17.3333 3.91404 16.6329V16.6256C3.71704 15.9543 3.86297 15.1956 4.23507 14.5973C4.64365 13.9333 5.3149 13.4591 6.04451 13.1818C6.67198 12.9411 7.35051 12.8316 8.02175 12.7951C8.88269 10.9346 9.47369 8.9136 10.7432 7.30845C12.5016 5.07585 15.5076 3.90118 18.302 4.36083Z" fill="#FEFEFE"/>
<path d="M18.4565 6.67408C18.3324 6.97322 18.1792 7.25777 18.0187 7.54232C16.3114 10.5191 13.4076 12.7809 10.1024 13.7148C10.0951 13.6856 10.0878 13.6492 10.0732 13.6127C11.1312 12.9925 11.7805 11.8543 12.284 10.7307C12.335 10.614 12.3861 10.4972 12.4372 10.3805C14.4728 9.49038 16.2895 8.126 17.7123 6.41872C17.8071 6.30198 17.9093 6.17795 18.0406 6.11228C18.1792 6.04662 18.3616 6.05392 18.4565 6.16336C18.5732 6.30928 18.5221 6.50627 18.4565 6.67408Z" fill="#3A3938"/>
<path d="M33.0035 40.1851C33.0035 40.6448 32.9963 41.1117 32.9671 41.5787C32.916 42.4542 32.8211 43.3224 32.6606 44.1907C32.3907 45.6864 31.9456 47.1456 31.289 48.4954C31.0774 48.9331 30.8439 49.3563 30.5885 49.7722C30.501 49.9181 30.4061 50.064 30.3113 50.2027C30.625 52.4864 30.1508 54.8722 29.0053 56.864L24.2409 56.8494C23.0881 54.8503 22.6212 52.4645 22.9276 50.1808C22.8328 50.0422 22.7379 49.8962 22.6504 49.7503C22.395 49.3417 22.1615 48.9113 21.9499 48.4735C21.2933 47.1164 20.8482 45.6572 20.5783 44.1615C20.4178 43.3006 20.3156 42.4323 20.2718 41.5568C20.2427 41.0898 20.2354 40.6229 20.2354 40.1632C20.2426 38.9521 20.3302 37.7482 20.4761 36.5517C20.6221 35.3697 20.8191 34.195 21.0452 33.0203C21.286 31.7727 21.556 30.5397 21.8259 29.3066L21.8478 29.2993C22.1105 29.759 22.4461 30.1749 22.8255 30.5251C23.898 31.5173 25.2843 32.0864 26.6413 32.6336C27.9838 32.0937 29.3555 31.5173 30.4207 30.5397C30.8001 30.1895 31.143 29.7663 31.4057 29.3139L31.4276 29.3212C31.6975 30.5542 31.9675 31.7946 32.2083 33.0422C32.4344 34.2169 32.6314 35.3916 32.7774 36.5662C32.9087 37.7701 32.9962 38.974 33.0035 40.1851Z" fill="#3A3938"/>
<path d="M18.8933 55.3311C16.989 55.0904 15.2379 53.8209 14.4208 52.0771C14.3478 51.9239 14.2895 51.7488 14.3697 51.6028C14.4719 51.4131 14.7199 51.4204 14.9388 51.4788C14.9826 51.4861 15.0264 51.508 15.0701 51.5226C16.4345 52.0625 17.8062 53.1277 18.689 54.3097C18.6744 54.3973 18.6598 54.4848 18.6452 54.5724C18.616 54.8204 18.6088 55.1123 18.8057 55.2728C18.8349 55.302 18.8641 55.3166 18.8933 55.3311Z" fill="#3A3938"/>
<path d="M14.8583 41.9946C14.6103 42.8628 14.1433 43.6654 13.5085 44.3147C13.2897 44.2564 13.0416 44.2491 12.9395 44.4388C13.1802 43.4319 13.6618 42.3594 14.4716 41.7027C14.5592 41.6298 14.6759 41.5568 14.7781 41.6079C14.9094 41.6663 14.8948 41.856 14.8583 41.9946Z" fill="#3A3938"/>
<path d="M16.2802 49.166C16.0321 50.0342 15.5652 50.8368 14.9304 51.4861C14.7115 51.4278 14.4635 51.4205 14.3613 51.6102C14.6021 50.596 15.0836 49.5308 15.8935 48.8741C15.9811 48.8012 16.0978 48.7282 16.2072 48.7793C16.3313 48.8376 16.3167 49.0273 16.2802 49.166Z" fill="#3A3938"/>
<path d="M14.4277 35.1572C14.1796 36.0254 13.7126 36.828 13.0779 37.4773C12.859 37.419 12.6109 37.4117 12.5088 37.6014C12.7496 36.5945 13.2311 35.522 14.041 34.8653C14.1285 34.7924 14.2453 34.7194 14.3547 34.7705C14.4787 34.8289 14.4641 35.0186 14.4277 35.1572Z" fill="#3A3938"/>
<path d="M15.5654 28.0297C15.3173 28.898 14.8503 29.7005 14.2156 30.3499C13.9967 30.2915 13.7486 30.2842 13.6465 30.4739C13.8873 29.4671 14.3688 28.3945 15.1787 27.7379C15.2662 27.6649 15.383 27.592 15.4851 27.643C15.6164 27.6941 15.6018 27.8838 15.5654 28.0297Z" fill="#3A3938"/>
<path d="M20.565 44.1692C19.9813 45.4898 19.3028 46.752 18.3251 47.8026C18.0989 48.0434 17.7414 48.2842 17.4642 48.1601C17.4642 48.1601 17.4642 48.1601 17.4569 48.1601C17.4277 48.1455 17.3985 48.131 17.3693 48.1091C17.1723 47.9558 17.1796 47.6567 17.2088 47.4086C17.2161 47.3211 17.238 47.2335 17.2526 47.146C17.6247 45.0593 18.938 43.2644 20.2513 41.5645C20.3096 42.44 20.4045 43.3082 20.565 44.1692Z" fill="#FEFEFE"/>
<path d="M22.6431 49.7573C21.9135 51.6251 21.1182 53.5002 19.7538 54.9667C19.5276 55.2075 19.1701 55.4483 18.8929 55.3242C18.8929 55.3242 18.8929 55.3242 18.8856 55.3242C18.8564 55.3096 18.8272 55.295 18.798 55.2731C18.601 55.1126 18.6083 54.8208 18.6375 54.5727C18.6448 54.4852 18.6667 54.3976 18.6813 54.3101C19.068 52.1358 20.4761 50.2753 21.8405 48.5242L21.9281 48.4805C22.1469 48.9182 22.3877 49.3487 22.6431 49.7573Z" fill="#FEFEFE"/>
<path d="M21.0303 33.0269C20.8041 34.2015 20.6071 35.3762 20.4612 36.5582C19.8119 38.1487 19.0604 39.7101 17.893 40.965C17.6741 41.2058 17.3166 41.4466 17.0394 41.3225C17.0394 41.3225 17.0393 41.3225 17.0321 41.3225C17.0029 41.3079 16.9737 41.2933 16.9445 41.2715C16.7475 41.1182 16.7548 40.8191 16.784 40.5783C16.7986 40.4908 16.8132 40.4032 16.8278 40.3084C17.2874 38.0174 19.6659 34.7779 21.0303 33.0269Z" fill="#FEFEFE"/>
<path d="M21.7322 29.1095C21.0464 30.8094 20.2803 32.4948 19.0399 33.8373C18.8138 34.0781 18.4563 34.3189 18.179 34.1948H18.1717C18.1425 34.1803 18.1133 34.1657 18.0842 34.1438C17.8872 33.9905 17.8945 33.6914 17.9236 33.4506C17.9382 33.3631 17.9528 33.2682 17.9674 33.1807C18.3614 31.0137 19.9301 28.8395 21.2798 27.103C21.2361 27.7816 21.4039 28.4747 21.7322 29.1095Z" fill="#FEFEFE"/>
<path d="M12.5604 38.0688C12.4875 37.9156 12.4291 37.7405 12.5094 37.5945C12.6115 37.4048 12.8596 37.4121 13.0785 37.4705C13.1222 37.4778 13.166 37.4997 13.2098 37.5143C14.5742 38.0615 15.9458 39.1194 16.8287 40.3014C16.8068 40.3889 16.7995 40.4838 16.7849 40.5714C16.7557 40.8194 16.7484 41.1113 16.9454 41.2645C16.9746 41.2864 17.0038 41.3083 17.033 41.3155C15.1287 41.0821 13.3849 39.8053 12.5604 38.0688Z" fill="#3A3938"/>
<path d="M17.3756 48.1092C17.4048 48.1311 17.434 48.153 17.4632 48.1603C15.5589 47.9195 13.8078 46.65 12.9906 44.9062C12.9177 44.753 12.852 44.5779 12.9323 44.4319C13.0344 44.2422 13.2825 44.2495 13.5014 44.3079C13.5452 44.3152 13.5889 44.3371 13.6327 44.3517C15.0044 44.8916 16.376 45.9568 17.2516 47.1388C17.237 47.2264 17.2224 47.3139 17.2078 47.4015C17.1859 47.6568 17.1786 47.9487 17.3756 48.1092Z" fill="#3A3938"/>
<path d="M13.6981 30.9404C13.6252 30.7871 13.5668 30.612 13.6471 30.4661C13.7492 30.2764 13.9973 30.2837 14.2162 30.3421C14.2599 30.3494 14.3037 30.3713 14.3475 30.3859C15.7192 30.9331 17.0835 31.991 17.9664 33.173C17.9518 33.2605 17.9372 33.3554 17.9226 33.4429C17.8861 33.691 17.8861 33.9828 18.0831 34.1361C18.1123 34.158 18.1415 34.1725 18.1707 34.1871C16.2664 33.9464 14.5226 32.6768 13.6981 30.9404Z" fill="#3A3938"/>
<path d="M31.37 25.4397L31.319 25.4835C30.6842 24.6444 29.6628 24.0753 28.6121 23.9002L24.6066 23.8856C23.5559 24.0608 22.5345 24.6298 21.8997 25.4689L21.8486 25.4251C21.9216 25.0676 22.0091 24.7028 22.1113 24.3453C22.301 23.7032 22.5637 23.0831 22.943 22.5359C23.1036 22.3097 23.286 22.0908 23.483 21.9011C24.0375 21.3685 24.7379 20.9964 25.4967 20.9453L27.7074 20.9599C28.4662 21.011 29.1593 21.3831 29.7138 21.9157C29.9181 22.1054 30.1005 22.3243 30.261 22.5505C30.6404 23.0977 30.9031 23.7178 31.0928 24.3599C31.2168 24.7174 31.2971 25.0749 31.37 25.4397Z" fill="#3A3938"/>
<path d="M31.4944 29.1244C31.4652 29.19 31.4287 29.2557 31.3922 29.314C31.1295 29.7737 30.7939 30.1896 30.4072 30.5398C29.342 31.5175 27.9703 32.0866 26.6278 32.6338C25.2708 32.0866 23.8845 31.5175 22.812 30.5252C22.4326 30.175 22.0897 29.7518 21.8343 29.2995C21.7978 29.2411 21.7613 29.1754 21.7322 29.1098C21.4111 28.475 21.236 27.7819 21.2871 27.096C21.2944 26.9209 21.3236 26.7458 21.3746 26.5707C21.4768 26.1694 21.6665 25.7973 21.9073 25.469C22.542 24.6299 23.5635 24.0608 24.6141 23.8857L28.6197 23.9003C29.6703 24.0754 30.6918 24.6445 31.3265 25.4836C31.5673 25.8119 31.757 26.184 31.8592 26.5853C31.9029 26.7604 31.9321 26.9355 31.9467 27.1106C31.9905 27.7965 31.8154 28.4969 31.4944 29.1244Z" fill="#FEFEFE"/>
<path d="M33.7633 22.711C33.7633 22.8934 33.756 23.0831 33.7195 23.2655C33.6757 23.5355 33.5809 23.7981 33.413 24.0097C33.0555 24.4548 32.4281 24.6153 31.8663 24.5497C31.6036 24.5205 31.3556 24.4475 31.1075 24.36C30.9178 23.7179 30.6551 23.0977 30.2757 22.5505C30.1152 22.3243 29.9328 22.1055 29.7285 21.9158C30.5895 21.5218 31.4504 21.1351 32.3113 20.7411C32.574 20.617 32.8804 20.5003 33.1431 20.6389C33.2306 20.69 33.3036 20.763 33.362 20.8505C33.4276 20.9527 33.4714 21.0694 33.5152 21.1789C33.6757 21.6677 33.756 22.1857 33.7633 22.711Z" fill="#3A3938"/>
<path d="M49.5226 21.3461C48.793 23.1556 47.363 24.6658 45.5973 25.5049C43.89 26.3148 41.8836 26.4826 40.0596 25.9573C40.0888 25.9354 40.1106 25.9135 40.1398 25.8916C40.4973 25.5997 40.7527 25.2058 40.9351 24.768C41.0154 24.5856 41.081 24.3959 41.1321 24.2062C41.3218 23.5277 41.4021 22.8272 41.6063 22.1487C41.8106 21.4775 42.1463 20.8062 42.7299 20.4122C43.3355 19.9963 44.1016 19.9307 44.8239 19.7994C45.4587 19.6826 46.0862 19.4929 46.6698 19.2303C47.1149 19.026 47.5454 18.7706 47.9248 18.4569C48.5158 17.9753 49.0046 17.3551 49.2964 16.6547V16.6474C49.4351 16.3264 49.5299 15.9835 49.5737 15.626H49.5956C50.2741 17.4573 50.2522 19.5367 49.5226 21.3461Z" fill="#3A3938"/>
<path d="M40.9347 24.7686C40.7523 25.1991 40.5042 25.6004 40.1394 25.8922L40.1175 25.863C37.8411 25.418 35.6523 24.5278 33.7188 23.2656C33.748 23.0832 33.7626 22.8935 33.7626 22.7111C33.7626 22.1931 33.6751 21.6678 33.5145 21.1789C33.4781 21.0695 33.427 20.9454 33.3613 20.8506C35.7909 20.96 38.1767 21.9158 40.0008 23.521C40.3948 23.8639 40.7815 24.2725 40.9347 24.7686Z" fill="#FEFEFE"/>
<path d="M49.2962 16.6485V16.6558C48.9971 17.3562 48.5155 17.9764 47.9245 18.458C47.5451 18.7717 47.1147 19.0271 46.6696 19.2314L46.6623 19.2241C45.4219 19.0198 44.2838 18.261 43.6271 17.1957C42.9923 16.1743 42.8173 14.8902 43.1237 13.7301C43.131 13.7009 43.1456 13.6644 43.1529 13.6352C42.0949 13.0224 41.4456 11.8769 40.9421 10.7533C40.8911 10.6365 40.84 10.5198 40.7889 10.4031C40.3293 9.33783 39.8988 8.24341 39.1254 7.38247C37.9726 6.09836 36.207 5.52926 34.9229 4.37648C37.7173 3.91682 40.7233 5.0915 42.4743 7.31681C43.7438 8.92925 44.3348 10.943 45.1958 12.8035C45.867 12.84 46.5456 12.9494 47.173 13.1902C47.9026 13.4747 48.5666 13.949 48.9825 14.6129C49.3546 15.2112 49.4932 15.97 49.2962 16.6485Z" fill="#FEFEFE"/>
<path d="M43.1542 13.6346C43.1469 13.6638 43.1323 13.7003 43.125 13.7295C39.8272 12.7956 36.916 10.5338 35.2087 7.55695C35.0482 7.2797 34.895 6.98785 34.7783 6.68871C34.7126 6.5282 34.6542 6.32391 34.771 6.18528C34.8731 6.06854 35.0555 6.06124 35.1868 6.12691C35.3255 6.19257 35.4203 6.31661 35.5152 6.43334C36.9379 8.14063 38.7546 9.50501 40.7902 10.3951C40.8413 10.5119 40.8924 10.6286 40.9435 10.7453C41.4396 11.8762 42.0962 13.0217 43.1542 13.6346Z" fill="#3A3938"/>
<path d="M35.8496 48.1237C35.8204 48.1456 35.7912 48.1675 35.762 48.1748C35.762 48.1748 35.762 48.1748 35.7547 48.1748C35.4774 48.2988 35.1199 48.058 34.8937 47.8173C33.9234 46.7666 33.2375 45.5044 32.6611 44.1911C32.8216 43.3302 32.9165 42.4546 32.9676 41.5791C34.2809 43.2718 35.5942 45.0739 35.9663 47.1606C35.9809 47.2482 35.9955 47.3357 36.0101 47.4306C36.0392 47.6714 36.0392 47.9705 35.8496 48.1237Z" fill="#FEFEFE"/>
<path d="M34.428 55.2956C34.3989 55.3175 34.3697 55.3321 34.3405 55.3467C34.3405 55.3467 34.3405 55.3467 34.3332 55.3467C34.0559 55.4707 33.6984 55.2299 33.4723 54.9891C32.1152 53.5226 31.3199 51.6402 30.583 49.7724C30.8457 49.3638 31.0718 48.9334 31.2834 48.4956L31.371 48.5394C32.7353 50.2978 34.1508 52.151 34.5302 54.3252C34.5448 54.4128 34.5594 54.5003 34.574 54.5879C34.6178 54.8432 34.6177 55.1424 34.428 55.2956Z" fill="#FEFEFE"/>
<path d="M35.1349 34.1579C35.1057 34.1798 35.0765 34.1944 35.0473 34.209H35.04C34.7628 34.3257 34.4053 34.0923 34.1864 33.8515C32.9461 32.5163 32.1727 30.8309 31.4941 29.1309C31.8152 28.4961 31.9903 27.803 31.9392 27.1172C33.289 28.8537 34.8576 31.0279 35.2589 33.1948C35.2735 33.2824 35.2881 33.3772 35.3027 33.4648C35.3319 33.7056 35.3319 33.9974 35.1349 34.1579Z" fill="#FEFEFE"/>
<path d="M36.2797 41.2861C36.2505 41.308 36.2213 41.3299 36.1921 41.3372C36.1921 41.3372 36.1921 41.3372 36.1848 41.3372C35.9075 41.4612 35.55 41.2205 35.3239 40.9797C34.1638 39.7248 33.4123 38.1707 32.7556 36.5728C32.6097 35.3909 32.4127 34.2162 32.1865 33.0488C33.5509 34.7999 35.9294 38.0394 36.3818 40.323C36.4037 40.4106 36.411 40.5055 36.4256 40.593C36.4693 40.8338 36.4694 41.1256 36.2797 41.2861Z" fill="#FEFEFE"/>
<path d="M39.5272 30.9554C38.7027 32.6919 36.959 33.9614 35.0547 34.2095C35.0839 34.1949 35.1131 34.1803 35.1423 34.1584C35.3393 33.9979 35.332 33.706 35.3028 33.458C35.2882 33.3704 35.2736 33.2756 35.259 33.188C36.1418 32.006 37.5135 30.9481 38.8779 30.4009C38.9216 30.3863 38.9654 30.3717 39.0092 30.3571C39.2281 30.2988 39.4761 30.2915 39.5783 30.4739C39.6585 30.6271 39.5929 30.8095 39.5272 30.9554Z" fill="#3A3938"/>
<path d="M38.8124 52.0996C37.9879 53.836 36.2441 55.1056 34.3398 55.3536C34.369 55.339 34.3982 55.3245 34.4274 55.3026C34.6244 55.1494 34.6171 54.8502 34.5879 54.6021C34.5806 54.5146 34.5587 54.427 34.5441 54.3395C35.427 53.1575 36.7986 52.0923 38.1703 51.5524C38.2068 51.5378 38.2506 51.5232 38.3016 51.5086C38.5205 51.4502 38.7686 51.4429 38.8707 51.6326C38.9437 51.7713 38.878 51.9464 38.8124 52.0996Z" fill="#3A3938"/>
<path d="M40.6649 38.0911C39.8477 39.8276 38.0967 41.0971 36.1924 41.3452C36.2216 41.3306 36.2507 41.316 36.2799 41.2941C36.4769 41.1336 36.4696 40.8418 36.4404 40.5937C36.4259 40.5062 36.4113 40.4186 36.3967 40.3238C37.2795 39.1418 38.6512 38.0839 40.0228 37.5366C40.0593 37.5221 40.1031 37.5075 40.1542 37.4929C40.373 37.4345 40.6211 37.4272 40.7233 37.6096C40.7962 37.7555 40.7378 37.9379 40.6649 38.0911Z" fill="#3A3938"/>
<path d="M40.2362 44.9277C39.4117 46.6642 37.668 47.941 35.7637 48.1818C35.7929 48.1672 35.8221 48.1526 35.8512 48.1307C36.0482 47.9775 36.0409 47.6783 36.0118 47.4376C35.9972 47.35 35.9826 47.2552 35.968 47.1676C36.8508 45.9856 38.2225 44.9277 39.5868 44.3805C39.6306 44.3659 39.6744 44.3513 39.7182 44.3367C39.9371 44.2783 40.1851 44.2711 40.2873 44.4608C40.3675 44.5994 40.3092 44.7745 40.2362 44.9277Z" fill="#3A3938"/>
<path d="M38.8641 51.6253C38.762 51.4356 38.5139 51.4429 38.295 51.5012C37.6603 50.8592 37.1933 50.0493 36.9453 49.1811C36.9088 49.0424 36.8942 48.8528 37.0255 48.7871C37.1277 48.736 37.2444 48.809 37.332 48.8819C38.1418 49.5459 38.6234 50.6184 38.8641 51.6253Z" fill="#3A3938"/>
<path d="M40.2863 44.4529C40.1841 44.2632 39.936 44.2705 39.7172 44.3289C39.0824 43.6868 38.6154 42.8769 38.3674 42.0087C38.3236 41.8701 38.3163 41.6804 38.4476 41.6147C38.5498 41.5637 38.6665 41.6366 38.7614 41.7096C39.5639 42.3735 40.0455 43.446 40.2863 44.4529Z" fill="#3A3938"/>
<path d="M39.0099 30.3635C38.3751 29.7142 37.9082 28.9116 37.6601 28.0434C37.6236 27.9048 37.609 27.7151 37.7404 27.6494C37.8425 27.5983 37.9592 27.6713 38.0541 27.7442C38.8567 28.3936 39.3382 29.4734 39.5863 30.4803C39.4768 30.2906 39.2288 30.2979 39.0099 30.3635Z" fill="#3A3938"/>
<path d="M40.7157 37.6087C40.6136 37.419 40.3655 37.4263 40.1466 37.492C39.5118 36.8426 39.0449 36.04 38.7968 35.1718C38.7603 35.0332 38.7458 34.8435 38.8771 34.7778C38.9792 34.7267 39.096 34.7997 39.1835 34.8727C39.9934 35.5293 40.4749 36.6018 40.7157 37.6087Z" fill="#3A3938"/>
<path d="M33.0634 35.0774C29.7947 34.1435 26.3437 33.91 22.9802 34.3989C22.0171 34.5375 21.0686 34.7345 20.1274 34.9972C19.9596 35.0409 20.0325 35.3036 20.2003 35.2525C23.4471 34.3624 26.8836 34.18 30.2106 34.7126C31.1518 34.8658 32.0784 35.0701 32.9977 35.3328C33.1582 35.3839 33.2312 35.1285 33.0634 35.0774Z" fill="#FEFEFE"/>
<path d="M32.8879 38.9008C29.6411 38.3317 26.3141 38.2149 23.0382 38.5725C22.1188 38.6746 21.1995 38.8132 20.2875 38.981C20.1197 39.0102 20.1927 39.2729 20.3605 39.2364C23.5562 38.6308 26.8321 38.4776 30.0716 38.784C30.9909 38.8716 31.9102 38.9956 32.8222 39.1562C32.9828 39.1853 33.0557 38.93 32.8879 38.9008Z" fill="#FEFEFE"/>
<path d="M33.0624 42.9214C29.7499 42.0386 26.2478 41.8853 22.8697 42.4836C21.9139 42.6514 20.9727 42.8776 20.0461 43.1622C19.8856 43.2132 19.9512 43.4686 20.119 43.4175C23.3731 42.418 26.8388 42.1407 30.2096 42.6077C31.1508 42.739 32.0847 42.9287 32.9967 43.1767C33.1572 43.2205 33.2302 42.9652 33.0624 42.9214Z" fill="#FEFEFE"/>
<path d="M31.7706 46.6935C29.0856 45.9639 26.2621 45.7815 23.5041 46.1681C22.7162 46.2776 21.9428 46.4308 21.1694 46.6351C21.0016 46.6789 21.0745 46.9342 21.2423 46.8905C23.9054 46.1973 26.7071 46.0514 29.4286 46.4746C30.1947 46.5913 30.9462 46.7518 31.6904 46.9561C31.8655 46.9999 31.9311 46.7372 31.7706 46.6935Z" fill="#FEFEFE"/>
<path d="M31.1444 49.2391C28.8972 48.4949 26.4822 48.2906 24.1329 48.6336C23.4616 48.7357 22.7977 48.8816 22.141 49.064C21.9732 49.1151 22.0462 49.3705 22.214 49.3194C24.4612 48.67 26.8616 48.5533 29.1599 48.9911C29.8093 49.1151 30.444 49.2829 31.0715 49.4872C31.2393 49.5456 31.305 49.2902 31.1444 49.2391Z" fill="#FEFEFE"/>
<path d="M35.2445 12.8028C33.8874 15.3637 31.1879 17.1002 28.0943 17.1002C23.6218 17.1002 20.0029 13.474 20.0029 9.00883C20.0029 4.53631 23.6291 0.910156 28.0943 0.910156C30.4947 0.910156 32.6471 1.9535 34.1282 3.60971C33.4642 3.31057 32.72 3.15006 31.9467 3.15006C28.9698 3.15006 26.5548 5.56507 26.5548 8.54188C26.5548 11.5187 28.9698 13.9337 31.9467 13.9337C33.187 13.9337 34.3325 13.5178 35.2445 12.8028Z" fill="#3A3938"/>
<path d="M22.7392 69.2158C22.4036 68.2089 21.5572 67.4136 20.5285 67.1655C20.3607 67.1218 20.2877 67.3844 20.4555 67.4209C21.3894 67.6544 22.1774 68.3694 22.4838 69.2887C22.5349 69.4492 22.7976 69.3763 22.7392 69.2158Z" fill="#3A3938"/>
<path d="M15.2392 69.0265C15.1371 68.8879 14.9036 69.0192 15.0058 69.1652C15.5967 69.975 15.7354 71.084 15.3341 72.0106C15.2684 72.1639 15.4946 72.3025 15.5676 72.1493C16.0053 71.1278 15.8886 69.9167 15.2392 69.0265Z" fill="#3A3938"/>
<path d="M9.69391 67.8007C9.47503 68.6106 8.93512 69.3183 8.2128 69.7488C8.06688 69.8363 8.19821 70.0698 8.35143 69.9823C9.13212 69.5153 9.70851 68.7565 9.94928 67.8737C10.0004 67.7059 9.73769 67.6329 9.69391 67.8007Z" fill="#3A3938"/>
<path d="M6.42323 62.9633C6.37945 62.9195 6.2773 62.9049 6.23353 62.9633C5.83954 63.4594 5.26316 63.8096 4.62839 63.8899C4.55543 63.8972 4.49707 63.9483 4.49707 64.0212C4.49707 64.0869 4.55543 64.1672 4.62839 64.1526C5.32882 64.065 5.98546 63.7075 6.42323 63.1457C6.46701 63.0946 6.4743 63.0217 6.42323 62.9633Z" fill="#3A3938"/>
</svg>
