<svg width="24" height="24" viewBox="0 0 24 24" fill="none" xmlns="http://www.w3.org/2000/svg">
<path d="M23.7998 9.85498C23.9179 9.26661 23.4455 8.56056 22.8551 8.56056L16.1239 7.61917L13.0535 1.50009C12.9354 1.26474 12.8173 1.14707 12.5812 1.02939C11.9907 0.676369 11.2822 0.911718 10.9279 1.50009L7.97563 7.61917L1.24446 8.56056C0.890185 8.56056 0.654004 8.67824 0.535913 8.91359C0.0635499 9.38428 0.0635499 10.0903 0.535913 10.561L5.37763 15.268L4.19673 21.9755C4.19673 22.2108 4.19673 22.4462 4.31482 22.6815C4.66909 23.2699 5.37763 23.5052 5.96809 23.1522L11.9907 19.975L18.0133 23.1522C18.1314 23.2699 18.3676 23.2699 18.6038 23.2699C18.7219 23.2699 18.7219 23.2699 18.84 23.2699C19.4304 23.1522 19.9028 22.5638 19.7847 21.8578L18.6038 15.1503L23.4455 10.4434C23.6817 10.3257 23.7998 10.0903 23.7998 9.85498Z" fill="#965EFB"/>
</svg>
