<svg width="18" height="18" viewBox="0 0 18 18" fill="none" xmlns="http://www.w3.org/2000/svg">
<g clip-path="url(#clip0_7426_34523)">
<path d="M9 1.125V2.30625V1.125Z" fill="#FEFEFE"/>
<path d="M9 1.125V2.30625" stroke="#FEFEFE" stroke-width="1.5" stroke-linecap="round" stroke-linejoin="round"/>
<path fill-rule="evenodd" clip-rule="evenodd" d="M14.5686 3.43164L13.7334 4.26689L14.5686 3.43164Z" fill="#FEFEFE"/>
<path d="M14.5686 3.43164L13.7334 4.26689L14.5686 3.43164Z" fill="#FEFEFE"/>
<path d="M14.5686 3.43164L13.7334 4.26689" stroke="#FEFEFE" stroke-width="1.5" stroke-linecap="round" stroke-linejoin="round"/>
<path d="M16.8746 9H15.6934H16.8746Z" fill="#FEFEFE"/>
<path d="M16.8746 9H15.6934" stroke="#FEFEFE" stroke-width="1.5" stroke-linecap="round" stroke-linejoin="round"/>
<path fill-rule="evenodd" clip-rule="evenodd" d="M14.5686 14.5684L13.7334 13.7332L14.5686 14.5684Z" fill="#FEFEFE"/>
<path d="M14.5686 14.5684L13.7334 13.7332L14.5686 14.5684Z" fill="#FEFEFE"/>
<path d="M14.5686 14.5684L13.7334 13.7332" stroke="#FEFEFE" stroke-width="1.5" stroke-linecap="round" stroke-linejoin="round"/>
<path d="M9 16.8751V15.6938V16.8751Z" fill="#FEFEFE"/>
<path d="M9 16.8751V15.6938" stroke="#FEFEFE" stroke-width="1.5" stroke-linecap="round" stroke-linejoin="round"/>
<path fill-rule="evenodd" clip-rule="evenodd" d="M3.43164 14.5684L4.26689 13.7332L3.43164 14.5684Z" fill="#FEFEFE"/>
<path d="M3.43164 14.5684L4.26689 13.7332L3.43164 14.5684Z" fill="#FEFEFE"/>
<path d="M3.43164 14.5684L4.26689 13.7332" stroke="#FEFEFE" stroke-width="1.5" stroke-linecap="round" stroke-linejoin="round"/>
<path d="M1.125 9H2.30625H1.125Z" fill="#FEFEFE"/>
<path d="M1.125 9H2.30625" stroke="#FEFEFE" stroke-width="1.5" stroke-linecap="round" stroke-linejoin="round"/>
<path fill-rule="evenodd" clip-rule="evenodd" d="M3.43164 3.43164L4.26689 4.26689L3.43164 3.43164Z" fill="#FEFEFE"/>
<path d="M3.43164 3.43164L4.26689 4.26689L3.43164 3.43164Z" fill="#FEFEFE"/>
<path d="M3.43164 3.43164L4.26689 4.26689" stroke="#FEFEFE" stroke-width="1.5" stroke-linecap="round" stroke-linejoin="round"/>
<path d="M9 13.5C11.4853 13.5 13.5 11.4853 13.5 9C13.5 6.51472 11.4853 4.5 9 4.5C6.51472 4.5 4.5 6.51472 4.5 9C4.5 11.4853 6.51472 13.5 9 13.5Z" stroke="#FEFEFE" stroke-width="1.5" stroke-linejoin="round"/>
</g>
<defs>
<clipPath id="clip0_7426_34523">
<rect width="18" height="18" fill="white"/>
</clipPath>
</defs>
</svg>
