 <svg width="64" height="68" viewBox="0 0 64 68" fill="none" xmlns="http://www.w3.org/2000/svg">
<path d="M19.7245 38.3385C18.9709 38.7805 18.21 39.2153 17.4564 39.6574C16.9781 39.9328 16.5071 40.2154 15.9925 40.4183C14.2026 41.1502 12.0576 40.94 10.4561 39.8603C9.91264 39.498 9.43437 39.0487 8.91986 38.6501C7.58648 37.6066 6.01397 36.8819 4.35449 36.5486V36.5413C6.57195 35.7515 9.08653 35.8167 11.2605 36.7225C12.0939 37.0703 12.9055 37.5414 13.8113 37.5921C14.6737 37.6428 15.4998 37.295 16.3259 37.0631C17.152 36.8312 18.1086 36.7298 18.826 37.2008C19.239 37.4762 19.5144 37.8965 19.7245 38.3385Z" fill="#3A3938"/>
<path d="M20.029 31.9689L20.0797 32.0051C19.913 32.2732 19.7681 32.5486 19.6377 32.8385C18.326 31.8167 16.4999 31.679 14.8404 31.8674C13.6302 32.0051 12.4345 32.2805 11.2823 32.6863C9.05037 32.3674 6.86189 31.6718 4.84733 30.65C3.33279 29.8818 1.85449 28.8528 1.07186 27.3455C0.267484 25.7948 0.303714 23.9251 0.695031 22.2149C1.76753 17.5119 5.18069 13.7654 7.83295 9.72903C9.02139 7.91737 10.0721 6.01876 10.9707 4.05493C11.4707 2.96069 11.9345 1.81573 11.9345 0.612793C12.5722 3.27955 11.8548 6.09848 10.7099 8.58406C9.55764 11.0697 7.98512 13.3378 6.76769 15.7944C6.17347 16.9901 5.65171 18.2873 5.74592 19.6206C5.8836 21.628 7.44887 23.3454 9.30401 24.1135C11.1664 24.8817 13.2679 24.831 15.2462 24.4686C16.9564 24.157 18.6231 23.628 20.3116 23.215C20.5652 23.215 20.8116 23.215 21.0653 23.2005C19.7464 25.918 19.0362 29.1137 20.029 31.9689Z" fill="#3A3938"/>
<path d="M54.4142 33.672C53.6968 33.2879 52.9576 32.9546 52.1895 32.6865C51.0373 32.2807 49.8488 32.0053 48.6314 31.8676C46.9647 31.6864 45.1458 31.8169 43.8342 32.8386C43.7037 32.556 43.5588 32.2734 43.3921 32.0053L43.4428 31.9691C44.4356 29.1066 43.7255 25.9181 42.3993 23.1862C41.0297 23.1354 39.6674 22.9398 38.3412 22.5847C36.16 22.005 33.9425 21.0194 31.7323 21.4615C29.5221 21.0122 27.3046 22.005 25.1234 22.5847C23.7973 22.9398 22.4349 23.1354 21.0653 23.1862C19.7319 25.9181 19.029 29.1139 20.0218 31.9691L20.0725 32.0053C19.9059 32.2734 19.7609 32.5488 19.6305 32.8386C18.3188 31.8169 16.4927 31.6792 14.8332 31.8676C13.623 32.0053 12.4274 32.2807 11.2751 32.6865C10.5142 32.9546 9.76784 33.2879 9.05043 33.672C7.37646 34.5778 5.85468 35.788 4.09375 36.5054C4.17346 36.5199 4.26042 36.5344 4.34013 36.5562V36.5489C6.55759 35.759 9.07217 35.8243 11.2462 36.7301C12.0795 37.0779 12.8911 37.5489 13.797 37.5997C14.6593 37.6504 15.4854 37.3026 16.3115 37.0707C17.1376 36.8388 18.0942 36.7373 18.8116 37.2084C19.2174 37.4765 19.4928 37.8968 19.7029 38.3388C19.7392 38.4113 19.7682 38.4838 19.7972 38.5562C21.2392 41.9186 20.232 45.9695 21.8045 49.2667C22.3625 50.4262 23.2176 51.4552 23.5436 52.7089C24.0002 54.448 23.3335 56.2597 22.8117 57.9844C22.29 59.7091 21.9422 61.7019 22.9132 63.2164C23.3263 63.8614 23.9495 64.3542 24.6161 64.731C24.8553 64.8687 25.1089 64.9919 25.3625 65.1006C26.5727 65.6151 27.9206 65.818 29.225 65.6658C29.7105 65.6078 30.2033 65.5064 30.6888 65.4339C31.0077 65.3469 31.341 65.318 31.6816 65.3252H31.7396C32.0802 65.318 32.4135 65.3469 32.7324 65.4339C33.2251 65.5136 33.7179 65.6151 34.1962 65.6658C35.5078 65.818 36.8484 65.6151 38.0586 65.1006C38.3122 64.9919 38.5586 64.8687 38.805 64.7382C39.4717 64.3614 40.0949 63.8686 40.508 63.2237C41.479 61.7091 41.1312 59.7163 40.6094 57.9916C40.0877 56.2669 39.421 54.4553 39.8775 52.7161C40.2036 51.4697 41.066 50.4407 41.6167 49.274C43.1892 45.9767 42.1819 41.9186 43.624 38.5635C43.653 38.491 43.6892 38.4185 43.7182 38.3461C43.9284 37.904 44.2037 37.4837 44.6096 37.2156C45.327 36.7446 46.2835 36.846 47.1096 37.0779C47.9357 37.3098 48.7619 37.6576 49.6242 37.6069C50.5228 37.5562 51.3416 37.0852 52.175 36.7373C54.349 35.8315 56.8636 35.759 59.081 36.5562V36.5634C59.1607 36.5489 59.2477 36.5344 59.3274 36.5127C57.61 35.788 56.0954 34.5778 54.4142 33.672ZM23.7248 40.2882C23.6741 40.7012 23.2465 40.9766 22.8335 41.0128C22.1595 41.0635 21.5146 40.5853 21.261 39.9621C21.0073 39.3389 21.1015 38.607 21.4059 38.0055C21.0436 37.6576 20.558 37.4402 20.058 37.3823C21.1088 36.9837 22.3842 37.3605 23.1958 38.1577C24.0582 39.0128 24.435 40.2592 24.4712 41.4694C24.2538 41.0491 24.0074 40.6505 23.7248 40.2882ZM27.5945 62.6802C27.4278 62.8251 27.1959 62.8686 26.9713 62.8614C26.3553 62.8396 25.7901 62.4773 25.4133 61.9918C25.0365 61.5062 24.8335 60.9048 24.7031 60.3105C24.5799 59.7453 24.5292 59.1583 24.6524 58.6003C24.8046 57.9337 25.2176 57.3322 25.2611 56.6438C25.2828 56.3032 25.2104 55.9263 25.3988 55.6365C25.6089 56.093 25.6307 56.6075 25.6814 57.1003C25.7828 58.0496 25.993 58.9917 26.3046 59.8902C26.6162 60.7743 27.0438 61.6512 27.7757 62.2309C27.7974 62.3903 27.7177 62.5715 27.5945 62.6802ZM38.7905 60.3033C38.6601 60.9048 38.4572 61.499 38.0803 61.9845C37.7035 62.47 37.131 62.8324 36.5223 62.8541C36.2977 62.8613 36.0658 62.8179 35.8991 62.6729C35.7687 62.5642 35.6962 62.3831 35.7252 62.2236C36.4571 61.6439 36.8847 60.7671 37.1963 59.883C37.5079 58.9772 37.718 58.0424 37.8195 57.093C37.8702 56.593 37.8919 56.0858 38.1021 55.6292C38.2905 55.9191 38.218 56.2959 38.2398 56.6365C38.2833 57.3177 38.6891 57.9192 38.8485 58.5931C38.9644 59.1511 38.9065 59.7381 38.7905 60.3033ZM42.2254 39.9548C41.9718 40.578 41.3268 41.0563 40.6529 41.0056C40.2398 40.9766 39.8123 40.694 39.7616 40.2809C39.4717 40.6432 39.2253 41.0418 39.0224 41.4621C39.0514 40.2519 39.4355 39.0055 40.2978 38.1504C41.1022 37.346 42.3776 36.9692 43.4356 37.375C42.9356 37.433 42.4501 37.6504 42.0877 37.9982C42.3848 38.5997 42.479 39.3316 42.2254 39.9548Z" fill="#FEFEFE"/>
<path d="M38.0943 65.0938C37.6016 65.9199 37.0726 66.7605 36.2537 67.2532C35.1957 67.8909 33.8696 67.8185 32.6304 67.7315C32.3333 67.7098 32.0362 67.688 31.7391 67.6663C31.4419 67.688 31.1448 67.7098 30.8477 67.7315C29.6158 67.8257 28.2897 67.8909 27.2244 67.2532C26.4056 66.7605 25.8766 65.9199 25.3838 65.0938C26.594 65.6083 27.9418 65.8112 29.2462 65.659C29.7317 65.601 30.2245 65.4996 30.71 65.4271C31.0434 65.3764 31.3767 65.3329 31.7028 65.3184H31.7608C32.0869 65.3329 32.4202 65.3764 32.7536 65.4271C33.2464 65.5068 33.7391 65.6083 34.2174 65.659C35.5435 65.8039 36.8842 65.6083 38.0943 65.0938Z" fill="#FEFEFE"/>
<path d="M27.595 62.6799C27.4283 62.8249 27.1964 62.8684 26.9718 62.8611C26.3558 62.8394 25.7906 62.477 25.4138 61.9915C25.0369 61.506 24.834 60.9045 24.7036 60.3103C24.5804 59.7451 24.5297 59.1581 24.6529 58.6001C24.8051 57.9334 25.2181 57.3319 25.2616 56.6435C25.2833 56.3029 25.2109 55.9261 25.3993 55.6362C25.6094 56.0928 25.6312 56.6073 25.6819 57.1C25.7833 58.0493 25.9935 58.9914 26.3051 59.89C26.6167 60.7741 27.0443 61.6509 27.7762 62.2306C27.7979 62.3901 27.7182 62.5712 27.595 62.6799Z" fill="#3A3938"/>
<path d="M38.7914 60.303C38.661 60.9044 38.458 61.4987 38.0812 61.9842C37.7044 62.4697 37.1319 62.832 36.5232 62.8538C36.2986 62.861 36.0667 62.8175 35.9 62.6726C35.7696 62.5639 35.6971 62.3827 35.7261 62.2233C36.458 61.6436 36.8855 60.7668 37.1971 59.8827C37.5087 58.9768 37.7189 58.042 37.8203 57.0927C37.8711 56.5927 37.8928 56.0854 38.103 55.6289C38.2914 55.9188 38.2189 56.2956 38.2406 56.6362C38.2841 57.3174 38.6899 57.9188 38.8494 58.5928C38.9653 59.1508 38.9073 59.7377 38.7914 60.303Z" fill="#3A3938"/>
<path d="M24.4645 41.4691C24.2616 41.0487 24.008 40.6502 23.7254 40.2879C23.6747 40.7009 23.2471 40.9763 22.834 41.0125C22.1601 41.0632 21.5152 40.585 21.2615 39.9618C21.0079 39.3385 21.1021 38.6066 21.4065 38.0052C21.0441 37.6573 20.5586 37.4399 20.0586 37.382C21.1094 36.9834 22.3848 37.3602 23.1964 38.1574C24.0515 39.0052 24.4283 40.2516 24.4645 41.4691Z" fill="#3A3938"/>
<path d="M42.0805 37.9973C42.3849 38.5988 42.4791 39.3307 42.2255 39.9539C41.9718 40.5771 41.3269 41.0554 40.6529 41.0046C40.2399 40.9757 39.8123 40.693 39.7616 40.28C39.4718 40.6423 39.2254 41.0409 39.0225 41.4612C39.0514 40.251 39.4355 39.0046 40.2979 38.1495C41.1022 37.3451 42.3776 36.9683 43.4356 37.3741C42.9284 37.4321 42.4429 37.6495 42.0805 37.9973Z" fill="#3A3938"/>
<path d="M59.1318 36.5486C57.4723 36.882 55.8998 37.6139 54.5664 38.6502C54.0519 39.0487 53.5736 39.498 53.0301 39.8603C51.4214 40.9328 49.2764 41.143 47.4937 40.4183C46.9865 40.2082 46.5082 39.9328 46.0299 39.6574C45.2763 39.2154 44.5154 38.7806 43.7617 38.3385C43.9719 37.8965 44.2472 37.4762 44.653 37.2081C45.3705 36.737 46.327 36.8385 47.1531 37.0704C47.9792 37.3023 48.8054 37.6501 49.6677 37.5994C50.5663 37.5487 51.3852 37.0776 52.2185 36.7298C54.3925 35.824 56.9071 35.7515 59.1245 36.5486H59.1318Z" fill="#3A3938"/>
<path d="M62.4069 27.3381C61.6243 28.8454 60.146 29.8671 58.6314 30.6425C56.6169 31.6643 54.4356 32.36 52.1964 32.6788C51.0442 32.273 49.8558 31.9976 48.6383 31.8599C46.9716 31.6788 45.1527 31.8092 43.8411 32.831C43.7106 32.5484 43.5657 32.2657 43.399 31.9976L43.4498 31.9614C44.4425 29.099 43.7324 25.9105 42.4062 23.1785C42.6526 23.1857 42.9063 23.193 43.1599 23.193C44.8556 23.6061 46.5151 24.1351 48.2253 24.4467C50.2036 24.809 52.3051 24.8597 54.1675 24.0916C56.0299 23.3234 57.5951 21.6132 57.7256 19.5987C57.8198 18.2653 57.298 16.9682 56.7038 15.7725C55.4864 13.3159 53.9139 11.0477 52.7617 8.56209C51.6095 6.0765 50.892 3.25757 51.537 0.59082C51.5442 1.79376 52.0008 2.93872 52.5008 4.03296C53.3994 5.99679 54.4501 7.90265 55.6386 9.70705C58.2908 13.7362 61.6967 17.4899 62.7765 22.193C63.175 23.9177 63.2185 25.7873 62.4069 27.3381Z" fill="#3A3938"/>
<path d="M27.3557 41.3094C26.8484 39.8673 25.9571 38.5484 24.7831 37.5629C23.4208 36.4107 21.7178 35.7078 19.9424 35.5411C19.7757 35.5266 19.7757 35.7947 19.9424 35.8092C21.5077 35.9542 23.0222 36.5484 24.2759 37.4977C25.5078 38.4325 26.4716 39.7369 27.0223 41.179C28.3267 44.5994 27.0151 48.1574 26.3701 51.5633C26.0151 53.4692 25.8411 55.4548 26.3919 57.3389C26.4426 57.5056 26.6962 57.4331 26.6455 57.2664C25.5875 53.6721 27.16 50.0343 27.6745 46.4907C27.9354 44.7588 27.9426 42.9761 27.3557 41.3094Z" fill="#3A3938"/>
<path d="M38.0424 64.9921C36.5714 65.8254 34.8249 65.3544 33.2379 65.2457C31.535 65.1298 29.8973 65.6877 28.2015 65.6515C27.3537 65.637 26.5058 65.4559 25.7957 64.9703C25.6507 64.8761 25.5203 65.1008 25.658 65.2022C26.9914 66.1153 28.6798 65.9704 30.1944 65.753C31.0929 65.6225 31.9988 65.4631 32.9118 65.4993C33.8177 65.5283 34.709 65.7022 35.6148 65.7385C36.4917 65.7747 37.3975 65.666 38.1729 65.224C38.3251 65.137 38.1874 64.9124 38.0424 64.9921Z" fill="#3A3938"/>
<path d="M9.55766 10.5766C9.06489 10.1129 8.5069 9.72154 7.89819 9.43167C7.74601 9.35921 7.60832 9.58385 7.7605 9.66357C8.34748 9.94618 8.89098 10.323 9.36201 10.765C9.49245 10.881 9.68085 10.6926 9.55766 10.5766Z" fill="#FEFEFE"/>
<path d="M8.14415 12.8304C7.57892 12.4173 6.97021 12.0695 6.32526 11.7869C6.26004 11.7579 6.18033 11.7651 6.14409 11.8376C6.10786 11.8956 6.12235 11.9898 6.19481 12.0188C6.83976 12.2941 7.44849 12.642 8.01372 13.0623C8.07169 13.1058 8.15865 13.0695 8.19489 13.0115C8.23112 12.9463 8.20213 12.8739 8.14415 12.8304Z" fill="#FEFEFE"/>
<path d="M6.33966 16.1211C5.47007 15.8313 4.56425 15.6501 3.65117 15.5704C3.47725 15.5559 3.4845 15.824 3.65117 15.8385C4.54251 15.9182 5.41934 16.0994 6.27444 16.382C6.43387 16.4327 6.49908 16.1791 6.33966 16.1211Z" fill="#FEFEFE"/>
<path d="M5.72404 18.563C4.34719 19.0486 2.94859 19.4761 1.54275 19.8529C1.37607 19.8964 1.44854 20.15 1.61522 20.1066C3.0283 19.7297 4.41965 19.3022 5.7965 18.8167C5.95593 18.7659 5.89071 18.5051 5.72404 18.563Z" fill="#FEFEFE"/>
<path d="M6.31067 21.9545C4.41206 23.4908 2.65114 25.1938 1.05688 27.0417C0.948183 27.1721 1.12934 27.3605 1.24529 27.2301C2.83954 25.3822 4.60047 23.6792 6.49908 22.143C6.62952 22.0343 6.44111 21.8458 6.31067 21.9545Z" fill="#FEFEFE"/>
<path d="M9.07171 24.1135C7.84703 26.36 6.62236 28.5992 5.39769 30.8456C5.31797 30.9978 5.54261 31.1282 5.62957 30.9833C6.85425 28.7369 8.07893 26.4977 9.30361 24.2512C9.37607 24.099 9.15142 23.9614 9.07171 24.1135Z" fill="#FEFEFE"/>
<path d="M12.9193 24.381C12.4483 27.0767 11.9772 29.7652 11.5062 32.4609C11.4772 32.6276 11.7309 32.7001 11.7598 32.5334C12.2309 29.8377 12.7019 27.1492 13.1729 24.4534C13.2092 24.2795 12.9483 24.207 12.9193 24.381Z" fill="#FEFEFE"/>
<path d="M17.2172 24.0191C16.9853 26.6641 16.7461 29.3019 16.5142 31.9469C16.4997 32.1136 16.7679 32.1136 16.7824 31.9469C17.0143 29.3019 17.2534 26.6641 17.4853 24.0191C17.4998 23.8452 17.2317 23.8452 17.2172 24.0191Z" fill="#FEFEFE"/>
<path d="M36.1528 41.3821C36.6601 39.9401 37.5514 38.6212 38.7253 37.6357C40.0877 36.4834 41.7907 35.7805 43.5661 35.6138C43.7328 35.5994 43.7328 35.8675 43.5661 35.882C42.0008 36.0269 40.4863 36.6211 39.2326 37.5704C38.0007 38.5052 37.0369 39.8096 36.4861 41.2517C35.1818 44.6721 36.4934 48.2302 37.1383 51.6361C37.4934 53.542 37.6673 55.5275 37.1166 57.4116C37.0659 57.5783 36.8122 57.5058 36.863 57.3392C37.921 53.7449 36.3485 50.1071 35.834 46.5635C35.5658 44.8315 35.5586 43.0489 36.1528 41.3821Z" fill="#3A3938"/>
<path d="M53.9424 10.6489C54.4352 10.1851 54.9932 9.7938 55.6019 9.50394C55.7541 9.43147 55.8917 9.65612 55.7396 9.73583C55.1526 10.0184 54.6091 10.3953 54.1381 10.8373C54.0076 10.9533 53.8192 10.7648 53.9424 10.6489Z" fill="#FEFEFE"/>
<path d="M55.3554 12.9031C55.9207 12.4901 56.5294 12.1422 57.1743 11.8596C57.2395 11.8306 57.3193 11.8379 57.3555 11.9104C57.3917 11.9683 57.3772 12.0625 57.3048 12.0915C56.6598 12.3669 56.0511 12.7147 55.4859 13.135C55.4279 13.1785 55.3409 13.1423 55.3047 13.0843C55.2685 13.0191 55.3047 12.9466 55.3554 12.9031Z" fill="#FEFEFE"/>
<path d="M57.1682 16.2002C58.0378 15.9104 58.9436 15.7292 59.8567 15.6495C60.0306 15.635 60.0234 15.9031 59.8567 15.9176C58.9654 15.9973 58.0885 16.1785 57.2334 16.4611C57.074 16.5046 57.0015 16.251 57.1682 16.2002Z" fill="#FEFEFE"/>
<path d="M57.776 18.6351C59.1529 19.1206 60.5515 19.5482 61.9573 19.925C62.124 19.9685 62.0515 20.2221 61.8849 20.1786C60.4718 19.8018 59.0804 19.3742 57.7036 18.8887C57.5441 18.838 57.6166 18.5844 57.776 18.6351Z" fill="#FEFEFE"/>
<path d="M57.1974 22.0268C59.096 23.5631 60.8569 25.266 62.4512 27.1139C62.5599 27.2444 62.3787 27.4328 62.2627 27.3023C60.6685 25.4544 58.9076 23.7515 57.009 22.2152C56.8713 22.1065 57.0597 21.9181 57.1974 22.0268Z" fill="#FEFEFE"/>
<path d="M54.4358 24.1863C55.6605 26.4327 56.8852 28.6719 58.1099 30.9184C58.1896 31.0706 57.9649 31.201 57.878 31.0561C56.6533 28.8096 55.4286 26.5704 54.2039 24.324C54.1242 24.1718 54.3561 24.0341 54.4358 24.1863Z" fill="#FEFEFE"/>
<path d="M50.5811 24.4542C51.0522 27.1499 51.5232 29.8384 51.9942 32.5342C52.0232 32.7008 51.7696 32.7733 51.7406 32.6066C51.2696 29.9109 50.7985 27.2224 50.3275 24.5267C50.2985 24.3528 50.5521 24.2803 50.5811 24.4542Z" fill="#FEFEFE"/>
<path d="M46.2833 24.0916C46.5152 26.7366 46.7544 29.3744 46.9863 32.0194C47.0008 32.1861 46.7326 32.1861 46.7181 32.0194C46.4862 29.3744 46.2471 26.7366 46.0152 24.0916C46.0007 23.9177 46.2689 23.9249 46.2833 24.0916Z" fill="#FEFEFE"/>
<path d="M36.3328 58.0424C34.1733 59.499 31.4196 59.854 28.963 58.9772C28.2745 58.7308 27.6224 58.3902 27.0209 57.9772C26.8832 57.883 26.7455 58.1076 26.8832 58.2091C29.0789 59.7309 31.9196 60.1367 34.4414 59.2743C35.1516 59.0279 35.8328 58.6946 36.456 58.2743C36.6082 58.1801 36.4777 57.9482 36.3328 58.0424Z" fill="#3A3938"/>
<path d="M34.6818 62.8687C32.9934 63.6078 31.0368 63.6296 29.3266 62.9412C29.1672 62.8759 29.102 63.1368 29.2541 63.1948C31.0296 63.9049 33.0586 63.8615 34.8123 63.0933C34.9717 63.0281 34.8413 62.8035 34.6818 62.8687Z" fill="#3A3938"/>
<path d="M31.7386 23.6284L32.7604 28.6068L35.5141 27.3024L34.2097 30.0562L39.1881 31.0779L34.2097 32.0997L35.5141 34.8534L32.7604 33.5418L31.7386 38.5274L30.7168 33.5418L27.9631 34.8534L29.2747 32.0997L24.2891 31.0779L29.2747 30.0562L27.9631 27.3024L30.7168 28.6068L31.7386 23.6284Z" fill="#3A3938"/>
<path d="M27.9864 20.6275C25.9863 19.1999 24.8196 16.7361 25.1674 14.1273C25.6674 10.3663 29.1168 7.72131 32.8778 8.22133C36.6388 8.72134 39.2838 12.1707 38.7838 15.9317C38.5157 17.9535 37.3997 19.6492 35.8344 20.7072C36.1605 20.1782 36.3779 19.5768 36.4649 18.9246C36.7982 16.4245 35.0373 14.1201 32.5372 13.794C30.0372 13.4606 27.7327 15.2215 27.4066 17.7216C27.2689 18.7724 27.4936 19.7797 27.9864 20.6275Z" fill="#FEFEFE"/>
</svg>
