<svg width="48" height="73" viewBox="0 0 48 73" fill="none" xmlns="http://www.w3.org/2000/svg">
<path d="M41.856 14.0236C39.9864 6.44366 33.1238 0.86377 25.0584 0.86377C24.8917 0.86377 24.7178 0.863777 24.5511 0.871023C19.9278 1.00146 15.6378 2.92906 12.4638 6.29148C10.3985 8.47996 8.97091 11.1105 8.26074 13.9511C8.4564 14.183 8.6738 14.4077 8.89119 14.6178C9.52165 11.7192 10.9347 9.03795 13.0218 6.82774C16.0508 3.61749 20.1524 1.77684 24.5729 1.6464C28.986 1.51597 33.1891 3.11747 36.4066 6.14655C38.8922 8.48721 40.5444 11.4728 41.2328 14.741C41.4575 14.5164 41.6749 14.2845 41.856 14.0236Z" fill="#FEFEFE"/>
<path d="M43.4212 43.6113C43.1893 45.923 44.0227 48.2202 43.5807 50.5246C43.4067 51.4232 43.0444 52.3073 42.3995 52.9739C41.7545 53.6334 40.8849 53.9232 40.0588 54.2783C39.6457 54.4522 39.2327 54.6552 38.8921 54.9523C38.508 55.2929 38.3124 55.7349 38.2182 56.2349C38.1167 56.7639 38.095 57.3074 37.8341 57.7857C37.8341 57.7857 37.8341 57.7857 37.8341 57.7929C37.8558 57.8147 37.8848 57.8292 37.9066 57.8437C39.3196 58.9524 40.3342 60.5684 40.74 62.3221C41.1458 64.0902 40.8704 65.9454 40.0878 67.5686C39.2834 69.2353 37.9573 70.6629 36.334 71.5542C34.5369 72.547 32.4281 72.8949 30.3991 72.6557C29.4063 72.5398 28.4352 72.2861 27.5149 71.9021C26.5584 71.4963 25.6743 70.9455 24.7757 70.4455C23.8626 69.9383 22.9061 69.46 21.8626 69.2933C20.8843 69.1339 19.8915 69.3006 18.9422 69.5614C17.203 70.0397 15.4131 70.9528 13.5652 70.7644C11.7246 70.5759 10.5651 69.1701 9.92016 67.5469C9.16652 65.6555 9.06506 63.4453 7.76792 61.8003C6.63745 60.38 4.83305 59.793 3.28952 58.9524C2.54312 58.5466 1.8257 58.0683 1.26771 57.4234C0.680738 56.7349 0.303912 55.9016 0.144487 55.0175C-0.196104 53.1479 0.289425 51.1913 0.999592 49.4666C1.83295 47.4448 2.95618 45.4954 3.35474 43.3142C3.7533 41.1185 3.03589 39.0532 2.49239 36.9517C2.00687 35.0603 1.75324 33.053 2.82574 31.3066C3.333 30.4877 4.03592 29.8138 4.74609 29.1688C5.52147 28.4659 6.29687 27.7775 6.99254 26.9949C9.83321 23.8208 11.7608 19.7845 15.3479 17.3206C16.8914 16.2554 18.6886 15.5959 20.5799 15.6394C22.1669 15.6757 23.7539 16.2119 24.8989 17.3279C25.1018 17.1322 25.3047 16.9511 25.5294 16.7772C27.1381 15.5307 29.2614 14.9655 31.2759 15.3061C33.2397 15.6394 35.0514 16.8206 36.1674 18.4656C37.3268 20.1686 37.4935 22.3063 38.5298 24.0672C39.0878 25.0165 39.8994 25.6615 40.8777 26.147C41.827 26.6253 42.8415 26.9876 43.7256 27.5963C45.2329 28.6471 46.2981 30.2703 46.7764 32.0385C47.2692 33.8791 47.0953 35.7778 46.2619 37.488C45.2546 39.5242 43.6459 41.2924 43.4212 43.6113Z" fill="#3A3938"/>
<path d="M41.1676 39.0533C40.5661 40.1258 39.6458 41.0099 38.5588 41.5752C38.3124 45.097 37.1747 48.5971 34.95 51.3363C32.7108 54.1045 29.2904 55.9959 25.7468 56.0756C22.2032 55.9959 18.7828 54.1045 16.5364 51.3363C14.3189 48.5971 13.1739 45.097 12.9348 41.5752C11.8478 41.0099 10.9275 40.1258 10.326 39.0533C9.57236 37.7055 9.33322 36.075 9.66657 34.5677C9.84773 33.7633 10.2391 32.9372 10.971 32.5531C11.5869 32.2343 12.4638 32.4082 12.8261 32.9517C15.3769 31.9517 17.9277 30.9009 20.1886 29.3574C22.6815 27.6617 24.8337 25.3065 25.7106 22.4224H25.7685C26.6454 25.2993 28.8049 27.6617 31.2905 29.3574C33.5514 30.8937 36.1022 31.9517 38.653 32.9517C39.0153 32.4082 39.8922 32.2343 40.5081 32.5531C41.24 32.93 41.6314 33.7561 41.8125 34.5677C42.1676 36.0822 41.9285 37.7127 41.1676 39.0533Z" fill="#FEFEFE"/>
<path d="M28.5654 50.1484C27.906 50.9238 26.9349 51.4238 25.9204 51.518C24.9059 51.4311 23.9348 50.9311 23.2754 50.1484C24.1232 50.4383 25.0291 50.547 25.9204 50.4673C26.8117 50.547 27.7176 50.4383 28.5654 50.1484Z" fill="#3A3938"/>
<path d="M18.8207 33.4301C17.4076 33.4519 16.0162 34.1548 15.1611 35.278C15.3785 34.249 16.1539 33.3939 17.0887 32.9011C18.067 32.3794 19.1975 32.2199 20.299 32.1692C20.8642 32.1475 21.4657 32.162 21.9222 32.4881C22.328 32.7779 22.5454 33.2634 22.6179 33.7562C22.6904 34.249 22.6251 34.749 22.5672 35.2418C21.6903 34.104 20.2555 33.4084 18.8207 33.4301Z" fill="#3A3938"/>
<path d="M22.53 43.9233C23.6532 44.0828 24.7837 44.1915 25.9214 44.2494C27.0519 44.1915 28.1896 44.0828 29.3128 43.9233C29.3491 44.2205 29.1317 44.5248 28.8636 44.677C28.5664 44.8364 28.2259 44.8654 27.8853 44.8871C27.5519 44.9089 27.2041 44.9379 26.907 45.0973C26.6533 45.2277 26.4649 45.4524 26.2186 45.6046C26.1316 45.6625 26.0229 45.6988 25.9214 45.7205C25.82 45.6988 25.7113 45.6625 25.6243 45.6046C25.3779 45.4596 25.1895 45.235 24.9359 45.0973C24.6388 44.9379 24.2982 44.9089 23.9576 44.8871C23.6243 44.8654 23.2764 44.8364 22.9793 44.677C22.7112 44.5248 22.501 44.2277 22.53 43.9233Z" fill="#3A3938"/>
<path d="M36.3331 35.2775C35.478 34.147 34.0939 33.4514 32.6735 33.4296C31.2387 33.4079 29.8039 34.1036 28.927 35.2413C28.8618 34.7485 28.8039 34.2485 28.8763 33.7557C28.9488 33.263 29.1662 32.7774 29.572 32.4876C30.0285 32.1615 30.6373 32.147 31.1952 32.1687C32.2967 32.2194 33.4272 32.3789 34.4055 32.9006C35.3403 33.3934 36.1229 34.2485 36.3331 35.2775Z" fill="#3A3938"/>
<path d="M29.812 48.9014C30.0512 48.9956 30.3121 49.0391 30.5657 49.0319C30.3338 49.2348 30.0294 49.3652 29.7251 49.4304C29.3555 49.5101 28.9714 49.5101 28.5946 49.5029C27.7033 49.4956 26.8192 49.4956 25.9279 49.4812C25.0365 49.4884 24.1452 49.4956 23.2611 49.5029C22.877 49.5029 22.5002 49.5101 22.1306 49.4304C21.8263 49.3652 21.5292 49.2348 21.29 49.0319C21.5437 49.0463 21.8045 48.9956 22.0364 48.9014C22.5147 48.7203 22.9133 48.3797 23.3118 48.0681C23.7104 47.7565 24.138 47.4448 24.638 47.3217C25.0873 47.213 25.6018 47.2927 25.9279 47.6043C26.254 47.2927 26.7685 47.2057 27.2178 47.3217C27.7105 47.4376 28.1381 47.7492 28.5439 48.0681C28.9352 48.3797 29.3338 48.713 29.812 48.9014Z" fill="#3A3938"/>
<path d="M38.2843 63.8369C37.6394 65.279 36.3278 66.337 34.8857 66.9167C33.1537 67.6124 31.2261 67.6414 29.3927 67.4168C27.8492 67.2211 26.3347 66.8298 24.8854 66.2718C23.4288 65.7066 22.0374 64.9747 20.7476 64.0978C19.4504 63.221 18.2547 62.1919 17.1895 61.0542C16.1025 59.8948 15.1532 58.6121 14.3633 57.228C13.5154 55.7497 12.8487 54.17 12.3632 52.5322C11.8777 50.8945 11.5806 49.1988 11.4646 47.4958C11.3487 45.7856 11.4212 44.0682 11.682 42.3797C11.7183 42.1478 11.7618 41.9087 11.798 41.6768C11.8125 41.6841 11.8342 41.6841 11.856 41.6841C13.3777 41.3145 15.03 42.0536 15.7836 43.4305C16.5807 44.9016 16.3923 46.6552 16.675 48.2495C16.9213 49.6553 17.559 51.1409 19.0156 51.6336C19.8562 51.9235 20.762 51.851 21.6316 51.9235C22.3853 51.9887 23.2114 52.1844 23.7187 52.7859C24.5375 53.7497 24.2187 55.5396 25.5086 56.1265C26.2767 56.4744 27.1391 56.1483 27.9434 56.1628C28.6826 56.1773 29.2841 56.5758 29.6899 57.1845C30.0812 57.7715 30.2913 58.4817 30.371 59.1846C30.4725 60.0542 30.4435 60.9311 30.5884 61.7934C30.7189 62.5905 31.0232 63.3514 31.5957 63.9239C32.1102 64.4384 32.7842 64.779 33.4943 64.9239C34.9871 65.2283 36.4872 64.5906 37.4437 63.4311C38.0887 62.6557 38.4438 61.7137 38.538 60.7354C38.8133 61.7644 38.7119 62.8876 38.2843 63.8369Z" fill="#3A3938"/>
<path d="M21.9701 36.8929C20.2454 38.2263 17.825 38.2915 16.0279 37.0596C15.883 36.9654 15.738 37.1828 15.8757 37.2842C16.825 37.9364 17.9845 38.277 19.1367 38.219C20.2309 38.161 21.2817 37.7697 22.144 37.0958C22.2817 36.9871 22.1005 36.7842 21.9701 36.8929Z" fill="#3A3938"/>
<path d="M18.8765 38.4871C17.7678 38.4871 16.6591 38.1393 15.7243 37.5016C15.5431 37.3784 15.4924 37.132 15.6228 36.9436C15.7532 36.7552 15.9924 36.7117 16.1736 36.8349C17.8693 37.9943 20.1809 37.9291 21.7969 36.6754C21.9781 36.5378 22.2245 36.574 22.3694 36.7552C22.5071 36.9291 22.4781 37.1682 22.3042 37.3059C21.3839 38.0161 20.2896 38.4219 19.1447 38.4798C19.0577 38.4871 18.9707 38.4871 18.8765 38.4871Z" fill="#3A3938"/>
<path d="M35.8059 36.169C34.9943 36.9879 33.9145 37.5314 32.7768 37.6836C31.5956 37.8357 30.3927 37.5749 29.3782 36.9589C29.2332 36.8719 29.11 37.1111 29.2622 37.198C30.9289 38.2053 33.0304 38.2488 34.7334 37.314C35.2044 37.0531 35.632 36.727 36.0088 36.3502C36.132 36.2197 35.9291 36.0458 35.8059 36.169Z" fill="#3A3938"/>
<path d="M32.0949 38.2484C31.0587 38.2484 30.0296 37.973 29.1166 37.4223C28.9934 37.3498 28.9209 37.2121 28.9209 37.0672C28.9209 36.915 29.0006 36.7846 29.131 36.7121C29.247 36.6469 29.3919 36.6541 29.5151 36.7266C30.4862 37.3136 31.6311 37.56 32.7399 37.415C33.8196 37.2774 34.8414 36.7628 35.6168 35.9802C35.7182 35.8788 35.8631 35.8353 36.0081 35.8715C36.153 35.9077 36.269 36.0237 36.3052 36.1614C36.3414 36.2918 36.3052 36.4295 36.2037 36.5309C35.7979 36.9368 35.3486 37.2774 34.8704 37.5455C34.0008 38.0165 33.0515 38.2484 32.0949 38.2484Z" fill="#3A3938"/>
<path d="M38.364 39.5608C38.3205 39.3941 38.0669 39.4666 38.1031 39.6333C38.4147 40.9232 38.5379 42.2493 38.4655 43.5754C38.4582 43.7493 38.7263 43.7493 38.7336 43.5754C38.8061 42.2276 38.6829 40.8725 38.364 39.5608Z" fill="#3A3938"/>
<path d="M40.7909 44.4742C40.3706 43.5683 39.943 42.6118 39.8923 41.6045C39.8488 40.7929 40.03 39.9015 40.5807 39.2711C40.7184 39.1189 40.8706 38.9812 41.0373 38.8725C41.1822 38.7783 41.0445 38.5464 40.8996 38.6406C40.2256 39.0899 39.8343 39.8146 39.6894 40.5972C39.5227 41.4886 39.6749 42.3726 39.972 43.2205C40.3271 44.2133 40.8561 45.1336 41.2329 46.1191C41.6025 47.0757 41.8634 48.1554 41.588 49.17C41.1315 50.8874 39.4068 51.8222 38.1531 52.902C36.7835 54.0832 35.624 55.8223 35.827 57.7065C35.9429 58.7862 36.4429 59.7645 36.682 60.8153C36.8922 61.7428 36.8632 62.8153 36.1241 63.511C35.9646 63.6632 35.7835 63.7791 35.5806 63.8516C35.5081 63.8806 35.4791 63.953 35.4936 64.011C35.2545 63.953 35.0298 63.8733 34.8124 63.7646C34.1747 63.4313 33.6675 62.8805 33.3269 62.2501C32.9428 61.5327 32.8124 60.7355 32.6529 59.9457C32.6384 59.8877 32.6312 59.8297 32.6167 59.7717C33.0805 59.5616 33.4138 59.163 33.595 58.692C33.8341 58.0688 33.7689 57.3804 33.6167 56.7499C33.4501 56.047 33.1674 55.3803 33.0515 54.6629C32.95 54.0469 33.008 53.4165 33.2109 52.8295C33.4356 52.1845 33.8341 51.6048 34.3559 51.1628C34.4863 51.0541 34.2979 50.8657 34.1675 50.9744C33.2906 51.7135 32.7544 52.8368 32.7326 53.9817C32.7037 55.3731 33.595 56.6267 33.4718 58.0253C33.4211 58.6195 33.1095 59.2427 32.5515 59.5109C32.4138 58.9384 32.2181 58.3804 31.8558 57.9166C31.421 57.3514 30.7833 57.0325 30.0876 56.9021C29.2833 56.7499 28.4716 56.8224 27.66 56.7789C26.8701 56.7427 26.0368 56.5977 25.4426 56.0325C25.3194 55.9165 25.131 56.105 25.2542 56.2209C26.3846 57.3007 28.0586 56.9745 29.4789 57.0905C30.2398 57.1485 31.008 57.3586 31.537 57.9456C32.0877 58.5543 32.2689 59.3949 32.4211 60.1776C32.5805 60.9892 32.7399 61.8008 33.1674 62.5254C33.537 63.1487 34.066 63.6994 34.7182 64.0255C35.3994 64.3661 36.2038 64.4676 36.9357 64.2574C37.6241 64.0617 38.1821 63.5835 38.5444 62.9747C39.0155 62.1921 39.1169 61.3443 39.0082 60.4964C39.3053 61.3805 39.3633 62.3443 39.1169 63.2501C38.6749 64.8878 37.298 66.2212 35.653 66.6198C33.9573 67.0401 32.066 66.4024 30.9283 65.0908C29.8992 63.8951 29.5659 62.1849 28.3412 61.1413C27.631 60.5326 26.7252 60.3442 25.8049 60.4167C24.7469 60.5036 23.7469 60.895 22.7033 61.0761C21.8193 61.2283 20.8482 61.1993 20.0801 60.6703C19.2757 60.1196 19.1598 59.1775 19.1815 58.2789C19.196 57.3949 19.2902 56.4673 18.8699 55.6484C18.5148 54.96 17.8699 54.4672 17.1887 54.1339C15.6814 53.3947 13.906 53.3802 12.4566 52.5107C11.6958 52.0541 11.1595 51.3584 11.0001 50.4743C10.8262 49.5178 11.0653 48.525 11.4204 47.6337C12.1378 45.8438 13.377 44.0828 12.9856 42.0538C12.9059 41.6262 12.7393 41.2204 12.4856 40.8654C12.3842 40.7277 12.1523 40.8581 12.2537 41.003C13.4929 42.764 12.3624 44.9524 11.5726 46.6409C11.145 47.554 10.7609 48.5033 10.6885 49.5178C10.6305 50.4309 10.8551 51.3439 11.4711 52.0396C12.6306 53.344 14.5147 53.4744 16.0727 53.9745C16.8553 54.2208 17.6452 54.5759 18.2177 55.1774C18.5076 55.4818 18.725 55.8586 18.8264 56.2644C18.9496 56.7282 18.9496 57.2064 18.9351 57.6847C18.9134 58.5761 18.8264 59.5616 19.3627 60.3297C19.8482 61.0254 20.696 61.3515 21.5221 61.4167C22.5874 61.5037 23.6309 61.1341 24.6527 60.8877C25.6455 60.6486 26.7614 60.5037 27.6963 61.0182C28.4064 61.4095 28.8702 62.0979 29.2543 62.7936C29.6528 63.511 29.9862 64.2719 30.4645 64.9386C31.4862 66.3517 33.2689 67.1633 35.0081 67.0039C36.711 66.8517 38.2618 65.7502 39.0227 64.2357C39.53 63.2284 39.6459 62.0689 39.414 60.9819C39.7836 62.0979 39.8851 63.3008 39.6894 64.4603C39.5082 65.5618 39.0589 66.6125 38.3488 67.4821C37.6531 68.3445 36.74 69.0112 35.7255 69.4605C34.7182 69.9097 33.6095 70.1271 32.508 70.0764C31.2833 70.0257 30.1529 69.6126 29.1021 68.9894C26.8049 67.6343 24.8556 65.4676 22.0946 65.0835C21.4497 64.9965 20.7902 65.0183 20.1598 65.1922C19.5801 65.3516 19.0438 65.6197 18.5148 65.8951C17.4785 66.4314 16.3191 67.1126 15.1089 66.772C13.9639 66.4531 13.1958 65.3589 12.8407 64.2791C12.3914 62.924 12.4132 61.4819 12.1016 60.0978C11.8407 58.9529 11.3334 57.8007 10.3479 57.105C9.45655 56.4745 8.34782 56.2789 7.34054 55.9093C6.84052 55.7281 6.34051 55.489 5.9347 55.1267C5.4999 54.7354 5.23178 54.2136 5.12308 53.6411C4.8767 52.373 5.3912 51.1265 6.1231 50.1048C6.90574 49.0178 7.91302 48.1265 8.73189 47.0684C9.54351 46.0177 10.1305 44.8147 10.087 43.4596C10.029 41.9306 9.3551 40.532 9.01451 39.0682C8.71739 37.7928 8.71014 36.3652 9.62322 35.3289C9.98555 34.9231 10.4638 34.6188 11.0073 34.5536C11.174 34.5318 11.1812 34.2637 11.0073 34.2854C9.85511 34.4231 9.029 35.3797 8.71015 36.4449C8.2826 37.8725 8.78986 39.387 9.22465 40.7422C9.68844 42.1915 10.1015 43.706 9.53626 45.1916C9.04349 46.4887 8.04346 47.5105 7.12314 48.5105C6.23181 49.4816 5.31873 50.5396 4.9709 51.8367C4.65929 52.9672 4.77524 54.2788 5.6086 55.1629C6.3695 55.9745 7.50721 56.2426 8.52898 56.5687C9.06523 56.7427 9.60872 56.9311 10.087 57.2427C10.6088 57.576 11.0146 58.0615 11.3044 58.605C12.5581 60.9747 11.6885 64.1052 13.6596 66.1633C14.0509 66.5763 14.5509 66.8952 15.1017 67.0401C15.6669 67.185 16.2539 67.1343 16.8119 66.9676C18.0148 66.598 19.0366 65.7864 20.2467 65.4458C21.6308 65.0618 23.0802 65.4603 24.3266 66.098C25.573 66.7357 26.6527 67.6271 27.7832 68.4242C28.8557 69.1851 30.0007 69.8808 31.2978 70.1706C32.3848 70.417 33.5298 70.3808 34.6095 70.1126C36.798 69.5692 38.7184 68.0474 39.5662 65.9314C40.4068 63.8154 40.1677 61.2935 38.9865 59.3514C38.8053 59.0543 38.6024 58.779 38.3778 58.5108C38.2836 58.3224 37.5879 58.1485 38.4502 59.3369C38.8415 60.3732 38.972 61.4964 38.4865 62.5327C38.1893 63.1632 37.6966 63.7067 37.0299 63.9458C36.6241 64.0907 36.182 64.1269 35.7545 64.0617C36.4864 63.7429 36.9357 62.9892 37.0371 62.2066C37.1748 61.1341 36.7545 60.0979 36.4284 59.0978C36.2545 58.5688 36.1023 58.0253 36.0733 57.4673C36.0516 57.0035 36.1168 56.547 36.2473 56.0977C36.5154 55.1919 37.0589 54.3875 37.6966 53.7063C38.885 52.4454 40.5952 51.6555 41.4793 50.1193C42.5518 48.2641 41.6025 46.2206 40.7909 44.4742Z" fill="#FEFEFE"/>
<path d="M28.5661 12.2921C27.8269 13.6834 26.3631 14.6255 24.6819 14.6255C22.2543 14.6255 20.2832 12.6544 20.2832 10.2268C20.2832 7.7992 22.2543 5.82812 24.6819 5.82812C25.9863 5.82812 27.153 6.39336 27.9574 7.29919C27.595 7.13976 27.1965 7.04555 26.7689 7.04555C25.1529 7.04555 23.8413 8.35719 23.8413 9.97319C23.8413 11.5892 25.1529 12.9008 26.7689 12.9008C27.4501 12.9008 28.0733 12.6762 28.5661 12.2921Z" fill="#3A3938"/>
</svg>
